<svg width="25" height="25" viewBox="0 0 25 25" fill="none" xmlns="http://www.w3.org/2000/svg">
<path d="M6.17705 8.86445L15.0937 4.40613C21.0832 1.40614 23.5416 3.86447 20.5416 9.85403L19.6353 11.6665C19.3749 12.1978 19.3749 12.8123 19.6353 13.3436L20.5416 15.1457C23.5416 21.1352 21.0937 23.5936 15.0937 20.5936L6.17705 16.1353C2.17707 14.1353 2.17707 10.8644 6.17705 8.86445ZM9.54162 13.2811H15.1666C15.5937 13.2811 15.9478 12.9269 15.9478 12.4999C15.9478 12.0728 15.5937 11.7186 15.1666 11.7186H9.54162C9.11454 11.7186 8.76037 12.0728 8.76037 12.4999C8.76037 12.9269 9.11454 13.2811 9.54162 13.2811Z" fill="#566CA2"/>
</svg>
