<svg width="39" height="39" viewBox="0 0 39 39" fill="none" xmlns="http://www.w3.org/2000/svg">
<path d="M29.25 21.1218H21.125V29.2468C21.125 29.6778 20.9538 30.0911 20.649 30.3959C20.3443 30.7006 19.931 30.8718 19.5 30.8718C19.069 30.8718 18.6557 30.7006 18.351 30.3959C18.0462 30.0911 17.875 29.6778 17.875 29.2468V21.1218H9.75C9.31902 21.1218 8.9057 20.9506 8.60095 20.6459C8.29621 20.3411 8.125 19.9278 8.125 19.4968C8.125 19.0658 8.29621 18.6525 8.60095 18.3478C8.9057 18.043 9.31902 17.8718 9.75 17.8718H17.875V9.74683C17.875 9.31585 18.0462 8.90252 18.351 8.59778C18.6557 8.29303 19.069 8.12183 19.5 8.12183C19.931 8.12183 20.3443 8.29303 20.649 8.59778C20.9538 8.90252 21.125 9.31585 21.125 9.74683V17.8718H29.25C29.681 17.8718 30.0943 18.043 30.399 18.3478C30.7038 18.6525 30.875 19.0658 30.875 19.4968C30.875 19.9278 30.7038 20.3411 30.399 20.6459C30.0943 20.9506 29.681 21.1218 29.25 21.1218Z" fill="white"/>
</svg>
