<svg width="22" height="22" viewBox="0 0 22 22" fill="none" xmlns="http://www.w3.org/2000/svg">
<g clip-path="url(#clip0_945_771)">
<path fill-rule="evenodd" clip-rule="evenodd" d="M3.29995 6.60012H18.7C19.915 6.60012 20.9 7.5851 20.9 8.80013V9.90014C20.9 11.1152 19.915 12.1001 18.7 12.1001H3.29995C2.08492 12.1001 1.09994 11.1152 1.09994 9.90014V8.80013C1.09994 7.5851 2.08492 6.60012 3.29995 6.60012Z" stroke="#DA3A2A" stroke-width="2.17005" stroke-linecap="round" stroke-linejoin="round"/>
<path d="M19.7999 12.5409V20.0759C19.7999 20.5315 19.3778 20.9009 18.8571 20.9009H3.14274C2.62201 20.9009 2.19988 20.5315 2.19988 20.0759V12.5409" stroke="#DA3A2A" stroke-width="2.17005" stroke-linecap="round" stroke-linejoin="round"/>
<path d="M11.0033 7.59091V20.791" stroke="#DA3A2A" stroke-width="2.17005" stroke-linecap="round" stroke-linejoin="round"/>
<path fill-rule="evenodd" clip-rule="evenodd" d="M15.6673 5.32405C14.5006 6.49078 11.0004 6.49078 11.0004 6.49078C11.0004 6.49078 11.0004 2.99059 12.1671 1.82386C13.1338 0.858244 14.7001 0.858689 15.6663 1.82485C16.6325 2.79101 16.6329 4.35733 15.6673 5.32405Z" stroke="#DA3A2A" stroke-width="2.17005" stroke-linecap="round" stroke-linejoin="round"/>
<path fill-rule="evenodd" clip-rule="evenodd" d="M6.3335 5.32405C7.50023 6.49078 11.0004 6.49078 11.0004 6.49078C11.0004 6.49078 11.0004 2.99059 9.83369 1.82386C8.86698 0.858244 7.30066 0.858689 6.3345 1.82485C5.36834 2.79101 5.36789 4.35733 6.3335 5.32405Z" stroke="#DA3A2A" stroke-width="2.17005" stroke-linecap="round" stroke-linejoin="round"/>
</g>
<defs>
<clipPath id="clip0_945_771">
<rect width="21.7005" height="21.7005" fill="white" transform="scale(1.0138)"/>
</clipPath>
</defs>
</svg>
