<svg width="24" height="24" viewBox="0 0 24 24" fill="none" xmlns="http://www.w3.org/2000/svg">
<path fill-rule="evenodd" clip-rule="evenodd" d="M10.8768 1.5C12.3033 6.0645 20.0988 7.38975 20.0988 13.4895C20.0988 18.9622 17.0718 22.4483 10.8491 22.413C5.32459 22.3815 0.613845 13.8188 6.37684 8.25C6.97909 12.1095 8.16559 11.8778 9.37684 12C7.86559 7.3665 8.17685 5.226 10.8768 1.5Z" fill="#DA3A2A"/>
<path fill-rule="evenodd" clip-rule="evenodd" d="M11.5922 1.27646C11.5082 1.00571 11.2779 0.80546 10.9974 0.75971C10.7177 0.71396 10.4357 0.830211 10.2692 1.05971C8.82992 3.04571 8.04691 4.61846 7.80541 6.30296C7.60441 7.70321 7.77992 9.18971 8.31017 11.0745C8.24942 11.0415 8.18941 11.0017 8.13091 10.9522C7.68466 10.578 7.37416 9.77846 7.11766 8.13446C7.07416 7.85771 6.88067 7.62821 6.61517 7.53896C6.34967 7.44971 6.05717 7.51571 5.85542 7.71071C2.08142 11.3572 2.69491 16.1797 5.11066 19.4625C6.73141 21.666 9.16592 23.1487 11.5944 23.163C14.9829 23.1817 17.2809 22.1977 18.7487 20.5087C20.1992 18.8377 20.8487 16.4362 20.8487 13.4895C20.8487 10.1812 18.7922 8.13296 16.4852 6.32846C15.4382 5.50871 14.3454 4.73846 13.4289 3.89021C12.5979 3.12221 11.9109 2.29421 11.5922 1.27646ZM10.7492 3.00896C11.8119 4.75046 13.7319 6.07871 15.5604 7.50971C17.5082 9.03296 19.3487 10.6972 19.3487 13.4895C19.3487 16.0155 18.8597 18.093 17.6162 19.5247C16.3892 20.9377 14.4369 21.6787 11.6027 21.663C9.61217 21.6517 7.64791 20.3797 6.31816 18.573C4.54066 16.1565 3.90316 12.735 5.95366 9.87671C6.28966 11.0797 6.72242 11.7285 7.16567 12.1005C7.81742 12.648 8.54717 12.6705 9.30167 12.7462C9.55367 12.7717 9.80191 12.6682 9.96091 12.4702C10.1199 12.273 10.1687 12.0082 10.0899 11.7675C9.37966 9.58946 9.07742 8.00096 9.29042 6.51596C9.45617 5.35571 9.93842 4.26746 10.7492 3.00896Z" fill="#DA3A2A"/>
</svg>
