<svg width="25" height="25" viewBox="0 0 25 25" fill="none" xmlns="http://www.w3.org/2000/svg">
<path d="M18.75 13.5396H13.5417V18.748C13.5417 19.0242 13.432 19.2892 13.2366 19.4845C13.0413 19.6799 12.7763 19.7896 12.5 19.7896C12.2238 19.7896 11.9588 19.6799 11.7635 19.4845C11.5681 19.2892 11.4584 19.0242 11.4584 18.748V13.5396H6.25004C5.97377 13.5396 5.70882 13.4299 5.51347 13.2345C5.31812 13.0392 5.20837 12.7742 5.20837 12.498C5.20837 12.2217 5.31812 11.9567 5.51347 11.7614C5.70882 11.566 5.97377 11.4563 6.25004 11.4563H11.4584V6.24797C11.4584 5.9717 11.5681 5.70675 11.7635 5.5114C11.9588 5.31605 12.2238 5.2063 12.5 5.2063C12.7763 5.2063 13.0413 5.31605 13.2366 5.5114C13.432 5.70675 13.5417 5.9717 13.5417 6.24797V11.4563H18.75C19.0263 11.4563 19.2913 11.566 19.4866 11.7614C19.682 11.9567 19.7917 12.2217 19.7917 12.498C19.7917 12.7742 19.682 13.0392 19.4866 13.2345C19.2913 13.4299 19.0263 13.5396 18.75 13.5396Z" fill="#DA3A2A"/>
</svg>
