<svg width="32" height="32" viewBox="0 0 32 32" fill="none" xmlns="http://www.w3.org/2000/svg">
<path fill-rule="evenodd" clip-rule="evenodd" d="M14.5012 2C16.4032 8.086 26.7972 9.853 26.7972 17.986C26.7972 25.283 22.7612 29.931 14.4642 29.884C7.09816 29.842 0.817158 18.425 8.50116 11C9.30416 16.146 10.8862 15.837 12.5012 16C10.4862 9.822 10.9012 6.968 14.5012 2Z" fill="#DE5345" fill-opacity="0.8"/>
<path fill-rule="evenodd" clip-rule="evenodd" d="M15.4556 1.70199C15.3436 1.34099 15.0366 1.07399 14.6626 1.01299C14.2896 0.951987 13.9136 1.10699 13.6916 1.41299C11.7726 4.06099 10.7286 6.15799 10.4066 8.40399C10.1386 10.271 10.3726 12.253 11.0796 14.766C10.9986 14.722 10.9186 14.669 10.8406 14.603C10.2456 14.104 9.83157 13.038 9.48957 10.846C9.43157 10.477 9.17357 10.171 8.81957 10.052C8.46557 9.93299 8.07557 10.021 7.80657 10.281C2.77457 15.143 3.59257 21.573 6.81357 25.95C8.97457 28.888 12.2206 30.865 15.4586 30.884C19.9766 30.909 23.0406 29.597 24.9976 27.345C26.9316 25.117 27.7976 21.915 27.7976 17.986C27.7976 13.575 25.0556 10.844 21.9796 8.43799C20.5836 7.34499 19.1266 6.31798 17.9046 5.18698C16.7966 4.16298 15.8806 3.05899 15.4556 1.70199ZM14.3316 4.01199C15.7486 6.33399 18.3086 8.10499 20.7466 10.013C23.3436 12.044 25.7976 14.263 25.7976 17.986C25.7976 21.354 25.1456 24.124 23.4876 26.033C21.8516 27.917 19.2486 28.905 15.4696 28.884C12.8156 28.869 10.1966 27.173 8.42357 24.764C6.05357 21.542 5.20357 16.98 7.93757 13.169C8.38557 14.773 8.96257 15.638 9.55357 16.134C10.4226 16.864 11.3956 16.894 12.4016 16.995C12.7376 17.029 13.0686 16.891 13.2806 16.627C13.4926 16.364 13.5576 16.011 13.4526 15.69C12.5056 12.786 12.1026 10.668 12.3866 8.68799C12.6076 7.14099 13.2506 5.68999 14.3316 4.01199Z" fill="#DA3A2A"/>
</svg>
