<svg width="16" height="16" viewBox="0 0 16 16" fill="none" xmlns="http://www.w3.org/2000/svg">
<g clip-path="url(#clip0_945_786)">
<path d="M7.42726 0.772599C8.74342 0.772599 10.03 1.16289 11.1244 1.89411C12.2187 2.62533 13.0717 3.66465 13.5754 4.88063C14.079 6.09661 14.2108 7.43464 13.954 8.72551C13.6973 10.0164 13.0635 11.2021 12.1328 12.1328C11.2021 13.0635 10.0164 13.6973 8.72551 13.954C7.43464 14.2108 6.09661 14.079 4.88063 13.5754C3.66465 13.0717 2.62533 12.2187 1.89411 11.1244C1.16289 10.03 0.772599 8.74342 0.772599 7.42726C0.772599 5.66233 1.47371 3.96969 2.7217 2.7217C3.96969 1.47371 5.66233 0.772599 7.42726 0.772599Z" stroke="#777777" stroke-opacity="0.72" stroke-width="1.5" stroke-miterlimit="10" stroke-linecap="round" stroke-linejoin="round"/>
<path d="M14.1307 13.0333C14.3477 13.0333 14.5599 13.0977 14.7403 13.2183C14.9207 13.3389 15.0614 13.5103 15.1444 13.7108C15.2274 13.9114 15.249 14.132 15.2066 14.3448C15.1642 14.5577 15.0596 14.7532 14.9061 14.9066C14.7525 15.0599 14.557 15.1644 14.3441 15.2066C14.1312 15.2488 13.9106 15.2269 13.7101 15.1437C13.5097 15.0605 13.3384 14.9197 13.218 14.7392C13.0976 14.5586 13.0334 14.3464 13.0336 14.1294C13.0339 13.8386 13.1496 13.5598 13.3553 13.3543C13.561 13.1488 13.8399 13.0333 14.1307 13.0333Z" stroke="#777777" stroke-opacity="0.72" stroke-width="1.5" stroke-miterlimit="10" stroke-linecap="round" stroke-linejoin="round"/>
</g>
<defs>
<clipPath id="clip0_945_786">
<rect width="15.531" height="15.532" fill="white" transform="scale(1.03013)"/>
</clipPath>
</defs>
</svg>
