<svg width="31" height="31" viewBox="0 0 31 31" fill="none" xmlns="http://www.w3.org/2000/svg">
<path fill-rule="evenodd" clip-rule="evenodd" d="M18.4053 10.2803L18.4062 5.81147L19.1822 5.8105C19.717 5.8105 20.151 5.37553 20.15 4.84078C20.15 4.307 19.715 3.873 19.1803 3.873L17.4365 3.87494C16.9018 3.87494 16.4687 4.30894 16.4687 4.84369L16.4678 10.2803C16.4678 13.1478 18.8906 15.4922 21.825 15.4922C24.7612 15.4922 27.1356 13.1507 27.1356 10.2803V4.83594C27.1356 4.57922 27.033 4.33219 26.8508 4.15006C26.6697 3.96891 26.4226 3.86719 26.1659 3.86719L24.4125 3.86912C23.8777 3.86912 23.4437 4.30409 23.4447 4.83787C23.4447 5.37262 23.8797 5.80662 24.4144 5.80662L25.1981 5.80566V10.2803C25.1981 12.0938 23.6801 13.5547 21.825 13.5547C19.9659 13.5547 18.4053 12.0967 18.4053 10.2803Z" fill="black"/>
<path d="M7.76074 15.7568C9.90085 15.7568 11.6357 14.0219 11.6357 11.8818C11.6357 9.74173 9.90085 8.00684 7.76074 8.00684C5.62064 8.00684 3.88574 9.74173 3.88574 11.8818C3.88574 14.0219 5.62064 15.7568 7.76074 15.7568Z" fill="black"/>
<path fill-rule="evenodd" clip-rule="evenodd" d="M8.71875 17.6158C8.40681 17.6671 8.08712 17.6943 7.76066 17.6943C7.42644 17.6943 7.099 17.6662 6.78125 17.6119V18.8907C6.78125 23.4351 10.4712 27.125 15.0156 27.125C19.56 27.125 23.25 23.4351 23.25 18.8907V17.2913C22.7898 17.3823 22.3132 17.4298 21.825 17.4298C21.6525 17.4298 21.482 17.424 21.3125 17.4124V18.8907C21.3125 22.3656 18.4905 25.1875 15.0156 25.1875C11.5407 25.1875 8.71875 22.3656 8.71875 18.8907V17.6158Z" fill="black"/>
</svg>
