<svg width="49" height="49" viewBox="0 0 49 49" fill="none" xmlns="http://www.w3.org/2000/svg">
<g clip-path="url(#clip0_1005_4100)">
<path d="M24 49C37.2548 49 48 38.2548 48 25C48 11.7452 37.2548 1 24 1C10.7452 1 0 11.7452 0 25C0 38.2548 10.7452 49 24 49Z" fill="#566CA2"/>
<g clip-path="url(#clip1_1005_4100)">
<path d="M34.9882 21.1953C35.2925 21.371 35.6936 21.2462 35.8832 20.9179L36.4262 19.9774C36.6161 19.6484 36.5231 19.2396 36.2188 19.0639L23.0316 11.4503C22.727 11.2744 22.3267 11.3984 22.1368 11.7274L21.5938 12.6679C21.4042 12.9962 21.4966 13.4055 21.8012 13.5813L22.1432 13.7788L13.3541 29.0019L13.0121 28.8044C12.7075 28.6286 12.3073 28.7526 12.1173 29.0815L11.5745 30.0217C11.3846 30.3507 11.477 30.76 11.7816 30.9358L24.9684 38.5493C25.2731 38.7252 25.674 38.6007 25.864 38.2717L26.4068 37.3315C26.5967 37.0026 26.5036 36.5938 26.1993 36.4181L25.8574 36.2206L34.6462 20.9979L34.9882 21.1953ZM13.9492 29.3459L22.7383 14.1228L23.2982 14.446C23.1536 14.3626 22.9733 14.4035 22.8956 14.538L22.4738 15.2687C22.3961 15.4031 22.45 15.5784 22.5936 15.6626C21.0394 18.3546 19.9602 21.2198 22.5587 23.9221L22.6845 24.0597C22.7945 24.1804 22.9267 24.3242 22.985 24.4137C22.8787 24.4074 22.69 24.366 22.5315 24.3307L22.3572 24.2929C18.7067 23.3917 16.7651 25.7586 15.2109 28.4505C15.0665 28.3685 14.8873 28.4096 14.81 28.5434L14.3882 29.2741C14.3105 29.4086 14.3646 29.5857 14.5094 29.6693L13.9492 29.3459ZM24.8033 26.4183L24.9345 26.5616C26.7758 28.4769 26.7992 30.429 24.9847 33.6873L20.7496 31.2421C21.574 29.7159 23.6817 25.8193 24.1161 25.0668C24.2633 24.8119 24.9413 24.7266 25.2319 24.7242C26.4596 24.712 28.2548 24.3221 28.8976 23.2089L23.1019 19.8627C22.4591 20.976 23.0191 22.7256 23.6224 23.7949C23.7648 24.0478 24.0308 24.6776 23.8836 24.9326C23.4377 25.7048 21.1265 29.4627 20.2192 30.9359L15.9844 28.4909C17.898 25.2912 19.6017 24.3353 22.1911 24.9743L22.371 25.0145C22.875 25.1262 23.3512 25.2314 23.6135 24.7771C23.8762 24.3221 23.5459 23.9612 23.1952 23.5794L23.0657 23.4376C21.2248 21.5225 21.2011 19.5707 23.0157 16.3129L32.0165 21.5095C30.1021 24.7097 28.3988 25.6658 25.8106 25.0262L25.6349 24.9876C25.1286 24.8746 24.65 24.7684 24.3871 25.2237C24.1243 25.6773 24.4542 26.0375 24.8033 26.4183ZM25.2616 35.8771L24.7023 35.5542C24.8465 35.6375 25.0273 35.5959 25.1049 35.4614L25.5268 34.7307C25.6042 34.5966 25.5497 34.421 25.4062 34.3372C26.9606 31.645 28.04 28.7794 25.4415 26.0771L25.3141 25.9378C25.2047 25.8183 25.0739 25.6752 25.0152 25.5863C25.1222 25.5922 25.3132 25.6349 25.473 25.6701L25.6433 25.7073C29.2931 26.609 31.2349 24.2418 32.7892 21.5495C32.9332 21.6317 33.113 21.591 33.1908 21.4562L33.6127 20.7255C33.6903 20.591 33.6359 20.4145 33.4914 20.3311L34.0506 20.654L25.2616 35.8771Z" fill="white"/>
</g>
</g>
<defs>
<clipPath id="clip0_1005_4100">
<rect width="48" height="48" fill="white" transform="translate(0 1)"/>
</clipPath>
<clipPath id="clip1_1005_4100">
<rect width="24" height="24" fill="white" transform="translate(19.6074 8.60767) rotate(30)"/>
</clipPath>
</defs>
</svg>
