<svg width="27" height="27" viewBox="0 0 27 27" fill="none" xmlns="http://www.w3.org/2000/svg">
<g clip-path="url(#clip0_583_224)">
<path d="M25.9805 11.1527L14.9676 11.1522C14.4813 11.1522 14.0871 11.5463 14.0871 12.0326V15.5507C14.0871 16.0369 14.4813 16.4312 14.9675 16.4312H21.1693C20.4902 18.1936 19.2227 19.6696 17.6056 20.6074L20.25 25.1851C24.492 22.7318 27 18.4272 27 13.6085C27 12.9224 26.9494 12.4319 26.8482 11.8796C26.7714 11.46 26.4071 11.1527 25.9805 11.1527Z" fill="#167EE6"/>
<path d="M13.5 21.7172C10.4649 21.7172 7.81536 20.059 6.39234 17.6051L1.81472 20.2436C4.14424 24.281 8.50818 26.9998 13.5 26.9998C15.9488 26.9998 18.2594 26.3405 20.2499 25.1915V25.1852L17.6054 20.6074C16.3958 21.3089 14.9961 21.7172 13.5 21.7172Z" fill="#12B347"/>
<path d="M20.2494 25.1914V25.1851L17.605 20.6072C16.3954 21.3088 14.9957 21.7171 13.4995 21.7171V26.9997C15.9483 26.9997 18.259 26.3404 20.2494 25.1914Z" fill="#0F993E"/>
<path d="M5.28256 13.4999C5.28256 12.0039 5.69082 10.6043 6.39224 9.39473L1.81462 6.75625C0.659278 8.74046 0 11.0448 0 13.4999C0 15.955 0.659278 18.2593 1.81462 20.2436L6.39224 17.6051C5.69082 16.3955 5.28256 14.9959 5.28256 13.4999Z" fill="#FFD500"/>
<path d="M13.5 5.28256C15.4791 5.28256 17.2971 5.98582 18.717 7.15561C19.0673 7.44417 19.5765 7.42334 19.8974 7.10246L22.3901 4.60973C22.7542 4.24565 22.7282 3.64971 22.3393 3.31232C19.9602 1.24837 16.8647 0 13.5 0C8.50818 0 4.14424 2.7188 1.81472 6.75621L6.39234 9.39469C7.81536 6.94083 10.4649 5.28256 13.5 5.28256Z" fill="#FF4B26"/>
<path d="M18.7166 7.15561C19.0669 7.44417 19.5761 7.42334 19.8969 7.10246L22.3896 4.60973C22.7537 4.24565 22.7277 3.64971 22.3389 3.31232C19.9598 1.24832 16.8643 0 13.4995 0V5.28256C15.4786 5.28256 17.2966 5.98582 18.7166 7.15561Z" fill="#D93F21"/>
</g>
<defs>
<clipPath id="clip0_583_224">
<rect width="26.3855" height="26.3855" fill="white" transform="scale(1.02328)"/>
</clipPath>
</defs>
</svg>
