<svg width="240" height="13" viewBox="0 0 240 13" fill="none" xmlns="http://www.w3.org/2000/svg">
<path d="M237.312 2.47197C238.112 2.47197 238.76 2.71598 239.256 3.20399C239.752 3.684 240 4.38001 240 5.29203V9.16811H238.92V5.44803C238.92 4.79202 238.756 4.29201 238.428 3.948C238.1 3.596 237.652 3.41999 237.084 3.41999C236.508 3.41999 236.048 3.6 235.704 3.96C235.368 4.32001 235.2 4.84402 235.2 5.53204V9.16811H234.108V2.59198H235.2V3.528C235.416 3.19199 235.708 2.93198 236.076 2.74798C236.452 2.56398 236.864 2.47197 237.312 2.47197Z" fill="#ABABAB"/>
<path d="M229.3 9.27608C228.684 9.27608 228.124 9.13607 227.62 8.85607C227.124 8.57606 226.732 8.18005 226.444 7.66804C226.164 7.14803 226.024 6.54802 226.024 5.86801C226.024 5.19599 226.168 4.60398 226.456 4.09197C226.752 3.57196 227.152 3.17595 227.656 2.90395C228.16 2.62394 228.724 2.48394 229.348 2.48394C229.972 2.48394 230.536 2.62394 231.04 2.90395C231.544 3.17595 231.94 3.56796 232.228 4.07997C232.524 4.59198 232.672 5.18799 232.672 5.86801C232.672 6.54802 232.52 7.14803 232.216 7.66804C231.92 8.18005 231.516 8.57606 231.004 8.85607C230.492 9.13607 229.924 9.27608 229.3 9.27608ZM229.3 8.31606C229.692 8.31606 230.06 8.22405 230.404 8.04005C230.748 7.85605 231.024 7.58004 231.232 7.21203C231.448 6.84403 231.556 6.39602 231.556 5.86801C231.556 5.34 231.452 4.89199 231.244 4.52398C231.036 4.15597 230.764 3.88397 230.428 3.70796C230.092 3.52396 229.728 3.43196 229.336 3.43196C228.936 3.43196 228.568 3.52396 228.232 3.70796C227.904 3.88397 227.64 4.15597 227.44 4.52398C227.24 4.89199 227.14 5.34 227.14 5.86801C227.14 6.40402 227.236 6.85603 227.428 7.22403C227.628 7.59204 227.892 7.86805 228.22 8.05205C228.548 8.22805 228.908 8.31606 229.3 8.31606Z" fill="#ABABAB"/>
<path d="M224.043 1.52392C223.835 1.52392 223.658 1.45192 223.514 1.30792C223.37 1.16391 223.298 0.987909 223.298 0.779904C223.298 0.571901 223.37 0.395897 223.514 0.251894C223.658 0.107891 223.835 0.0358894 224.043 0.0358894C224.243 0.0358894 224.411 0.107891 224.547 0.251894C224.691 0.395897 224.763 0.571901 224.763 0.779904C224.763 0.987909 224.691 1.16391 224.547 1.30792C224.411 1.45192 224.243 1.52392 224.043 1.52392ZM224.571 2.59194V9.16808H223.478V2.59194H224.571Z" fill="#ABABAB"/>
<path d="M220.44 3.49211V7.36819C220.44 7.68819 220.508 7.9162 220.644 8.0522C220.78 8.1802 221.016 8.2442 221.352 8.2442H222.156V9.16822H221.172C220.564 9.16822 220.108 9.02822 219.804 8.74821C219.5 8.46821 219.348 8.0082 219.348 7.36819V3.49211H218.496V2.59209H219.348V0.936054H220.44V2.59209H222.156V3.49211H220.44Z" fill="#ABABAB"/>
<path d="M210.59 5.85601C210.59 5.18399 210.726 4.59598 210.998 4.09197C211.27 3.57996 211.642 3.18395 212.114 2.90395C212.594 2.62394 213.126 2.48394 213.71 2.48394C214.286 2.48394 214.786 2.60794 215.21 2.85595C215.634 3.10395 215.95 3.41596 216.158 3.79196V2.59194H217.262V9.16807H216.158V7.94405C215.942 8.32806 215.618 8.64806 215.186 8.90407C214.762 9.15207 214.266 9.27608 213.698 9.27608C213.114 9.27608 212.586 9.13207 212.114 8.84407C211.642 8.55606 211.27 8.15205 210.998 7.63204C210.726 7.11203 210.59 6.52002 210.59 5.85601ZM216.158 5.86801C216.158 5.372 216.058 4.93999 215.858 4.57198C215.658 4.20397 215.386 3.92397 215.042 3.73196C214.706 3.53196 214.334 3.43196 213.926 3.43196C213.518 3.43196 213.146 3.52796 212.81 3.71996C212.474 3.91197 212.206 4.19197 212.006 4.55998C211.806 4.92799 211.706 5.36 211.706 5.85601C211.706 6.36002 211.806 6.80003 212.006 7.17603C212.206 7.54404 212.474 7.82805 212.81 8.02805C213.146 8.22005 213.518 8.31606 213.926 8.31606C214.334 8.31606 214.706 8.22005 215.042 8.02805C215.386 7.82805 215.658 7.54404 215.858 7.17603C216.058 6.80003 216.158 6.36402 216.158 5.86801Z" fill="#ABABAB"/>
<path d="M203.301 5.86801C203.301 5.18799 203.437 4.59598 203.709 4.09197C203.981 3.57996 204.357 3.18395 204.837 2.90395C205.325 2.62394 205.881 2.48394 206.505 2.48394C207.313 2.48394 207.977 2.67994 208.497 3.07195C209.025 3.46396 209.373 4.00797 209.541 4.70398H208.365C208.253 4.30397 208.033 3.98797 207.705 3.75596C207.385 3.52396 206.985 3.40796 206.505 3.40796C205.881 3.40796 205.377 3.62396 204.993 4.05597C204.609 4.47998 204.417 5.08399 204.417 5.86801C204.417 6.66002 204.609 7.27204 204.993 7.70404C205.377 8.13605 205.881 8.35206 206.505 8.35206C206.985 8.35206 207.385 8.24005 207.705 8.01605C208.025 7.79205 208.245 7.47204 208.365 7.05603H209.541C209.365 7.72804 209.013 8.26806 208.485 8.67606C207.957 9.07607 207.297 9.27608 206.505 9.27608C205.881 9.27608 205.325 9.13607 204.837 8.85607C204.357 8.57606 203.981 8.18005 203.709 7.66804C203.437 7.15603 203.301 6.55602 203.301 5.86801Z" fill="#ABABAB"/>
<path d="M201.319 1.52392C201.111 1.52392 200.935 1.45192 200.791 1.30792C200.647 1.16391 200.575 0.987909 200.575 0.779904C200.575 0.571901 200.647 0.395897 200.791 0.251894C200.935 0.107891 201.111 0.0358894 201.319 0.0358894C201.519 0.0358894 201.687 0.107891 201.823 0.251894C201.967 0.395897 202.039 0.571901 202.039 0.779904C202.039 0.987909 201.967 1.16391 201.823 1.30792C201.687 1.45192 201.519 1.52392 201.319 1.52392ZM201.847 2.59194V9.16808H200.755V2.59194H201.847Z" fill="#ABABAB"/>
<path d="M198.895 0.288092V9.16827H197.803V0.288092H198.895Z" fill="#ABABAB"/>
<path d="M190.785 3.80396C191.001 3.42796 191.321 3.11595 191.745 2.86795C192.177 2.61194 192.677 2.48394 193.245 2.48394C193.829 2.48394 194.357 2.62394 194.829 2.90395C195.309 3.18395 195.685 3.57996 195.957 4.09197C196.229 4.59598 196.365 5.18399 196.365 5.85601C196.365 6.52002 196.229 7.11203 195.957 7.63204C195.685 8.15205 195.309 8.55606 194.829 8.84407C194.357 9.13207 193.829 9.27608 193.245 9.27608C192.685 9.27608 192.189 9.15207 191.757 8.90407C191.333 8.64806 191.009 8.33206 190.785 7.95605V12.2881H189.693V2.59194H190.785V3.80396ZM195.249 5.85601C195.249 5.36 195.149 4.92799 194.949 4.55998C194.749 4.19197 194.477 3.91197 194.133 3.71996C193.797 3.52796 193.425 3.43196 193.017 3.43196C192.617 3.43196 192.245 3.53196 191.901 3.73196C191.565 3.92397 191.293 4.20797 191.085 4.58398C190.885 4.95199 190.785 5.38 190.785 5.86801C190.785 6.36402 190.885 6.80003 191.085 7.17603C191.293 7.54404 191.565 7.82805 191.901 8.02805C192.245 8.22005 192.617 8.31606 193.017 8.31606C193.425 8.31606 193.797 8.22005 194.133 8.02805C194.477 7.82805 194.749 7.54404 194.949 7.17603C195.149 6.80003 195.249 6.36002 195.249 5.85601Z" fill="#ABABAB"/>
<path d="M182.676 3.80396C182.892 3.42796 183.212 3.11595 183.636 2.86795C184.068 2.61194 184.568 2.48394 185.136 2.48394C185.72 2.48394 186.248 2.62394 186.72 2.90395C187.2 3.18395 187.576 3.57996 187.848 4.09197C188.12 4.59598 188.256 5.18399 188.256 5.85601C188.256 6.52002 188.12 7.11203 187.848 7.63204C187.576 8.15205 187.2 8.55606 186.72 8.84407C186.248 9.13207 185.72 9.27608 185.136 9.27608C184.576 9.27608 184.08 9.15207 183.648 8.90407C183.224 8.64806 182.9 8.33206 182.676 7.95605V12.2881H181.584V2.59194H182.676V3.80396ZM187.14 5.85601C187.14 5.36 187.04 4.92799 186.84 4.55998C186.64 4.19197 186.368 3.91197 186.024 3.71996C185.688 3.52796 185.316 3.43196 184.908 3.43196C184.508 3.43196 184.136 3.53196 183.792 3.73196C183.456 3.92397 183.184 4.20797 182.976 4.58398C182.776 4.95199 182.676 5.38 182.676 5.86801C182.676 6.36402 182.776 6.80003 182.976 7.17603C183.184 7.54404 183.456 7.82805 183.792 8.02805C184.136 8.22005 184.508 8.31606 184.908 8.31606C185.316 8.31606 185.688 8.22005 186.024 8.02805C186.368 7.82805 186.64 7.54404 186.84 7.17603C187.04 6.80003 187.14 6.36002 187.14 5.85601Z" fill="#ABABAB"/>
<path d="M173.066 5.85601C173.066 5.18399 173.202 4.59598 173.474 4.09197C173.746 3.57996 174.118 3.18395 174.59 2.90395C175.07 2.62394 175.602 2.48394 176.186 2.48394C176.762 2.48394 177.262 2.60794 177.686 2.85595C178.11 3.10395 178.426 3.41596 178.634 3.79196V2.59194H179.738V9.16807H178.634V7.94405C178.418 8.32806 178.094 8.64806 177.662 8.90407C177.238 9.15207 176.742 9.27608 176.174 9.27608C175.59 9.27608 175.062 9.13207 174.59 8.84407C174.118 8.55606 173.746 8.15205 173.474 7.63204C173.202 7.11203 173.066 6.52002 173.066 5.85601ZM178.634 5.86801C178.634 5.372 178.534 4.93999 178.334 4.57198C178.134 4.20397 177.862 3.92397 177.518 3.73196C177.182 3.53196 176.81 3.43196 176.402 3.43196C175.994 3.43196 175.622 3.52796 175.286 3.71996C174.95 3.91197 174.682 4.19197 174.482 4.55998C174.282 4.92799 174.182 5.36 174.182 5.85601C174.182 6.36002 174.282 6.80003 174.482 7.17603C174.682 7.54404 174.95 7.82805 175.286 8.02805C175.622 8.22005 175.994 8.31606 176.402 8.31606C176.81 8.31606 177.182 8.22005 177.518 8.02805C177.862 7.82805 178.134 7.54404 178.334 7.17603C178.534 6.80003 178.634 6.36402 178.634 5.86801Z" fill="#ABABAB"/>
<path d="M168.833 5.628C168.833 5.83601 168.821 6.05601 168.797 6.28802H163.541C163.581 6.93603 163.801 7.44404 164.201 7.81205C164.609 8.17205 165.101 8.35206 165.677 8.35206C166.149 8.35206 166.541 8.24405 166.853 8.02805C167.173 7.80405 167.397 7.50804 167.525 7.14003H168.701C168.525 7.77205 168.173 8.28806 167.645 8.68806C167.117 9.08007 166.461 9.27608 165.677 9.27608C165.053 9.27608 164.493 9.13607 163.997 8.85607C163.509 8.57606 163.125 8.18005 162.845 7.66804C162.565 7.14803 162.425 6.54802 162.425 5.86801C162.425 5.18799 162.561 4.59198 162.833 4.07997C163.105 3.56796 163.485 3.17595 163.973 2.90395C164.469 2.62394 165.037 2.48394 165.677 2.48394C166.301 2.48394 166.853 2.61994 167.333 2.89195C167.813 3.16395 168.181 3.53996 168.437 4.01997C168.701 4.49198 168.833 5.02799 168.833 5.628ZM167.705 5.4C167.705 4.98399 167.613 4.62798 167.429 4.33197C167.245 4.02797 166.993 3.79996 166.673 3.64796C166.361 3.48796 166.013 3.40796 165.629 3.40796C165.077 3.40796 164.605 3.58396 164.213 3.93597C163.829 4.28797 163.609 4.77598 163.553 5.4H167.705Z" fill="#ABABAB"/>
<path d="M158.422 2.47214C158.918 2.47214 159.366 2.58014 159.766 2.79614C160.166 3.00415 160.478 3.32015 160.702 3.74416C160.934 4.16817 161.05 4.68418 161.05 5.29219V9.16827H159.97V5.4482C159.97 4.79218 159.806 4.29217 159.478 3.94817C159.15 3.59616 158.702 3.42016 158.134 3.42016C157.558 3.42016 157.098 3.60016 156.753 3.96017C156.417 4.32017 156.249 4.84418 156.249 5.5322V9.16827H155.157V0.288092H156.249V3.52816C156.465 3.19215 156.761 2.93215 157.138 2.74814C157.522 2.56414 157.95 2.47214 158.422 2.47214Z" fill="#ABABAB"/>
<path d="M152.118 3.49211V7.36819C152.118 7.68819 152.186 7.9162 152.322 8.0522C152.458 8.1802 152.694 8.2442 153.03 8.2442H153.834V9.16822H152.85C152.242 9.16822 151.786 9.02822 151.482 8.74821C151.178 8.46821 151.026 8.0082 151.026 7.36819V3.49211H150.174V2.59209H151.026V0.936054H152.118V2.59209H153.834V3.49211H152.118Z" fill="#ABABAB"/>
<path d="M146.313 3.49207H144.933V9.16819H143.841V3.49207H142.989V2.59205H143.841V2.12404C143.841 1.38803 144.029 0.852018 144.405 0.516011C144.789 0.172003 145.401 0 146.241 0V0.912019C145.761 0.912019 145.421 1.00802 145.221 1.20002C145.029 1.38403 144.933 1.69203 144.933 2.12404V2.59205H146.313V3.49207Z" fill="#ABABAB"/>
<path d="M138.83 9.27608C138.214 9.27608 137.654 9.13607 137.15 8.85607C136.654 8.57606 136.262 8.18005 135.974 7.66804C135.694 7.14803 135.554 6.54802 135.554 5.86801C135.554 5.19599 135.698 4.60398 135.986 4.09197C136.282 3.57196 136.682 3.17595 137.186 2.90395C137.69 2.62394 138.254 2.48394 138.878 2.48394C139.502 2.48394 140.066 2.62394 140.57 2.90395C141.074 3.17595 141.47 3.56796 141.758 4.07997C142.054 4.59198 142.202 5.18799 142.202 5.86801C142.202 6.54802 142.05 7.14803 141.746 7.66804C141.45 8.18005 141.046 8.57606 140.534 8.85607C140.022 9.13607 139.454 9.27608 138.83 9.27608ZM138.83 8.31606C139.222 8.31606 139.59 8.22405 139.934 8.04005C140.278 7.85605 140.554 7.58004 140.762 7.21203C140.978 6.84403 141.086 6.39602 141.086 5.86801C141.086 5.34 140.982 4.89199 140.774 4.52398C140.566 4.15597 140.294 3.88397 139.958 3.70796C139.622 3.52396 139.258 3.43196 138.866 3.43196C138.466 3.43196 138.098 3.52396 137.762 3.70796C137.434 3.88397 137.17 4.15597 136.97 4.52398C136.77 4.89199 136.67 5.34 136.67 5.86801C136.67 6.40402 136.766 6.85603 136.958 7.22403C137.158 7.59204 137.422 7.86805 137.75 8.05205C138.078 8.22805 138.438 8.31606 138.83 8.31606Z" fill="#ABABAB"/>
<path d="M131.321 5.628C131.321 5.83601 131.309 6.05601 131.285 6.28802H126.029C126.069 6.93603 126.289 7.44404 126.689 7.81205C127.097 8.17205 127.589 8.35206 128.165 8.35206C128.637 8.35206 129.029 8.24405 129.341 8.02805C129.661 7.80405 129.885 7.50804 130.013 7.14003H131.189C131.013 7.77205 130.661 8.28806 130.133 8.68806C129.605 9.08007 128.949 9.27608 128.165 9.27608C127.541 9.27608 126.981 9.13607 126.485 8.85607C125.997 8.57606 125.613 8.18005 125.333 7.66804C125.053 7.14803 124.913 6.54802 124.913 5.86801C124.913 5.18799 125.049 4.59198 125.321 4.07997C125.593 3.56796 125.973 3.17595 126.461 2.90395C126.957 2.62394 127.525 2.48394 128.165 2.48394C128.789 2.48394 129.341 2.61994 129.821 2.89195C130.301 3.16395 130.669 3.53996 130.925 4.01997C131.189 4.49198 131.321 5.02799 131.321 5.628ZM130.193 5.4C130.193 4.98399 130.101 4.62798 129.917 4.33197C129.733 4.02797 129.481 3.79996 129.161 3.64796C128.849 3.48796 128.501 3.40796 128.117 3.40796C127.565 3.40796 127.093 3.58396 126.701 3.93597C126.317 4.28797 126.097 4.77598 126.041 5.4H130.193Z" fill="#ABABAB"/>
<path d="M119.923 2.48394C120.491 2.48394 120.987 2.60794 121.411 2.85595C121.843 3.10395 122.163 3.41596 122.371 3.79196V2.59194H123.475V9.31208C123.475 9.91209 123.347 10.4441 123.091 10.9081C122.835 11.3801 122.467 11.7481 121.987 12.0121C121.515 12.2761 120.963 12.4081 120.331 12.4081C119.467 12.4081 118.747 12.2041 118.171 11.7961C117.595 11.3881 117.255 10.8321 117.151 10.1281H118.231C118.351 10.5281 118.599 10.8481 118.975 11.0881C119.351 11.3361 119.803 11.4601 120.331 11.4601C120.931 11.4601 121.419 11.2721 121.795 10.8961C122.179 10.5201 122.371 9.99209 122.371 9.31208V7.93205C122.155 8.31606 121.835 8.63606 121.411 8.89207C120.987 9.14807 120.491 9.27608 119.923 9.27608C119.339 9.27608 118.807 9.13207 118.327 8.84407C117.855 8.55606 117.483 8.15205 117.211 7.63204C116.939 7.11203 116.803 6.52002 116.803 5.85601C116.803 5.18399 116.939 4.59598 117.211 4.09197C117.483 3.57996 117.855 3.18395 118.327 2.90395C118.807 2.62394 119.339 2.48394 119.923 2.48394ZM122.371 5.86801C122.371 5.372 122.271 4.93999 122.071 4.57198C121.871 4.20397 121.599 3.92397 121.255 3.73196C120.919 3.53196 120.547 3.43196 120.139 3.43196C119.731 3.43196 119.359 3.52796 119.023 3.71996C118.687 3.91197 118.419 4.19197 118.219 4.55998C118.019 4.92799 117.919 5.36 117.919 5.85601C117.919 6.36002 118.019 6.80003 118.219 7.17603C118.419 7.54404 118.687 7.82805 119.023 8.02805C119.359 8.22005 119.731 8.31606 120.139 8.31606C120.547 8.31606 120.919 8.22005 121.255 8.02805C121.599 7.82805 121.871 7.54404 122.071 7.17603C122.271 6.80003 122.371 6.36402 122.371 5.86801Z" fill="#ABABAB"/>
<path d="M108.694 5.85601C108.694 5.18399 108.83 4.59598 109.102 4.09197C109.374 3.57996 109.746 3.18395 110.218 2.90395C110.698 2.62394 111.23 2.48394 111.814 2.48394C112.39 2.48394 112.89 2.60794 113.314 2.85595C113.738 3.10395 114.054 3.41596 114.262 3.79196V2.59194H115.366V9.16807H114.262V7.94405C114.046 8.32806 113.722 8.64806 113.29 8.90407C112.866 9.15207 112.37 9.27608 111.802 9.27608C111.218 9.27608 110.69 9.13207 110.218 8.84407C109.746 8.55606 109.374 8.15205 109.102 7.63204C108.83 7.11203 108.694 6.52002 108.694 5.85601ZM114.262 5.86801C114.262 5.372 114.162 4.93999 113.962 4.57198C113.762 4.20397 113.49 3.92397 113.146 3.73196C112.81 3.53196 112.438 3.43196 112.03 3.43196C111.622 3.43196 111.25 3.52796 110.914 3.71996C110.578 3.91197 110.31 4.19197 110.11 4.55998C109.91 4.92799 109.81 5.36 109.81 5.85601C109.81 6.36002 109.91 6.80003 110.11 7.17603C110.31 7.54404 110.578 7.82805 110.914 8.02805C111.25 8.22005 111.622 8.31606 112.03 8.31606C112.438 8.31606 112.81 8.22005 113.146 8.02805C113.49 7.82805 113.762 7.54404 113.962 7.17603C114.162 6.80003 114.262 6.36402 114.262 5.86801Z" fill="#ABABAB"/>
<path d="M107.257 2.59209V9.16823H106.165V8.19621C105.957 8.53221 105.665 8.79622 105.289 8.98822C104.921 9.17223 104.513 9.26423 104.065 9.26423C103.553 9.26423 103.093 9.16023 102.685 8.95222C102.277 8.73622 101.953 8.41621 101.713 7.9922C101.481 7.5682 101.365 7.05218 101.365 6.44417V2.59209H102.445V6.30017C102.445 6.94818 102.609 7.44819 102.937 7.8002C103.265 8.14421 103.713 8.31621 104.281 8.31621C104.865 8.31621 105.325 8.13621 105.661 7.7762C105.997 7.41619 106.165 6.89218 106.165 6.20417V2.59209H107.257Z" fill="#ABABAB"/>
<path d="M96.0282 2.48394C96.5962 2.48394 97.0922 2.60794 97.5162 2.85595C97.9482 3.10395 98.2682 3.41596 98.4763 3.79196V2.59194H99.5803V9.31208C99.5803 9.91209 99.4523 10.4441 99.1963 10.9081C98.9403 11.3801 98.5723 11.7481 98.0922 12.0121C97.6202 12.2761 97.0682 12.4081 96.4362 12.4081C95.5722 12.4081 94.8522 12.2041 94.2762 11.7961C93.7002 11.3881 93.3601 10.8321 93.2561 10.1281H94.3362C94.4562 10.5281 94.7042 10.8481 95.0802 11.0881C95.4562 11.3361 95.9082 11.4601 96.4362 11.4601C97.0362 11.4601 97.5242 11.2721 97.9002 10.8961C98.2843 10.5201 98.4763 9.99209 98.4763 9.31208V7.93205C98.2602 8.31606 97.9402 8.63606 97.5162 8.89207C97.0922 9.14807 96.5962 9.27608 96.0282 9.27608C95.4442 9.27608 94.9122 9.13207 94.4322 8.84407C93.9602 8.55606 93.5882 8.15205 93.3162 7.63204C93.0441 7.11203 92.9081 6.52002 92.9081 5.85601C92.9081 5.18399 93.0441 4.59598 93.3162 4.09197C93.5882 3.57996 93.9602 3.18395 94.4322 2.90395C94.9122 2.62394 95.4442 2.48394 96.0282 2.48394ZM98.4763 5.86801C98.4763 5.372 98.3762 4.93999 98.1762 4.57198C97.9762 4.20397 97.7042 3.92397 97.3602 3.73196C97.0242 3.53196 96.6522 3.43196 96.2442 3.43196C95.8362 3.43196 95.4642 3.52796 95.1282 3.71996C94.7922 3.91197 94.5242 4.19197 94.3242 4.55998C94.1242 4.92799 94.0242 5.36 94.0242 5.85601C94.0242 6.36002 94.1242 6.80003 94.3242 7.17603C94.5242 7.54404 94.7922 7.82805 95.1282 8.02805C95.4642 8.22005 95.8362 8.31606 96.2442 8.31606C96.6522 8.31606 97.0242 8.22005 97.3602 8.02805C97.7042 7.82805 97.9762 7.54404 98.1762 7.17603C98.3762 6.80003 98.4763 6.36402 98.4763 5.86801Z" fill="#ABABAB"/>
<path d="M88.8445 2.47197C89.6445 2.47197 90.2925 2.71598 90.7885 3.20399C91.2845 3.684 91.5325 4.38001 91.5325 5.29203V9.16811H90.4525V5.44803C90.4525 4.79202 90.2885 4.29201 89.9605 3.948C89.6325 3.596 89.1845 3.41999 88.6165 3.41999C88.0405 3.41999 87.5804 3.6 87.2364 3.96C86.9004 4.32001 86.7324 4.84402 86.7324 5.53204V9.16811H85.6404V2.59198H86.7324V3.528C86.9484 3.19199 87.2404 2.93198 87.6084 2.74798C87.9845 2.56398 88.3965 2.47197 88.8445 2.47197Z" fill="#ABABAB"/>
<path d="M77.1227 5.85601C77.1227 5.18399 77.2587 4.59598 77.5307 4.09197C77.8027 3.57996 78.1747 3.18395 78.6467 2.90395C79.1267 2.62394 79.6587 2.48394 80.2427 2.48394C80.8187 2.48394 81.3188 2.60794 81.7428 2.85595C82.1668 3.10395 82.4828 3.41596 82.6908 3.79196V2.59194H83.7948V9.16807H82.6908V7.94405C82.4748 8.32806 82.1508 8.64806 81.7188 8.90407C81.2947 9.15207 80.7987 9.27608 80.2307 9.27608C79.6467 9.27608 79.1187 9.13207 78.6467 8.84407C78.1747 8.55606 77.8027 8.15205 77.5307 7.63204C77.2587 7.11203 77.1227 6.52002 77.1227 5.85601ZM82.6908 5.86801C82.6908 5.372 82.5908 4.93999 82.3908 4.57198C82.1908 4.20397 81.9188 3.92397 81.5748 3.73196C81.2387 3.53196 80.8667 3.43196 80.4587 3.43196C80.0507 3.43196 79.6787 3.52796 79.3427 3.71996C79.0067 3.91197 78.7387 4.19197 78.5387 4.55998C78.3387 4.92799 78.2387 5.36 78.2387 5.85601C78.2387 6.36002 78.3387 6.80003 78.5387 7.17603C78.7387 7.54404 79.0067 7.82805 79.3427 8.02805C79.6787 8.22005 80.0507 8.31606 80.4587 8.31606C80.8667 8.31606 81.2387 8.22005 81.5748 8.02805C81.9188 7.82805 82.1908 7.54404 82.3908 7.17603C82.5908 6.80003 82.6908 6.36402 82.6908 5.86801Z" fill="#ABABAB"/>
<path d="M75.6697 0.288092V9.16827H74.5777V0.288092H75.6697Z" fill="#ABABAB"/>
<path d="M69.9368 5.628C69.9368 5.83601 69.9248 6.05601 69.9008 6.28802H64.6447C64.6847 6.93603 64.9047 7.44404 65.3047 7.81205C65.7127 8.17205 66.2047 8.35206 66.7807 8.35206C67.2527 8.35206 67.6447 8.24405 67.9567 8.02805C68.2767 7.80405 68.5007 7.50804 68.6287 7.14003H69.8048C69.6288 7.77205 69.2768 8.28806 68.7487 8.68806C68.2207 9.08007 67.5647 9.27608 66.7807 9.27608C66.1567 9.27608 65.5967 9.13607 65.1007 8.85607C64.6127 8.57606 64.2286 8.18005 63.9486 7.66804C63.6686 7.14803 63.5286 6.54802 63.5286 5.86801C63.5286 5.18799 63.6646 4.59198 63.9366 4.07997C64.2087 3.56796 64.5887 3.17595 65.0767 2.90395C65.5727 2.62394 66.1407 2.48394 66.7807 2.48394C67.4047 2.48394 67.9567 2.61994 68.4367 2.89195C68.9168 3.16395 69.2848 3.53996 69.5408 4.01997C69.8048 4.49198 69.9368 5.02799 69.9368 5.628ZM68.8087 5.4C68.8087 4.98399 68.7167 4.62798 68.5327 4.33197C68.3487 4.02797 68.0967 3.79996 67.7767 3.64796C67.4647 3.48796 67.1167 3.40796 66.7327 3.40796C66.1807 3.40796 65.7087 3.58396 65.3167 3.93597C64.9327 4.28797 64.7127 4.77598 64.6567 5.4H68.8087Z" fill="#ABABAB"/>
<path d="M59.525 2.47214C60.021 2.47214 60.469 2.58014 60.869 2.79614C61.269 3.00415 61.581 3.32015 61.805 3.74416C62.037 4.16817 62.153 4.68418 62.153 5.29219V9.16827H61.073V5.4482C61.073 4.79218 60.909 4.29217 60.581 3.94817C60.253 3.59616 59.805 3.42016 59.237 3.42016C58.661 3.42016 58.201 3.60016 57.8569 3.96017C57.5209 4.32017 57.3529 4.84418 57.3529 5.5322V9.16827H56.2609V0.288092H57.3529V3.52816C57.5689 3.19215 57.8649 2.93215 58.241 2.74814C58.625 2.56414 59.053 2.47214 59.525 2.47214Z" fill="#ABABAB"/>
<path d="M53.2215 3.49211V7.36819C53.2215 7.68819 53.2895 7.9162 53.4255 8.0522C53.5615 8.1802 53.7975 8.2442 54.1335 8.2442H54.9375V9.16822H53.9535C53.3455 9.16822 52.8894 9.02822 52.5854 8.74821C52.2814 8.46821 52.1294 8.0082 52.1294 7.36819V3.49211H51.2774V2.59209H52.1294V0.936054H53.2215V2.59209H54.9375V3.49211H53.2215Z" fill="#ABABAB"/>
<path d="M47.2488 5.628C47.2488 5.83601 47.2368 6.05601 47.2128 6.28802H41.9567C41.9967 6.93603 42.2167 7.44404 42.6167 7.81205C43.0247 8.17205 43.5167 8.35206 44.0927 8.35206C44.5648 8.35206 44.9568 8.24405 45.2688 8.02805C45.5888 7.80405 45.8128 7.50804 45.9408 7.14003H47.1168C46.9408 7.77205 46.5888 8.28806 46.0608 8.68806C45.5328 9.08007 44.8768 9.27608 44.0927 9.27608C43.4687 9.27608 42.9087 9.13607 42.4127 8.85607C41.9247 8.57606 41.5407 8.18005 41.2607 7.66804C40.9807 7.14803 40.8407 6.54802 40.8407 5.86801C40.8407 5.18799 40.9767 4.59198 41.2487 4.07997C41.5207 3.56796 41.9007 3.17595 42.3887 2.90395C42.8847 2.62394 43.4527 2.48394 44.0927 2.48394C44.7168 2.48394 45.2688 2.61994 45.7488 2.89195C46.2288 3.16395 46.5968 3.53996 46.8528 4.01997C47.1168 4.49198 47.2488 5.02799 47.2488 5.628ZM46.1208 5.4C46.1208 4.98399 46.0288 4.62798 45.8448 4.33197C45.6608 4.02797 45.4088 3.79996 45.0888 3.64796C44.7768 3.48796 44.4288 3.40796 44.0447 3.40796C43.4927 3.40796 43.0207 3.58396 42.6287 3.93597C42.2447 4.28797 42.0247 4.77598 41.9687 5.4H46.1208Z" fill="#ABABAB"/>
<path d="M35.8512 2.48394C36.4192 2.48394 36.9152 2.60794 37.3392 2.85595C37.7712 3.10395 38.0912 3.41596 38.2992 3.79196V2.59194H39.4033V9.31208C39.4033 9.91209 39.2753 10.4441 39.0193 10.9081C38.7633 11.3801 38.3953 11.7481 37.9152 12.0121C37.4432 12.2761 36.8912 12.4081 36.2592 12.4081C35.3952 12.4081 34.6752 12.2041 34.0992 11.7961C33.5232 11.3881 33.1831 10.8321 33.0791 10.1281H34.1592C34.2792 10.5281 34.5272 10.8481 34.9032 11.0881C35.2792 11.3361 35.7312 11.4601 36.2592 11.4601C36.8592 11.4601 37.3472 11.2721 37.7232 10.8961C38.1072 10.5201 38.2992 9.99209 38.2992 9.31208V7.93205C38.0832 8.31606 37.7632 8.63606 37.3392 8.89207C36.9152 9.14807 36.4192 9.27608 35.8512 9.27608C35.2672 9.27608 34.7352 9.13207 34.2552 8.84407C33.7832 8.55606 33.4111 8.15205 33.1391 7.63204C32.8671 7.11203 32.7311 6.52002 32.7311 5.85601C32.7311 5.18399 32.8671 4.59598 33.1391 4.09197C33.4111 3.57996 33.7832 3.18395 34.2552 2.90395C34.7352 2.62394 35.2672 2.48394 35.8512 2.48394ZM38.2992 5.86801C38.2992 5.372 38.1992 4.93999 37.9992 4.57198C37.7992 4.20397 37.5272 3.92397 37.1832 3.73196C36.8472 3.53196 36.4752 3.43196 36.0672 3.43196C35.6592 3.43196 35.2872 3.52796 34.9512 3.71996C34.6152 3.91197 34.3472 4.19197 34.1472 4.55998C33.9472 4.92799 33.8472 5.36 33.8472 5.85601C33.8472 6.36002 33.9472 6.80003 34.1472 7.17603C34.3472 7.54404 34.6152 7.82805 34.9512 8.02805C35.2872 8.22005 35.6592 8.31606 36.0672 8.31606C36.4752 8.31606 36.8472 8.22005 37.1832 8.02805C37.5272 7.82805 37.7992 7.54404 37.9992 7.17603C38.1992 6.80003 38.2992 6.36402 38.2992 5.86801Z" fill="#ABABAB"/>
<path d="M28.6675 2.47197C29.4675 2.47197 30.1155 2.71598 30.6115 3.20399C31.1075 3.684 31.3555 4.38001 31.3555 5.29203V9.16811H30.2755V5.44803C30.2755 4.79202 30.1115 4.29201 29.7835 3.948C29.4555 3.596 29.0075 3.41999 28.4395 3.41999C27.8635 3.41999 27.4034 3.6 27.0594 3.96C26.7234 4.32001 26.5554 4.84402 26.5554 5.53204V9.16811H25.4634V2.59198H26.5554V3.528C26.7714 3.19199 27.0634 2.93198 27.4314 2.74798C27.8075 2.56398 28.2195 2.47197 28.6675 2.47197Z" fill="#ABABAB"/>
<path d="M16.9457 5.85601C16.9457 5.18399 17.0817 4.59598 17.3537 4.09197C17.6257 3.57996 17.9977 3.18395 18.4697 2.90395C18.9497 2.62394 19.4817 2.48394 20.0657 2.48394C20.6417 2.48394 21.1417 2.60794 21.5658 2.85595C21.9898 3.10395 22.3058 3.41596 22.5138 3.79196V2.59194H23.6178V9.16807H22.5138V7.94405C22.2978 8.32806 21.9738 8.64806 21.5417 8.90407C21.1177 9.15207 20.6217 9.27608 20.0537 9.27608C19.4697 9.27608 18.9417 9.13207 18.4697 8.84407C17.9977 8.55606 17.6257 8.15205 17.3537 7.63204C17.0817 7.11203 16.9457 6.52002 16.9457 5.85601ZM22.5138 5.86801C22.5138 5.372 22.4138 4.93999 22.2138 4.57198C22.0138 4.20397 21.7418 3.92397 21.3977 3.73196C21.0617 3.53196 20.6897 3.43196 20.2817 3.43196C19.8737 3.43196 19.5017 3.52796 19.1657 3.71996C18.8297 3.91197 18.5617 4.19197 18.3617 4.55998C18.1617 4.92799 18.0617 5.36 18.0617 5.85601C18.0617 6.36002 18.1617 6.80003 18.3617 7.17603C18.5617 7.54404 18.8297 7.82805 19.1657 8.02805C19.5017 8.22005 19.8737 8.31606 20.2817 8.31606C20.6897 8.31606 21.0617 8.22005 21.3977 8.02805C21.7418 7.82805 22.0138 7.54404 22.2138 7.17603C22.4138 6.80003 22.5138 6.36402 22.5138 5.86801Z" fill="#ABABAB"/>
<path d="M12.942 2.47214C13.438 2.47214 13.886 2.58014 14.286 2.79614C14.686 3.00415 14.998 3.32015 15.222 3.74416C15.454 4.16817 15.5701 4.68418 15.5701 5.29219V9.16827H14.49V5.4482C14.49 4.79218 14.326 4.29217 13.998 3.94817C13.67 3.59616 13.222 3.42016 12.654 3.42016C12.078 3.42016 11.618 3.60016 11.274 3.96017C10.938 4.32017 10.77 4.84418 10.77 5.5322V9.16827H9.67793V0.288092H10.77V3.52816C10.986 3.19215 11.282 2.93215 11.658 2.74814C12.042 2.56414 12.47 2.47214 12.942 2.47214Z" fill="#ABABAB"/>
<path d="M0 4.98015C0 4.16413 0.184004 3.43211 0.552011 2.7841C0.920019 2.12809 1.42003 1.61608 2.05204 1.24807C2.69205 0.880063 3.40007 0.696059 4.17609 0.696059C5.0881 0.696059 5.88412 0.916063 6.56413 1.35607C7.24415 1.79608 7.74016 2.42009 8.05216 3.22811H6.74414C6.51213 2.7241 6.17613 2.33609 5.73612 2.06409C5.30411 1.79208 4.7841 1.65608 4.17609 1.65608C3.59207 1.65608 3.06806 1.79208 2.60405 2.06409C2.14004 2.33609 1.77604 2.7241 1.51203 3.22811C1.24803 3.72412 1.11602 4.30813 1.11602 4.98015C1.11602 5.64416 1.24803 6.22817 1.51203 6.73218C1.77604 7.22819 2.14004 7.6122 2.60405 7.88421C3.06806 8.15621 3.59207 8.29221 4.17609 8.29221C4.7841 8.29221 5.30411 8.16021 5.73612 7.89621C6.17613 7.6242 6.51213 7.23619 6.74414 6.73218H8.05216C7.74016 7.5322 7.24415 8.15221 6.56413 8.59222C5.88412 9.02423 5.0881 9.24023 4.17609 9.24023C3.40007 9.24023 2.69205 9.06023 2.05204 8.70022C1.42003 8.33221 0.920019 7.8242 0.552011 7.17619C0.184004 6.52818 0 5.79616 0 4.98015Z" fill="#ABABAB"/>
</svg>
