<svg width="34" height="17" viewBox="0 0 34 17" fill="none" xmlns="http://www.w3.org/2000/svg">
<path d="M6.51703 11.9377C6.95482 12.1372 7.42984 12.25 7.91387 12.2695V13.0279C7.88829 13.0887 7.88829 13.1567 7.91387 13.2175C7.97712 13.2421 8.04783 13.2421 8.11107 13.2175H8.81771C8.88096 13.2421 8.95167 13.2421 9.01491 13.2175C9.0405 13.1567 9.0405 13.0887 9.01491 13.0279V12.2695C9.71161 12.2281 10.3777 11.9797 10.9212 11.5585C11.1582 11.3657 11.3453 11.1227 11.468 10.8485C11.5906 10.5743 11.6453 10.2765 11.6278 9.97854C11.6447 9.60697 11.5476 9.23883 11.3485 8.91995C11.1281 8.62132 10.8269 8.38637 10.4775 8.24056C9.94997 8.02005 9.39889 7.85581 8.83415 7.75076C8.51794 7.69353 8.20524 7.61969 7.89744 7.52957C7.68589 7.45652 7.49469 7.33758 7.3387 7.18197C7.21772 7.04571 7.15334 6.87128 7.15793 6.69218C7.14172 6.54125 7.17398 6.38918 7.25037 6.25642C7.32676 6.12365 7.44361 6.01657 7.5852 5.94958C7.88384 5.78362 8.22701 5.70663 8.57121 5.72839C8.87174 5.7256 9.1673 5.80211 9.42575 5.94958C9.53838 6.01146 9.63614 6.09552 9.71261 6.19627C9.78908 6.29702 9.84253 6.41217 9.86945 6.53418C9.89672 6.59486 9.9431 6.6458 10.0021 6.67981C10.061 6.71382 10.1296 6.7292 10.1981 6.72377H11.2663C11.3273 6.72377 11.3858 6.70047 11.429 6.65899C11.4721 6.61751 11.4964 6.56124 11.4964 6.50258C11.4718 6.20904 11.37 5.92633 11.2006 5.68099C10.9934 5.3786 10.7182 5.12482 10.3953 4.9384C10.034 4.7498 9.63748 4.63168 9.22855 4.5908V3.81661C9.23406 3.78011 9.23064 3.74287 9.21855 3.70786C9.20646 3.67286 9.18604 3.64105 9.15891 3.61497C9.13178 3.58888 9.09869 3.56925 9.06228 3.55763C9.02587 3.546 8.98715 3.54271 8.94918 3.54801H8.17681C8.11356 3.52342 8.04285 3.52342 7.97961 3.54801C7.95402 3.60882 7.95402 3.6768 7.97961 3.73761V4.496C7.33365 4.54321 6.72167 4.793 6.23766 5.20699C6.03143 5.38965 5.86772 5.61218 5.75726 5.85998C5.64681 6.10777 5.59211 6.37522 5.59676 6.64478C5.57983 6.91436 5.6273 7.18409 5.73555 7.4333C5.84379 7.68252 6.00993 7.90461 6.22123 8.08256C6.80216 8.48846 7.47045 8.76383 8.17681 8.88835C8.71363 9.02528 9.11899 9.14115 9.39288 9.23595C9.62525 9.3059 9.83855 9.42463 10.0174 9.58354C10.0832 9.64799 10.1346 9.72466 10.1685 9.80888C10.2024 9.8931 10.2181 9.98309 10.2146 10.0733C10.2166 10.2121 10.1814 10.3489 10.1123 10.4707C10.0432 10.5925 9.94258 10.6951 9.82015 10.7685C9.45907 10.96 9.04839 11.0477 8.63694 11.0213C8.25229 11.0405 7.87004 10.9527 7.5359 10.7685C7.29096 10.6287 7.10485 10.4106 7.01003 10.1523C6.97336 10.0899 6.92287 10.036 6.86213 9.99434C6.79255 9.97365 6.71808 9.97365 6.6485 9.99434H5.56389C5.50581 9.97233 5.44121 9.97233 5.38312 9.99434C5.36289 10.0452 5.36289 10.1015 5.38312 10.1523C5.39924 10.4915 5.51302 10.8197 5.71179 11.1003C5.90191 11.4407 6.17903 11.7288 6.51703 11.9377Z" fill="#4BBC71"/>
<path d="M8.49986 16.7656C10.181 16.7656 11.8243 16.2739 13.2221 15.3528C14.6199 14.4317 15.7094 13.1225 16.3527 11.5907C16.996 10.059 17.1644 8.37349 16.8364 6.74739C16.5084 5.12129 15.6989 3.62762 14.5102 2.45526C13.3214 1.28291 11.8069 0.484528 10.1581 0.161077C8.50929 -0.162375 6.80025 0.00363211 5.2471 0.638105C3.69396 1.27258 2.36646 2.34702 1.43248 3.72556C0.498508 5.1041 0 6.72483 0 8.38279C0.00402694 10.6048 0.900839 12.7347 2.494 14.3059C4.08716 15.8771 6.24679 16.7616 8.49986 16.7656ZM8.49986 1.50229C9.87539 1.50527 11.2192 1.91006 12.3616 2.66559C13.5041 3.42112 14.394 4.49351 14.919 5.7474C15.444 7.00128 15.5806 8.38045 15.3115 9.71082C15.0424 11.0412 14.3797 12.2631 13.407 13.2224C12.4344 14.1816 11.1954 14.8352 9.84644 15.1006C8.49749 15.3659 7.09906 15.2313 5.82766 14.7135C4.55626 14.1957 3.4689 13.3181 2.70282 12.1914C1.93674 11.0647 1.52629 9.73936 1.52327 8.38279C1.52126 7.47867 1.70035 6.58307 2.05024 5.7474C2.40014 4.91172 2.91395 4.15244 3.56219 3.51313C4.21043 2.87382 4.98032 2.36708 5.82766 2.02201C6.67501 1.67693 7.58312 1.50031 8.49986 1.50229Z" fill="#4BBC71"/>
<path d="M19.7408 9.16533H31.2894L29.279 11.0999C29.1443 11.2435 29.0726 11.4304 29.0786 11.6224C29.0845 11.8144 29.1677 11.997 29.311 12.1328C29.4544 12.2686 29.6471 12.3474 29.8497 12.3531C30.0523 12.3587 30.2496 12.2908 30.4011 12.1632L33.7675 8.94381C33.8381 8.87557 33.8937 8.79476 33.9311 8.70605C33.9686 8.61733 33.9871 8.52247 33.9857 8.42693C34.0042 8.33422 34.0042 8.23904 33.9857 8.14634C33.9346 8.04352 33.8601 7.95273 33.7675 7.88051L30.3855 4.60202C30.234 4.47443 30.0367 4.40651 29.8341 4.41216C29.6315 4.41781 29.4388 4.49661 29.2955 4.63243C29.1521 4.76825 29.069 4.95084 29.063 5.14284C29.057 5.33484 29.1287 5.52174 29.2634 5.66532L31.3206 7.61469H19.7408C19.6254 7.59272 19.5064 7.59529 19.3922 7.62222C19.278 7.64915 19.1716 7.69976 19.0805 7.7704C18.9895 7.84105 18.9162 7.92996 18.8658 8.03073C18.8154 8.13149 18.7893 8.2416 18.7893 8.35309C18.7893 8.46458 18.8154 8.57468 18.8658 8.67545C18.9162 8.77622 18.9895 8.86513 19.0805 8.93577C19.1716 9.00642 19.278 9.05703 19.3922 9.08396C19.5064 9.11089 19.6254 9.11346 19.7408 9.09149V9.16533Z" fill="#4BBC71"/>
</svg>
