<svg width="48" height="48" viewBox="0 0 48 48" fill="none" xmlns="http://www.w3.org/2000/svg">
<g clip-path="url(#clip0_1002_3844)">
<path d="M24 48C37.2548 48 48 37.2548 48 24C48 10.7452 37.2548 0 24 0C10.7452 0 0 10.7452 0 24C0 37.2548 10.7452 48 24 48Z" fill="#566CA2"/>
<g clip-path="url(#clip1_1002_3844)">
<path fill-rule="evenodd" clip-rule="evenodd" d="M27.2262 13.8813C27.0077 13.9229 26.8094 14.036 26.6625 14.2029L23.1221 18.2243L15.1087 19.7479C12.9385 20.1605 11.5136 22.2544 11.9263 24.4246L12.1131 25.407C12.5257 27.5773 14.6195 29.0021 16.7898 28.5895L24.8031 27.0659L29.5723 29.5075C29.7702 29.6088 29.9963 29.6413 30.2147 29.5997L32.1796 29.2262C32.7221 29.123 33.0783 28.5996 32.9752 28.057L30.3602 14.3034C30.257 13.7608 29.7336 13.4046 29.191 13.5077L27.2262 13.8813Z" fill="white"/>
<path fill-rule="evenodd" clip-rule="evenodd" d="M16.416 26.6247C16.1098 26.683 15.8584 26.934 15.7362 27.3039C15.6139 27.6737 15.6347 28.1198 15.7925 28.5105L18.0982 34.221C18.6689 35.6342 19.8331 36.4686 20.9407 36.258L21.8154 36.0917C23.4349 35.7838 24.2086 33.4437 23.3741 31.3771L21.4826 26.6925C21.2543 26.1271 20.7887 25.7934 20.3456 25.8776L16.416 26.6247Z" fill="white"/>
<circle cx="31.0003" cy="21.4449" r="2" transform="rotate(-14.8022 31.0003 21.4449)" fill="white"/>
</g>
<rect x="32.3965" y="18.5215" width="5.08307" height="1.38748" rx="0.693741" transform="rotate(-53.1406 32.3965 18.5215)" fill="white"/>
<rect width="5.08307" height="1.38748" rx="0.693741" transform="matrix(0.888616 0.458653 0.458653 -0.888616 34 23.2329)" fill="white"/>
<rect x="34" y="19.6641" width="5.68382" height="1.28466" rx="0.642332" transform="rotate(-6.7102 34 19.6641)" fill="white"/>
</g>
<defs>
<clipPath id="clip0_1002_3844">
<rect width="48" height="48" fill="white"/>
</clipPath>
<clipPath id="clip1_1002_3844">
<rect width="24" height="24" fill="white" transform="translate(8 14.4829) rotate(-10.7652)"/>
</clipPath>
</defs>
</svg>
