<svg width="20" height="24" viewBox="0 0 20 24" fill="none" xmlns="http://www.w3.org/2000/svg">
<path d="M15.9699 15.26L13.8605 14.97C13.6125 14.935 13.3611 14.968 13.1252 15.0668C12.8893 15.1655 12.675 15.3273 12.4985 15.54L10.9705 17.38C8.61291 15.9363 6.69666 13.6289 5.49764 10.79L7.03402 8.94004C7.39112 8.51004 7.56552 7.91004 7.50739 7.30004L7.26655 4.78004C7.21947 4.29222 7.02504 3.84228 6.7203 3.51589C6.41555 3.1895 6.02176 3.00946 5.61391 3.01004H4.17718C3.23875 3.01004 2.4581 3.95004 2.51623 5.08004C2.95639 13.62 8.62853 20.44 15.7125 20.97C16.6509 21.04 17.4316 20.1 17.4316 18.97V17.24C17.4399 16.23 16.8087 15.38 15.9699 15.26Z" fill="white"/>
</svg>
