<svg width="24" height="24" viewBox="0 0 24 24" fill="none" xmlns="http://www.w3.org/2000/svg">
<path d="M21.0564 11.9999H19.0564C18.7912 11.9999 18.5369 12.1052 18.3493 12.2928C18.1618 12.4803 18.0564 12.7347 18.0564 12.9999C18.0564 13.2651 18.1618 13.5195 18.3493 13.707C18.5369 13.8945 18.7912 13.9999 19.0564 13.9999V15.9999H17.8704C17.9892 15.6797 18.0518 15.3414 18.0554 14.9999C18.0554 14.3395 17.8375 13.6976 17.4354 13.1737C17.0334 12.6498 16.4698 12.2732 15.8319 12.1022C15.194 11.9313 14.5176 11.9756 13.9074 12.2283C13.2973 12.481 12.7876 12.928 12.4574 13.4999C12.3907 13.6137 12.3472 13.7395 12.3293 13.8702C12.3115 14.0008 12.3196 14.1337 12.3533 14.2612C12.387 14.3887 12.4456 14.5083 12.5257 14.6131C12.6058 14.7178 12.7059 14.8057 12.8201 14.8716C12.9343 14.9376 13.0604 14.9803 13.1912 14.9973C13.322 15.0143 13.4548 15.0052 13.5821 14.9707C13.7094 14.9361 13.8286 14.8768 13.9328 14.7959C14.037 14.7151 14.1242 14.6145 14.1894 14.4999C14.2772 14.3479 14.4034 14.2216 14.5554 14.1339C14.7075 14.0461 14.8799 13.9999 15.0554 13.9999C15.3206 13.9999 15.575 14.1052 15.7625 14.2928C15.9501 14.4803 16.0554 14.7347 16.0554 14.9999C16.0554 15.2651 15.9501 15.5195 15.7625 15.707C15.575 15.8945 15.3206 15.9999 15.0554 15.9999C14.7902 15.9999 14.5359 16.1052 14.3483 16.2928C14.1608 16.4803 14.0554 16.7347 14.0554 16.9999C14.0554 17.2651 14.1608 17.5195 14.3483 17.707C14.5359 17.8945 14.7902 17.9999 15.0554 17.9999C15.3206 17.9999 15.575 18.1052 15.7625 18.2928C15.9501 18.4803 16.0554 18.7347 16.0554 18.9999C16.0554 19.2651 15.9501 19.5195 15.7625 19.707C15.575 19.8945 15.3206 19.9999 15.0554 19.9999C14.8799 19.9999 14.7075 19.9537 14.5554 19.8659C14.4034 19.7781 14.2772 19.6519 14.1894 19.4999C14.1242 19.3852 14.037 19.2846 13.9328 19.2038C13.8286 19.123 13.7094 19.0636 13.5821 19.0291C13.4548 18.9945 13.322 18.9855 13.1912 19.0025C13.0604 19.0195 12.9343 19.0622 12.8201 19.1281C12.7059 19.1941 12.6058 19.2819 12.5257 19.3867C12.4456 19.4915 12.387 19.611 12.3533 19.7385C12.3196 19.866 12.3115 19.9989 12.3293 20.1296C12.3472 20.2603 12.3907 20.3861 12.4574 20.4999C12.7876 21.0718 13.2973 21.5187 13.9074 21.7714C14.5176 22.0241 15.194 22.0684 15.8319 21.8975C16.4698 21.7266 17.0334 21.35 17.4354 20.8261C17.8375 20.3022 18.0554 19.6603 18.0554 18.9999C18.0518 18.6584 17.9892 18.3201 17.8704 17.9999H19.0554V20.9999C19.0554 21.2651 19.1608 21.5195 19.3483 21.707C19.5359 21.8945 19.7902 21.9999 20.0554 21.9999C20.3206 21.9999 20.575 21.8945 20.7625 21.707C20.9501 21.5195 21.0554 21.2651 21.0554 20.9999V13.9999C21.3206 13.9999 21.575 13.8945 21.7625 13.707C21.9501 13.5195 22.0554 13.2651 22.0554 12.9999C22.0554 12.7347 21.9501 12.4803 21.7625 12.2928C21.575 12.1052 21.3216 11.9999 21.0564 11.9999ZM9.08642 11.2429C9.11757 11.3711 9.17377 11.4918 9.25179 11.5982C9.32981 11.7046 9.42811 11.7945 9.54102 11.8627C9.65393 11.9309 9.77923 11.9761 9.90969 11.9957C10.0401 12.0153 10.1732 12.0089 10.3012 11.9768C10.4291 11.9448 10.5495 11.8877 10.6553 11.8089C10.7611 11.7302 10.8503 11.6312 10.9177 11.5178C10.9851 11.4044 11.0295 11.2788 11.0481 11.1482C11.0668 11.0176 11.0594 10.8846 11.0264 10.7569L9.26942 3.72688C9.14652 3.23307 8.86194 2.79456 8.461 2.48118C8.06006 2.1678 7.5658 1.99756 7.05692 1.99756C6.54804 1.99756 6.05379 2.1678 5.65285 2.48118C5.25191 2.79456 4.96733 3.23307 4.84442 3.72688L3.08642 10.7569C3.05345 10.8846 3.04608 11.0176 3.06474 11.1482C3.08339 11.2788 3.1277 11.4044 3.19511 11.5178C3.26253 11.6312 3.35171 11.7302 3.45753 11.8089C3.56335 11.8877 3.68371 11.9448 3.81168 11.9768C3.93965 12.0089 4.0727 12.0153 4.20316 11.9957C4.33362 11.9761 4.45891 11.9309 4.57183 11.8627C4.68474 11.7945 4.78304 11.7046 4.86106 11.5982C4.93908 11.4918 4.99528 11.3711 5.02642 11.2429L5.58542 8.99988H8.52542L9.08642 11.2429ZM6.08642 6.99988L6.78342 4.21288C6.80444 4.15749 6.84182 4.10981 6.89058 4.07616C6.93934 4.04251 6.99718 4.02449 7.05642 4.02449C7.11567 4.02449 7.17351 4.04251 7.22227 4.07616C7.27103 4.10981 7.3084 4.15749 7.32942 4.21288L8.02642 6.99988H6.08642ZM14.0564 6.99988H15.0564C15.3216 7.00015 15.5758 7.10559 15.7632 7.29307C15.9507 7.48055 16.0562 7.73475 16.0564 7.99988V8.99988C16.0564 9.2651 16.1618 9.51945 16.3493 9.70699C16.5369 9.89453 16.7912 9.99988 17.0564 9.99988C17.3216 9.99988 17.576 9.89453 17.7635 9.70699C17.9511 9.51945 18.0564 9.2651 18.0564 8.99988V7.99988C18.0556 7.20448 17.7393 6.44188 17.1769 5.87944C16.6144 5.317 15.8518 5.00068 15.0564 4.99988H14.0564C13.7912 4.99988 13.5369 5.10524 13.3493 5.29278C13.1618 5.48031 13.0564 5.73467 13.0564 5.99988C13.0564 6.2651 13.1618 6.51945 13.3493 6.70699C13.5369 6.89453 13.7912 6.99988 14.0564 6.99988ZM10.0564 15.9999H9.05642C8.79129 15.9996 8.53709 15.8942 8.34961 15.7067C8.16213 15.5192 8.05669 15.265 8.05642 14.9999V13.9999C8.05642 13.7347 7.95107 13.4803 7.76353 13.2928C7.57599 13.1052 7.32164 12.9999 7.05642 12.9999C6.79121 12.9999 6.53685 13.1052 6.34932 13.2928C6.16178 13.4803 6.05642 13.7347 6.05642 13.9999V14.9999C6.05722 15.7953 6.37354 16.5579 6.93598 17.1203C7.49842 17.6828 8.26102 17.9991 9.05642 17.9999H10.0564C10.3216 17.9999 10.576 17.8945 10.7635 17.707C10.9511 17.5195 11.0564 17.2651 11.0564 16.9999C11.0564 16.7347 10.9511 16.4803 10.7635 16.2928C10.576 16.1052 10.3216 15.9999 10.0564 15.9999Z" fill="#566CA2"/>
</svg>
