<svg width="26" height="26" viewBox="0 0 26 26" fill="none" xmlns="http://www.w3.org/2000/svg">
<path d="M0 11.0744L0 17.589H25.6855V11.0744H0Z" fill="#EBF7F7"/>
<path d="M0 17.5891L0 21.7347C0 22.7119 1.46774 23.5115 3.54704 23.5115H22.1384C24.2177 23.5115 25.6855 22.7119 25.6855 21.7347V17.5891L0 17.5891Z" fill="#192619"/>
<path d="M0 6.92891L0 11.0746L25.6855 11.0746V6.92891C25.6855 5.95171 24.2177 5.15219 22.1384 5.15219L3.54704 5.15219C1.46774 5.15219 0 5.95171 0 6.92891Z" fill="#EF2828"/>
<path d="M0 6.92891L0 11.0746L18.4079 11.0746L25.6855 6.98814C25.6855 6.01094 24.2177 5.15219 22.1384 5.15219L3.54704 5.15219C1.46774 5.15219 0 5.95171 0 6.92891Z" fill="#E02323"/>
<path d="M18.4079 11.0744H0L0 17.589H7.27754L18.4079 11.0744Z" fill="#E2F2F1"/>
<path d="M0 17.5891L0 21.7348L7.27754 17.5891L0 17.5891Z" fill="#151D15"/>
<path d="M25.6856 11.0746V6.92891C25.6856 5.95171 24.4625 5.15219 22.0162 5.15219V11.0746H25.6856Z" fill="#DA0000"/>
<path d="M22.0162 11.0744V17.589H25.6856V11.0744H22.0162Z" fill="#D6EAE8"/>
<path d="M22.0157 23.5115C24.462 23.5115 25.6851 22.7119 25.6851 21.7347V17.5891H22.0157V23.5115Z" fill="black"/>
<path d="M0 6.92891L0 11.0746H6.48252L10.2742 5.15219L3.54704 5.15219C1.46774 5.15219 0 5.95171 0 6.92891Z" fill="#DA0000"/>
<path d="M6.48252 11.0744H0L0 17.589H2.50739L6.48252 11.0744Z" fill="#D6EAE8"/>
<path d="M0 17.5891L0 21.7348L2.50739 17.5891H0Z" fill="black"/>
<rect x="11.3016" y="13.3617" width="4.10967" height="3.07866" fill="#FCD240"/>
</svg>
