<svg width="31" height="28" viewBox="0 0 31 28" fill="none" xmlns="http://www.w3.org/2000/svg">
<path d="M13.6268 26.2978C21.1527 26.2978 27.2536 20.4108 27.2536 13.1489C27.2536 5.88695 21.1527 0 13.6268 0C6.10093 0 0 5.88695 0 13.1489C0 20.4108 6.10093 26.2978 13.6268 26.2978Z" fill="#566CA2"/>
<path d="M10.1448 10.2794C11.7496 10.3633 13.1451 10.8498 14.278 11.9489C15.4227 13.0593 15.9453 14.42 15.8024 16.1067C16.4297 16.0291 17.001 15.9436 17.5756 15.8952C17.774 15.8785 18.0095 15.9022 18.1776 15.9971C18.7355 16.3119 19.2704 16.6673 19.9043 17.0636C19.788 16.5375 19.7127 16.0768 19.5794 15.6336C19.4814 15.308 19.5268 15.1267 19.8268 14.9146C21.7533 13.5545 22.5653 11.519 21.9576 9.42343C21.3954 7.4848 20.0147 6.30909 18.1386 5.6962C15.5779 4.85979 12.7002 5.71298 11.1431 7.746C10.5808 8.48037 10.2359 9.30461 10.1448 10.2794ZM17.5306 9.62646C17.5158 9.24318 17.8479 8.89788 18.2424 8.88633C18.6463 8.87446 18.9785 9.18312 18.9903 9.58111C19.0023 9.98447 18.6938 10.3077 18.2869 10.318C17.8836 10.3283 17.5455 10.0192 17.5306 9.62646ZM13.6771 8.88608C14.0731 8.89338 14.4076 9.23061 14.4006 9.6154C14.3934 10.0143 14.0652 10.3263 13.658 10.3214C13.2498 10.3165 12.9402 10.0011 12.9441 9.59388C12.9475 9.19407 13.2742 8.87871 13.6771 8.88608Z" fill="white"/>
<path d="M6.53922 20.2841C7.04736 20.0578 7.51352 19.7184 8.00979 19.6665C8.50417 19.6149 9.02386 19.9001 9.54109 19.953C11.1166 20.1142 12.528 19.6751 13.6919 18.5988C15.9054 16.5514 15.5891 13.4122 13.0282 11.7345C10.7521 10.2433 7.41414 10.7404 5.80945 12.8094C4.40904 14.6148 4.57364 17.0115 6.28322 18.5282C6.77792 18.9671 6.95596 19.3284 6.63853 19.907C6.57994 20.0139 6.57324 20.1492 6.53922 20.2841ZM12.3236 14.6837C12.0001 14.684 11.7337 14.4308 11.7214 14.1113C11.7085 13.773 11.9806 13.4893 12.3193 13.4879C12.6547 13.4863 12.9357 13.774 12.924 14.1073C12.913 14.4257 12.6448 14.6833 12.3236 14.6837ZM8.5947 13.4892C8.90859 13.487 9.17529 13.744 9.18811 14.0611C9.20169 14.4003 8.93811 14.6788 8.60246 14.6796C8.27784 14.6807 8.02134 14.4352 8.00955 14.1122C7.99695 13.7722 8.26067 13.4915 8.5947 13.4892Z" fill="white"/>
<path d="M23.761 27.3091C27.3126 27.3091 30.1918 24.5309 30.1918 21.1038C30.1918 17.6767 27.3126 14.8985 23.761 14.8985C20.2093 14.8985 17.3301 17.6767 17.3301 21.1038C17.3301 24.5309 20.2093 27.3091 23.761 27.3091Z" fill="#4CAF50"/>
<path d="M23.9512 27.4378C27.5029 27.4378 30.382 24.6596 30.382 21.2325C30.382 17.8054 27.5029 15.0272 23.9512 15.0272C20.3995 15.0272 17.5204 17.8054 17.5204 21.2325C17.5204 24.6596 20.3995 27.4378 23.9512 27.4378Z" stroke="white" stroke-width="1.0939"/>
</svg>
