<svg width="17" height="17" viewBox="0 0 17 17" fill="none" xmlns="http://www.w3.org/2000/svg">
<g clip-path="url(#clip0_769_465)">
<path d="M7.89058 0.820804C9.289 0.820804 10.656 1.23548 11.8188 2.0124C12.9815 2.78933 13.8878 3.89359 14.4229 5.18556C14.9581 6.47753 15.0981 7.89918 14.8253 9.27073C14.5524 10.6423 13.879 11.9021 12.8902 12.891C11.9014 13.8798 10.6415 14.5532 9.26998 14.826C7.89843 15.0988 6.47678 14.9588 5.18481 14.4237C3.89284 13.8885 2.78857 12.9823 2.01165 11.8195C1.23473 10.6568 0.820048 9.28976 0.820048 7.89134C0.820048 6.01612 1.56498 4.2177 2.89096 2.89172C4.21694 1.56573 6.01536 0.820804 7.89058 0.820804Z" stroke="white" stroke-width="1.59048" stroke-miterlimit="10" stroke-linecap="round" stroke-linejoin="round"/>
<path d="M15.0132 13.8476C15.2438 13.8476 15.4692 13.916 15.6609 14.0441C15.8527 14.1722 16.0021 14.3543 16.0903 14.5674C16.1785 14.7805 16.2015 15.0149 16.1564 15.241C16.1113 15.4672 16.0002 15.6749 15.8371 15.8379C15.674 16.0008 15.4662 16.1118 15.24 16.1566C15.0138 16.2015 14.7794 16.1782 14.5664 16.0898C14.3534 16.0014 14.1714 15.8519 14.0435 15.66C13.9155 15.4682 13.8474 15.2427 13.8476 15.0121C13.8479 14.7032 13.9708 14.407 14.1894 14.1886C14.4079 13.9702 14.7043 13.8476 15.0132 13.8476Z" stroke="white" stroke-width="1.59048" stroke-miterlimit="10" stroke-linecap="round" stroke-linejoin="round"/>
</g>
<defs>
<clipPath id="clip0_769_465">
<rect width="16.4679" height="16.4689" fill="white" transform="scale(1.03224)"/>
</clipPath>
</defs>
</svg>
