<svg width="15" height="15" viewBox="0 0 15 15" fill="none" xmlns="http://www.w3.org/2000/svg">
<path d="M12.1875 3.28125H10.5633L9.76465 2.08359C9.72186 2.01946 9.66392 1.96688 9.59595 1.93049C9.52798 1.89411 9.45209 1.87505 9.375 1.875H5.625C5.54791 1.87505 5.47202 1.89411 5.40405 1.93049C5.33608 1.96688 5.27814 2.01946 5.23535 2.08359L4.43613 3.28125H2.8125C2.43954 3.28125 2.08185 3.42941 1.81813 3.69313C1.55441 3.95685 1.40625 4.31454 1.40625 4.6875V11.25C1.40625 11.623 1.55441 11.9806 1.81813 12.2444C2.08185 12.5081 2.43954 12.6562 2.8125 12.6562H12.1875C12.5605 12.6562 12.9181 12.5081 13.1819 12.2444C13.4456 11.9806 13.5938 11.623 13.5938 11.25V4.6875C13.5938 4.31454 13.4456 3.95685 13.1819 3.69313C12.9181 3.42941 12.5605 3.28125 12.1875 3.28125ZM9.60938 7.73438C9.60938 8.15157 9.48566 8.5594 9.25388 8.90628C9.0221 9.25317 8.69266 9.52353 8.30722 9.68318C7.92178 9.84284 7.49766 9.88461 7.08848 9.80322C6.6793 9.72183 6.30345 9.52093 6.00845 9.22593C5.71345 8.93093 5.51255 8.55507 5.43116 8.14589C5.34977 7.73672 5.39154 7.31259 5.55119 6.92715C5.71084 6.54171 5.98121 6.21228 6.32809 5.98049C6.67498 5.74871 7.08281 5.625 7.5 5.625C8.05944 5.625 8.59597 5.84724 8.99155 6.24282C9.38714 6.63841 9.60938 7.17493 9.60938 7.73438Z" fill="#707070"/>
</svg>
