<svg width="35" height="35" viewBox="0 0 35 35" fill="none" xmlns="http://www.w3.org/2000/svg">
<path d="M26.8624 11.9876C25.9714 9.94008 24.4336 8.24122 22.4846 7.15134C20.5357 6.06145 18.2831 5.64066 16.0722 5.95344C13.8612 6.26622 11.8138 7.29531 10.2436 8.88303C8.67349 10.4708 7.66725 12.5295 7.3791 14.7438C5.9887 15.0768 4.769 15.9088 3.95163 17.0818C3.13426 18.2548 2.77614 19.6872 2.94527 21.1068C3.11441 22.5265 3.79903 23.8346 4.86911 24.7828C5.9392 25.7309 7.32022 26.2531 8.74993 26.2501C9.13671 26.2501 9.50764 26.0964 9.78113 25.8229C10.0546 25.5494 10.2083 25.1785 10.2083 24.7917C10.2083 24.405 10.0546 24.034 9.78113 23.7605C9.50764 23.487 9.13671 23.3334 8.74993 23.3334C7.97638 23.3334 7.23452 23.0261 6.68754 22.4791C6.14056 21.9322 5.83326 21.1903 5.83326 20.4167C5.83326 19.6432 6.14056 18.9013 6.68754 18.3543C7.23452 17.8074 7.97638 17.5001 8.74993 17.5001C9.13671 17.5001 9.50764 17.3464 9.78113 17.0729C10.0546 16.7994 10.2083 16.4285 10.2083 16.0417C10.212 14.3169 10.827 12.6493 11.9441 11.3351C13.0611 10.0209 14.6079 9.14521 16.3096 8.86364C18.0112 8.58207 19.7576 8.91283 21.2385 9.79717C22.7193 10.6815 23.8387 12.0622 24.3978 13.6938C24.4812 13.9444 24.6311 14.1677 24.8314 14.3398C25.0317 14.5119 25.275 14.6263 25.5353 14.6709C26.5067 14.8545 27.3872 15.3616 28.0335 16.1096C28.6798 16.8576 29.0537 17.8025 29.0943 18.7902C29.1349 19.7779 28.8397 20.7502 28.257 21.5487C27.6743 22.3473 26.8384 22.9249 25.8853 23.1876C25.5102 23.2843 25.1888 23.526 24.9919 23.8597C24.795 24.1934 24.7387 24.5916 24.8353 24.9667C24.932 25.3419 25.1738 25.6633 25.5075 25.8602C25.8411 26.0571 26.2393 26.1134 26.6145 26.0167C28.1492 25.6112 29.5097 24.7159 30.4893 23.4668C31.4689 22.2177 32.0141 20.683 32.0422 19.0959C32.0702 17.5087 31.5796 15.9558 30.6447 14.6728C29.7099 13.3899 28.3819 12.4471 26.8624 11.9876ZM18.5353 15.0063C18.3967 14.8736 18.2331 14.7695 18.0541 14.7001C17.699 14.5542 17.3008 14.5542 16.9458 14.7001C16.7668 14.7695 16.6032 14.8736 16.4645 15.0063L12.0895 19.3813C11.8149 19.6559 11.6606 20.0284 11.6606 20.4167C11.6606 20.8051 11.8149 21.1775 12.0895 21.4522C12.3641 21.7268 12.7366 21.881 13.1249 21.881C13.5133 21.881 13.8857 21.7268 14.1603 21.4522L16.0416 19.5563V27.7084C16.0416 28.0952 16.1952 28.4661 16.4687 28.7396C16.7422 29.0131 17.1132 29.1667 17.4999 29.1667C17.8867 29.1667 18.2576 29.0131 18.5311 28.7396C18.8046 28.4661 18.9583 28.0952 18.9583 27.7084V19.5563L20.8395 21.4522C20.9751 21.5888 21.1364 21.6973 21.3141 21.7714C21.4918 21.8454 21.6824 21.8835 21.8749 21.8835C22.0674 21.8835 22.2581 21.8454 22.4358 21.7714C22.6135 21.6973 22.7748 21.5888 22.9103 21.4522C23.047 21.3166 23.1555 21.1553 23.2296 20.9776C23.3036 20.7999 23.3417 20.6093 23.3417 20.4167C23.3417 20.2242 23.3036 20.0336 23.2296 19.8559C23.1555 19.6782 23.047 19.5169 22.9103 19.3813L18.5353 15.0063Z" fill="#90A4AE"/>
</svg>
