<svg width="48" height="48" viewBox="0 0 48 48" fill="none" xmlns="http://www.w3.org/2000/svg">
<g clip-path="url(#clip0_1005_4085)">
<path d="M24 48C37.2548 48 48 37.2548 48 24C48 10.7452 37.2548 0 24 0C10.7452 0 0 10.7452 0 24C0 37.2548 10.7452 48 24 48Z" fill="#566CA2"/>
<path d="M25.9996 12.064C22.7695 12.064 20.1416 14.6918 20.1416 17.9219C20.1416 21.152 22.7695 23.7799 25.9996 23.7799C29.2297 23.7799 31.8575 21.152 31.8575 17.9219C31.8575 14.6918 29.2297 12.064 25.9996 12.064ZM25.9996 22.7008C23.3645 22.7008 21.2207 20.557 21.2207 17.9219C21.2207 15.2869 23.3645 13.1431 25.9996 13.1431C28.6347 13.1431 30.7784 15.2869 30.7784 17.9219C30.7784 20.557 28.6346 22.7008 25.9996 22.7008Z" fill="white"/>
<path d="M28.7861 16.3693H27.5528V15.136C27.5528 14.838 27.3112 14.5964 27.0132 14.5964H24.9872C24.6892 14.5964 24.4476 14.838 24.4476 15.136V16.3693H23.2144C22.9164 16.3693 22.6748 16.6108 22.6748 16.9088V18.9349C22.6748 19.2329 22.9164 19.4744 23.2144 19.4744H24.4476V20.7077C24.4476 21.0057 24.6892 21.2473 24.9872 21.2473H27.0132C27.3112 21.2473 27.5528 21.0057 27.5528 20.7077V19.4744H28.7861C29.0841 19.4744 29.3256 19.2329 29.3256 18.9349V16.9088C29.3256 16.6109 29.084 16.3693 28.7861 16.3693ZM28.2465 18.3953H27.0132C26.7153 18.3953 26.4737 18.6369 26.4737 18.9349V20.1682H25.5267V18.9349C25.5267 18.6369 25.2852 18.3953 24.9872 18.3953H23.7539V17.4484H24.9872C25.2852 17.4484 25.5267 17.2068 25.5267 16.9088V15.6755H26.4737V16.9088C26.4737 17.2068 26.7153 17.4484 27.0132 17.4484H28.2465V18.3953Z" fill="white"/>
<path d="M38.7479 26.6442C38.1962 25.4252 36.7058 24.9437 35.5398 25.6283L31.8438 27.8305C31.7341 26.939 30.9728 26.2463 30.0521 26.2463H26.9118C24.6248 24.8755 21.7302 24.6702 19.1951 25.8766V25.2664C19.1951 24.9684 18.9535 24.7268 18.6556 24.7268H13.5903C13.2923 24.7268 13.0508 24.9684 13.0508 25.2664V27.7327C13.0508 28.0306 13.2923 28.2722 13.5903 28.2722C13.8883 28.2722 14.1299 28.0306 14.1299 27.7327V29.8909V35.3964C14.1299 35.7279 17 34.9999 18.1161 34.8569H14.1299V29.8909C14.1299 29.5929 13.8883 29.3513 13.5903 29.3513C13.2923 29.3513 13.0508 29.5929 13.0508 29.8909V35.3964C13.0508 35.6944 13.2923 35.936 13.5903 35.936H18.6556C18.9536 35.936 19.1952 35.6944 19.1952 35.3964V34.4973L24.8438 35.5545C26.1685 35.8022 27.5425 35.5648 28.7113 34.8787L31.6863 33.1327C31.9433 32.9819 32.0294 32.6512 31.8785 32.3943C31.7277 32.1374 31.3972 32.0512 31.1401 32.2021L28.165 33.9481C27.224 34.5005 26.1149 34.6943 25.0422 34.4938L19.1951 33.3994V27.0928C21.4445 25.8142 24.2693 25.8641 26.4735 27.2433C26.5593 27.297 26.6585 27.3255 26.7597 27.3255H30.052C30.4528 27.3255 30.7788 27.6516 30.7788 28.0522C30.7788 28.4529 30.4528 28.7789 30.052 28.7789H24.2271C23.9291 28.7789 23.6876 29.0205 23.6876 29.3184C23.6876 29.6164 23.9291 29.858 24.2271 29.858H30.0521C30.396 29.858 30.7177 29.7613 30.9915 29.5937C30.995 29.5918 30.9986 29.5902 31.002 29.5882L36.0891 26.5571C36.6959 26.2007 37.4745 26.4478 37.7651 27.0897C38.0181 27.6471 37.7977 28.2967 37.2818 28.5978L33.0011 31.1099C32.7441 31.2608 32.658 31.5913 32.8088 31.8484C32.9599 32.1058 33.2906 32.1912 33.5473 32.0406L37.827 29.5291C38.8176 28.9508 39.2295 27.7049 38.7479 26.6442Z" fill="white"/>
</g>
<defs>
<clipPath id="clip0_1005_4085">
<rect width="48" height="48" fill="white"/>
</clipPath>
</defs>
</svg>
