<svg width="19" height="15" viewBox="0 0 19 15" fill="none" xmlns="http://www.w3.org/2000/svg">
<path d="M18.6924 3.48212C18.6924 4.22173 18.1121 4.82139 17.3963 4.82139C17.3883 4.82139 17.3816 4.81715 17.3735 4.81702L15.7366 14.1216C15.6466 14.6282 15.2189 14.9999 14.7167 14.9999H4.00481C3.50389 14.9999 3.07424 14.6296 2.98482 14.1203L1.34822 4.81804C1.34012 4.81804 1.33332 4.82139 1.29606 4.82139C0.580309 4.82139 0 4.22173 0 3.48212C0 2.7425 0.60947 2.14284 1.29606 2.14284C1.98264 2.14284 2.59211 2.7425 2.59211 3.48212C2.59211 3.78339 2.47803 4.04762 2.3155 4.27128L5.21964 6.67193C5.73514 7.09816 6.49949 6.92452 6.79467 6.31435L8.66099 2.45724C8.29476 2.22119 8.03555 1.81941 8.03555 1.33928C8.03555 0.59966 8.64469 0 9.36076 0C10.0768 0 10.6277 0.59966 10.6277 1.33928C10.6277 1.81941 10.3696 2.22119 10.0023 2.45757L11.8686 6.31468C12.1638 6.92472 12.9285 7.09816 13.4437 6.67227L16.3478 4.27162C16.2137 4.04796 16.1003 3.75332 16.1003 3.48212C16.1003 2.74217 16.6802 2.14284 17.3963 2.14284C18.1124 2.14284 18.6924 2.74217 18.6924 3.48212Z" fill="#DA3A2A"/>
</svg>
