<svg width="24" height="24" viewBox="0 0 24 24" fill="none" xmlns="http://www.w3.org/2000/svg">
<path d="M13.9112 7.65562H11.5524C10.7698 7.65562 10.6888 7.08299 10.6843 6.88199V5.95687C10.6843 5.15024 10.1316 4.49512 9.44606 4.49512H7.35994C6.67444 4.49512 6.12244 5.15024 6.12244 5.95687V6.92512C6.10519 7.17824 5.98219 7.65562 5.29894 7.65562H2.89444C2.22131 7.65562 1.68169 8.19524 1.68169 8.86837V10.1996C1.68169 10.1996 1.66669 11.3805 2.17519 13.173C2.17556 13.1737 2.17556 13.1745 2.17631 13.1749L4.23806 20.4409C4.23919 20.4472 4.56206 21.9746 4.56206 22.3826V23.3797C4.56206 23.7127 4.82906 23.9854 5.16956 23.9854H11.6364C11.9758 23.9854 12.2428 23.7124 12.2428 23.3797V22.9031C12.2567 22.5274 12.3846 21.6754 12.4877 21.0397L12.9651 19.0399L14.6136 13.2326C14.9657 11.9914 15.1236 10.0792 15.1236 10.0792V8.86874C15.1239 8.19524 14.5851 7.65562 13.9112 7.65562ZM12.5383 12.8531C12.4847 13.1359 12.4266 13.44 12.3669 13.7524L11.4741 17.9302L10.5343 21.6836C10.3858 22.2795 9.97856 22.395 9.75131 22.413H7.07756C6.87656 22.3954 6.45844 22.2746 6.28856 21.5865L5.43469 18.129L4.34869 13.1276L4.27744 12.693L4.27669 12.6919L4.22794 12.3952C4.20131 12.0337 4.29544 11.4679 5.17594 11.4679H5.66119C5.79881 11.4712 6.18994 11.5312 6.30656 12.0922L7.36706 17.2035C7.36781 17.2042 7.52456 17.4919 7.55831 17.2042L8.16806 11.9505C8.16919 11.9407 8.24006 11.4679 8.80219 11.4679H11.5697C11.8689 11.4739 12.7892 11.5905 12.5383 12.8531Z" fill="#241F20"/>
<path d="M21.1524 12.0315H20.8262C20.3139 12.0409 20.2652 11.5391 20.2614 11.3715V5.27139C20.2641 5.05089 20.2929 4.11339 20.6417 3.09077C20.6417 3.08852 20.6417 3.08739 20.6428 3.08552L21.5072 0.549769C21.5072 0.549769 21.5072 0.549394 21.5072 0.548269C21.6966 -0.00748116 21.0774 0.0150188 21.0774 0.0150188H18.0759C17.4999 0.0150188 17.6263 0.523144 17.6679 0.651769L17.6694 0.656269C17.6739 0.670144 17.6773 0.680644 17.6773 0.680644L18.5334 3.22689C18.5334 3.22689 18.8747 4.26189 18.8747 5.17239V11.3801C18.8747 11.9186 18.5739 12.018 18.4078 12.0319H18.0174C17.3728 12.0319 16.8516 12.7763 16.8516 13.6946V22.3226C16.8516 23.2418 17.3732 23.9861 18.0174 23.9861H21.1524C21.7948 23.9861 22.3187 23.2421 22.3187 22.3226V13.6943C22.3191 12.7759 21.7948 12.0315 21.1524 12.0315Z" fill="#241F20"/>
</svg>
