<svg width="21" height="22" viewBox="0 0 21 22" fill="none" xmlns="http://www.w3.org/2000/svg">
<g clip-path="url(#clip0_822_559)">
<path d="M7.875 20.1667C8.35825 20.1667 8.75 19.7563 8.75 19.25C8.75 18.7438 8.35825 18.3334 7.875 18.3334C7.39175 18.3334 7 18.7438 7 19.25C7 19.7563 7.39175 20.1667 7.875 20.1667Z" stroke="#566CA2" stroke-width="2" stroke-linecap="round" stroke-linejoin="round"/>
<path d="M17.5 20.1667C17.9832 20.1667 18.375 19.7563 18.375 19.25C18.375 18.7438 17.9832 18.3334 17.5 18.3334C17.0168 18.3334 16.625 18.7438 16.625 19.25C16.625 19.7563 17.0168 20.1667 17.5 20.1667Z" stroke="#566CA2" stroke-width="2" stroke-linecap="round" stroke-linejoin="round"/>
<path d="M0.875 0.916626H4.375L6.72 13.1908C6.80001 13.6128 7.01917 13.9919 7.3391 14.2617C7.65904 14.5315 8.05936 14.6749 8.47 14.6666H16.975C17.3856 14.6749 17.786 14.5315 18.1059 14.2617C18.4258 13.9919 18.645 13.6128 18.725 13.1908L20.125 5.49996H5.25" fill="#566CA2"/>
<path d="M0.875 0.916626H4.375L6.72 13.1908C6.80001 13.6128 7.01917 13.9919 7.3391 14.2617C7.65904 14.5315 8.05936 14.6749 8.47 14.6666H16.975C17.3856 14.6749 17.786 14.5315 18.1059 14.2617C18.4258 13.9919 18.645 13.6128 18.725 13.1908L20.125 5.49996H5.25" stroke="#566CA2" stroke-width="2" stroke-linecap="round" stroke-linejoin="round"/>
</g>
<defs>
<clipPath id="clip0_822_559">
<rect width="21" height="22" fill="white"/>
</clipPath>
</defs>
</svg>
