<svg width="48" height="48" viewBox="0 0 48 48" fill="none" xmlns="http://www.w3.org/2000/svg">
<g clip-path="url(#clip0_1005_4110)">
<path d="M24 48C37.2548 48 48 37.2548 48 24C48 10.7452 37.2548 0 24 0C10.7452 0 0 10.7452 0 24C0 37.2548 10.7452 48 24 48Z" fill="#566CA2"/>
<path d="M24.0945 32.3699C23.7687 32.4816 23.232 32.4816 22.9062 32.3699C20.127 31.4484 13.917 27.6042 13.917 21.0886C13.917 18.2125 16.3032 15.8855 19.2453 15.8855C20.9895 15.8855 22.5324 16.7046 23.5003 17.9705C24.4682 16.7046 26.0207 15.8855 27.7553 15.8855C30.6974 15.8855 33.0837 18.2125 33.0837 21.0886C33.0837 27.6042 26.8737 31.4484 24.0945 32.3699Z" fill="white" stroke="white" stroke-width="1.5" stroke-linecap="round" stroke-linejoin="round"/>
</g>
<defs>
<clipPath id="clip0_1005_4110">
<rect width="48" height="48" fill="white"/>
</clipPath>
</defs>
</svg>
