<svg width="48" height="48" viewBox="0 0 48 48" fill="none" xmlns="http://www.w3.org/2000/svg">
<g clip-path="url(#clip0_1077_851)">
<path d="M24 48C37.2548 48 48 37.2548 48 24C48 10.7452 37.2548 0 24 0C10.7452 0 0 10.7452 0 24C0 37.2548 10.7452 48 24 48Z" fill="#566CA2"/>
<path d="M29.2616 19.8864C26.8426 20.0127 24.7392 20.746 23.0315 22.4027C21.3061 24.0765 20.5184 26.1275 20.7337 28.67C19.7883 28.5529 18.9271 28.424 18.061 28.3511C17.7619 28.3259 17.407 28.3617 17.1536 28.5046C16.3127 28.9792 15.5064 29.5149 14.5509 30.1122C14.7262 29.3192 14.8397 28.6248 15.0406 27.9568C15.1884 27.4659 15.1199 27.1927 14.6677 26.873C11.7639 24.8229 10.54 21.7548 11.456 18.5961C12.3034 15.674 14.3846 13.9018 17.2124 12.978C21.0721 11.7173 25.4098 13.0033 27.7568 16.0677C28.6044 17.1746 29.1242 18.417 29.2616 19.8864ZM18.1288 18.9021C18.1511 18.3244 17.6505 17.8039 17.0559 17.7865C16.4471 17.7686 15.9463 18.2339 15.9285 18.8338C15.9106 19.4418 16.3756 19.929 16.9888 19.9446C17.5967 19.96 18.1063 19.4941 18.1288 18.9021ZM23.9372 17.7861C23.3404 17.7972 22.8361 18.3055 22.8467 18.8855C22.8576 19.4867 23.3523 19.957 23.966 19.9496C24.5813 19.9422 25.048 19.4669 25.0421 18.853C25.037 18.2504 24.5445 17.775 23.9372 17.7861Z" fill="white"/>
<path d="M34.6957 34.9665C33.9298 34.6254 33.2271 34.1137 32.4791 34.0356C31.7339 33.9577 30.9506 34.3876 30.1709 34.4674C27.7962 34.7103 25.6687 34.0485 23.9144 32.4261C20.5779 29.3402 21.0547 24.6084 24.9148 22.0795C28.3455 19.8319 33.3769 20.5812 35.7957 23.6998C37.9065 26.4211 37.6584 30.0336 35.0816 32.3197C34.3359 32.9814 34.0675 33.5259 34.546 34.3981C34.6343 34.5592 34.6444 34.7631 34.6957 34.9665ZM25.9769 26.5248C26.4645 26.5253 26.866 26.1437 26.8845 25.6621C26.9039 25.1522 26.4938 24.7245 25.9833 24.7224C25.4778 24.7201 25.0543 25.1538 25.0718 25.6561C25.0884 26.136 25.4927 26.5242 25.9769 26.5248ZM31.5974 24.7244C31.1243 24.7211 30.7223 25.1084 30.703 25.5865C30.6825 26.0977 31.0798 26.5175 31.5857 26.5187C32.0751 26.5203 32.4617 26.1503 32.4794 25.6634C32.4984 25.151 32.1009 24.7279 31.5974 24.7244Z" fill="white"/>
</g>
<defs>
<clipPath id="clip0_1077_851">
<rect width="48" height="48" fill="white"/>
</clipPath>
</defs>
</svg>
