<svg width="16" height="16" viewBox="0 0 16 16" fill="none" xmlns="http://www.w3.org/2000/svg">
<path d="M6.39978 15.9998C7.28343 15.9998 7.99976 15.2835 7.99976 14.3998C7.99976 13.5162 7.28343 12.7998 6.39978 12.7998C5.51614 12.7998 4.7998 13.5162 4.7998 14.3998C4.7998 15.2835 5.51614 15.9998 6.39978 15.9998Z" fill="white"/>
<path d="M11.2001 15.9998C12.0837 15.9998 12.8001 15.2835 12.8001 14.3998C12.8001 13.5162 12.0837 12.7998 11.2001 12.7998C10.3164 12.7998 9.6001 13.5162 9.6001 14.3998C9.6001 15.2835 10.3164 15.9998 11.2001 15.9998Z" fill="white"/>
<path d="M15.6798 4.63995C15.3598 4.23995 14.8798 3.99995 14.3998 3.99995H5.27994L4.79994 1.27999C4.63995 0.559994 3.99995 0 3.19996 0H1.59998C0.719992 0 0 0.719992 0 1.59998C0 2.47997 0.719992 3.19996 1.59998 3.19996H1.83998L3.19996 9.91989C3.35996 10.7199 3.99995 11.1999 4.79994 11.1999H12.7999C13.5198 11.1999 14.0798 10.7199 14.3198 10.0799L15.9198 6.07993C16.0798 5.59994 15.9998 5.11994 15.6798 4.63995Z" fill="white"/>
</svg>
