<svg width="49" height="49" viewBox="0 0 49 49" fill="none" xmlns="http://www.w3.org/2000/svg">
<circle cx="23.7344" cy="23.7344" r="23.7344" fill="#566CA2"/>
<path d="M16.4763 16.8751H31.4763C31.6515 16.875 31.8266 16.8862 32.0004 16.9084C31.9415 16.4949 31.7994 16.0975 31.5828 15.7404C31.3662 15.3832 31.0795 15.0736 30.74 14.8302C30.4005 14.5869 30.0152 14.4148 29.6074 14.3244C29.1996 14.2339 28.7777 14.227 28.3671 14.304L16.031 16.4101H16.017C15.2426 16.5582 14.554 16.9963 14.0918 17.635C14.7882 17.1396 15.6218 16.874 16.4763 16.8751Z" fill="white"/>
<path d="M31.4766 18H16.4766C15.6812 18.0009 14.9186 18.3172 14.3562 18.8796C13.7938 19.4421 13.4774 20.2046 13.4766 21V30C13.4774 30.7954 13.7938 31.5579 14.3562 32.1204C14.9186 32.6828 15.6812 32.9991 16.4766 33H31.4766C32.2719 32.9991 33.0345 32.6828 33.5969 32.1204C34.1593 31.5579 34.4757 30.7954 34.4766 30V21C34.4757 20.2046 34.1593 19.4421 33.5969 18.8796C33.0345 18.3172 32.2719 18.0009 31.4766 18ZM29.25 27C28.9533 27 28.6633 26.912 28.4166 26.7472C28.17 26.5824 27.9777 26.3481 27.8642 26.074C27.7506 25.7999 27.7209 25.4983 27.7788 25.2074C27.8367 24.9164 27.9796 24.6491 28.1893 24.4393C28.3991 24.2296 28.6664 24.0867 28.9574 24.0288C29.2483 23.9709 29.5499 24.0006 29.824 24.1142C30.0981 24.2277 30.3324 24.42 30.4972 24.6666C30.662 24.9133 30.75 25.2033 30.75 25.5C30.75 25.8978 30.592 26.2794 30.3107 26.5607C30.0294 26.842 29.6478 27 29.25 27Z" fill="white"/>
<path d="M13.5 24.1641V19.5C13.5 18.4842 14.0625 16.7812 16.0148 16.4123C17.6719 16.1016 19.3125 16.1016 19.3125 16.1016C19.3125 16.1016 20.3906 16.8516 19.5 16.8516C18.6094 16.8516 18.6328 18 19.5 18C20.3672 18 19.5 19.1016 19.5 19.1016L16.0078 23.0625L13.5 24.1641Z" fill="white"/>
</svg>
