<svg width="50" height="26" viewBox="0 0 50 26" fill="none" xmlns="http://www.w3.org/2000/svg">
<g clip-path="url(#clip0_1064_301)">
<path d="M3.49615 0.188263C3.12692 0.603647 0.392307 5.56518 0.426923 5.7498C0.461538 5.91134 1.06154 5.94595 6.92307 6.00364C11.7577 6.0498 13.5 6.09595 13.8461 6.21134C15.75 6.82287 17.1461 8.33441 17.6538 10.319C17.8846 11.219 17.8846 13.2267 17.6538 14.1267C17.0884 16.3075 15.4384 17.8767 13.3269 18.2113C12.3808 18.3729 6.17307 18.3729 5.78076 18.2229L5.4923 18.119L5.45769 13.7921C5.43461 11.4152 5.37692 9.43056 5.33076 9.37287C5.20384 9.25749 0.207692 9.25749 0.0923076 9.38441C0.0461538 9.43056 0 12.7652 0 16.7806C0 22.6075 0.0346154 24.1305 0.15 24.2459C0.265384 24.3613 1.15385 24.3844 4.36153 24.3613C8.95384 24.3152 8.58461 24.3844 10.4192 23.2882C12.5077 22.0421 16.5115 18.9498 18.3808 17.1382C19.9269 15.6498 22.4192 12.4883 23.0192 11.2421C23.2731 10.7229 23.2731 10.6536 23.1461 9.73056C22.7654 6.98441 21.6692 4.75749 19.7884 2.8998C18.5884 1.72288 17.2269 0.926724 15.4384 0.372879L14.4231 0.0613403L9.05768 0.0151859C3.98077 -0.0194285 3.66923 -0.00789034 3.49615 0.188263Z" fill="white"/>
<path d="M30.8308 0.130606C30.5885 0.211374 30.5192 0.303681 30.5769 0.442144C30.6231 0.545989 30.8308 1.14599 31.0385 1.79214C31.3846 2.8306 31.4885 3.32676 31.7654 5.47291C31.8346 5.92291 31.9038 6.07291 32.1346 6.18829C32.3538 6.30368 33.6461 6.33829 37.5 6.33829H42.5769L43.1654 6.68445C44.0423 7.1806 44.3654 7.87291 44.3654 9.26906C44.3654 10.2268 44.3307 10.3768 44.0192 10.9191C43.8115 11.2767 43.4654 11.6575 43.1884 11.8421L42.7038 12.1652L37.1192 12.2229C30.8308 12.2921 31.3385 12.2114 31.0961 13.2037C30.3923 16.0883 28.9038 19.3421 26.9885 22.2152C26.3192 23.2306 25.7885 24.1306 25.7885 24.2921C25.7885 24.4998 25.8692 24.569 26.1692 24.6267C26.7 24.7306 30.9461 24.6498 31.0615 24.5344C31.1077 24.4767 31.1769 23.1037 31.2115 21.4767L31.2692 18.5114L36.8077 18.4421C40.1538 18.4075 42.5538 18.3267 42.8654 18.246C46.0961 17.4729 48.5192 15.3383 49.4884 12.4421C50.3192 9.94983 50.1346 7.19214 48.9577 4.83829C48.5654 4.05368 48.2654 3.64983 47.4231 2.81906C46.2346 1.6306 45.2884 1.03061 43.9615 0.626758C41.8961 0.00368242 41.8038 -0.0078557 36.2884 0.00368242C33.0923 0.00368242 31.0269 0.0498368 30.8308 0.130606Z" fill="white"/>
</g>
<defs>
<clipPath id="clip0_1064_301">
<rect width="49.5428" height="25.3475" fill="white" transform="scale(1.00922)"/>
</clipPath>
</defs>
</svg>
