<svg width="88" height="10" viewBox="0 0 88 10" fill="none" xmlns="http://www.w3.org/2000/svg">
<path d="M3.82601 0H84.1739C86.287 0 88 2.17115 88 4.8494C88 7.52764 86.287 9.69879 84.1739 9.69879H3.82601C1.71293 9.69879 -7.70205e-05 7.52764 -7.70205e-05 4.8494C-7.70205e-05 2.17115 1.71293 0 3.82601 0Z" fill="#ABABAB"/>
<path d="M3.82611 0.485044H84.174C86.0758 0.485044 87.6175 2.43908 87.6175 4.8495C87.6175 7.25992 86.0758 9.21396 84.174 9.21396H3.82611C1.92433 9.21396 0.38263 7.25992 0.38263 4.8495C0.38263 2.43908 1.92433 0.485044 3.82611 0.485044Z" fill="#ABABAB"/>
</svg>
