<svg width="23" height="23" viewBox="0 0 23 23" fill="none" xmlns="http://www.w3.org/2000/svg">
<g clip-path="url(#clip0_1081_683)">
<path d="M20.6041 3.83333H18.0486V5.74999C18.0486 5.93457 18.0122 6.11735 17.9416 6.28788C17.871 6.45841 17.7674 6.61335 17.6369 6.74387C17.5064 6.87439 17.3514 6.97792 17.1809 7.04856C17.0104 7.11919 16.8276 7.15555 16.643 7.15555C16.4584 7.15555 16.2757 7.11919 16.1051 7.04856C15.9346 6.97792 15.7797 6.87439 15.6492 6.74387C15.5186 6.61335 15.4151 6.45841 15.3445 6.28788C15.2738 6.11735 15.2375 5.93457 15.2375 5.74999V3.83333H7.79442V5.74999C7.79442 6.12277 7.64633 6.48028 7.38274 6.74387C7.11915 7.00746 6.76164 7.15555 6.38886 7.15555C6.01609 7.15555 5.65858 7.00746 5.39499 6.74387C5.13139 6.48028 4.98331 6.12277 4.98331 5.74999V3.83333H2.42775C2.27571 3.8316 2.12487 3.86037 1.98414 3.91795C1.84342 3.97554 1.71567 4.06075 1.60845 4.16857C1.50123 4.27638 1.41672 4.4046 1.35992 4.54564C1.30312 4.68668 1.27518 4.83769 1.27775 4.98971V19.288C1.27521 19.4374 1.30212 19.5858 1.35694 19.7247C1.41176 19.8637 1.49341 19.9905 1.59724 20.0978C1.70106 20.2052 1.82502 20.2911 1.96204 20.3506C2.09907 20.41 2.24646 20.4419 2.39581 20.4444H20.6041C20.7535 20.4419 20.9009 20.41 21.0379 20.3506C21.1749 20.2911 21.2989 20.2052 21.4027 20.0978C21.5065 19.9905 21.5882 19.8637 21.643 19.7247C21.6978 19.5858 21.7247 19.4374 21.7222 19.288V4.98971C21.7247 4.84037 21.6978 4.69198 21.643 4.55303C21.5882 4.41409 21.5065 4.2873 21.4027 4.17992C21.2989 4.07253 21.1749 3.98665 21.0379 3.92718C20.9009 3.86771 20.7535 3.83582 20.6041 3.83333ZM6.38886 16.6111H5.11109V15.3333H6.38886V16.6111ZM6.38886 13.4167H5.11109V12.1389H6.38886V13.4167ZM6.38886 10.2222H5.11109V8.94444H6.38886V10.2222ZM10.2222 16.6111H8.94442V15.3333H10.2222V16.6111ZM10.2222 13.4167H8.94442V12.1389H10.2222V13.4167ZM10.2222 10.2222H8.94442V8.94444H10.2222V10.2222ZM14.0555 16.6111H12.7778V15.3333H14.0555V16.6111ZM14.0555 13.4167H12.7778V12.1389H14.0555V13.4167ZM14.0555 10.2222H12.7778V8.94444H14.0555V10.2222ZM17.8889 16.6111H16.6111V15.3333H17.8889V16.6111ZM17.8889 13.4167H16.6111V12.1389H17.8889V13.4167ZM17.8889 10.2222H16.6111V8.94444H17.8889V10.2222Z" fill="#979797"/>
<path d="M6.38889 6.38894C6.55833 6.38894 6.72084 6.32163 6.84065 6.20182C6.96047 6.082 7.02778 5.9195 7.02778 5.75005V1.91672C7.02778 1.74728 6.96047 1.58477 6.84065 1.46496C6.72084 1.34514 6.55833 1.27783 6.38889 1.27783C6.21945 1.27783 6.05694 1.34514 5.93713 1.46496C5.81731 1.58477 5.75 1.74728 5.75 1.91672V5.75005C5.75 5.9195 5.81731 6.082 5.93713 6.20182C6.05694 6.32163 6.21945 6.38894 6.38889 6.38894Z" fill="#979797"/>
<path d="M16.6111 6.38894C16.7805 6.38894 16.943 6.32163 17.0628 6.20182C17.1826 6.082 17.2499 5.9195 17.2499 5.75005V1.91672C17.2499 1.74728 17.1826 1.58477 17.0628 1.46496C16.943 1.34514 16.7805 1.27783 16.6111 1.27783C16.4416 1.27783 16.2791 1.34514 16.1593 1.46496C16.0395 1.58477 15.9722 1.74728 15.9722 1.91672V5.75005C15.9722 5.9195 16.0395 6.082 16.1593 6.20182C16.2791 6.32163 16.4416 6.38894 16.6111 6.38894Z" fill="#979797"/>
</g>
<defs>
<clipPath id="clip0_1081_683">
<rect width="23" height="23" fill="white"/>
</clipPath>
</defs>
</svg>
