<svg width="22" height="22" viewBox="0 0 22 22" fill="none" xmlns="http://www.w3.org/2000/svg">
<path d="M4.83063 4.95909L6.00397 5.87576L10.9998 9.58826L15.9956 5.83909L17.169 4.92242C17.4454 4.69376 17.7828 4.55121 18.1395 4.51245C18.4961 4.47368 18.8563 4.5404 19.1754 4.70434C19.4945 4.86827 19.7584 5.12222 19.9346 5.43473C20.1108 5.74723 20.1914 6.10455 20.1665 6.46242V17.0866C20.1665 17.4172 20.0351 17.7343 19.8013 17.9681C19.5675 18.2019 19.2504 18.3333 18.9198 18.3333H16.4998V9.62494L10.9998 13.7499L5.49976 9.62494V18.3333H3.0798C2.74916 18.3333 2.43207 18.2019 2.19827 17.9681C1.96448 17.7343 1.83313 17.4172 1.83313 17.0866V6.46242C1.81592 6.10764 1.90214 5.75549 2.08132 5.4488C2.2605 5.1421 2.52491 4.89405 2.84242 4.73481C3.15993 4.57557 3.51685 4.512 3.86982 4.55181C4.22278 4.59163 4.55658 4.73312 4.83063 4.95909Z" fill="#9D9D9D"/>
</svg>
