<svg width="48" height="48" viewBox="0 0 48 48" fill="none" xmlns="http://www.w3.org/2000/svg">
<g clip-path="url(#clip0_1105_2097)">
<path d="M24 48C37.2548 48 48 37.2548 48 24C48 10.7452 37.2548 0 24 0C10.7452 0 0 10.7452 0 24C0 37.2548 10.7452 48 24 48Z" fill="#566CA2"/>
<g clip-path="url(#clip1_1105_2097)">
<path d="M32.75 14.2499H27.5187C27.0062 12.9933 25.6313 12.0833 24 12.0833C22.3687 12.0833 20.9938 12.9933 20.4813 14.2499H15.25C13.8687 14.2499 12.75 15.2195 12.75 16.4166V31.5833C12.75 32.7803 13.8687 33.7499 15.25 33.7499H32.75C34.1313 33.7499 35.25 32.7803 35.25 31.5833V16.4166C35.25 15.2195 34.1313 14.2499 32.75 14.2499ZM24 14.2499C24.6875 14.2499 25.25 14.732 25.25 15.3333C25.25 15.9345 24.6875 16.4166 24 16.4166C23.3125 16.4166 22.75 15.9345 22.75 15.3333C22.75 14.732 23.3125 14.2499 24 14.2499ZM29 27.2499H24V30.4999L17.75 25.0833L24 19.6666V22.9166H29V27.2499Z" fill="white"/>
</g>
</g>
<defs>
<clipPath id="clip0_1105_2097">
<rect width="48" height="48" fill="white"/>
</clipPath>
<clipPath id="clip1_1105_2097">
<rect width="30" height="26" fill="white" transform="translate(9 11)"/>
</clipPath>
</defs>
</svg>
