<svg width="49" height="49" viewBox="0 0 49 49" fill="none" xmlns="http://www.w3.org/2000/svg">
<g clip-path="url(#clip0_1005_3900)">
<path d="M24 49C37.2548 49 48 38.2548 48 25C48 11.7452 37.2548 1 24 1C10.7452 1 0 11.7452 0 25C0 38.2548 10.7452 49 24 49Z" fill="#566CA2"/>
<g clip-path="url(#clip1_1005_3900)">
<path fill-rule="evenodd" clip-rule="evenodd" d="M27.2262 14.8813C27.0077 14.9229 26.8094 15.036 26.6625 15.2029L23.1221 19.2243L15.1087 20.7479C12.9385 21.1605 11.5136 23.2544 11.9263 25.4246L12.1131 26.407C12.5257 28.5773 14.6195 30.0021 16.7898 29.5895L24.8031 28.0659L29.5723 30.5075C29.7702 30.6088 29.9963 30.6413 30.2147 30.5997L32.1796 30.2262C32.7221 30.123 33.0783 29.5996 32.9752 29.057L30.3602 15.3034C30.257 14.7608 29.7336 14.4046 29.191 14.5077L27.2262 14.8813Z" fill="white"/>
<path fill-rule="evenodd" clip-rule="evenodd" d="M16.416 27.6247C16.1098 27.683 15.8584 27.934 15.7362 28.3039C15.6139 28.6737 15.6347 29.1198 15.7925 29.5105L18.0982 35.221C18.6689 36.6342 19.8331 37.4686 20.9407 37.258L21.8154 37.0917C23.4349 36.7838 24.2086 34.4437 23.3741 32.3771L21.4826 27.6925C21.2543 27.1271 20.7887 26.7934 20.3456 26.8776L16.416 27.6247Z" fill="white"/>
<circle cx="31.0003" cy="22.4449" r="2" transform="rotate(-14.8022 31.0003 22.4449)" fill="white"/>
</g>
<rect x="32.3965" y="19.5215" width="5.08307" height="1.38748" rx="0.693741" transform="rotate(-53.1406 32.3965 19.5215)" fill="white"/>
<rect width="5.08307" height="1.38748" rx="0.693741" transform="matrix(0.888616 0.458653 0.458653 -0.888616 34 24.2329)" fill="white"/>
<rect x="34" y="20.6641" width="5.68382" height="1.28466" rx="0.642332" transform="rotate(-6.7102 34 20.6641)" fill="white"/>
</g>
<defs>
<clipPath id="clip0_1005_3900">
<rect width="48" height="48" fill="white" transform="translate(0 1)"/>
</clipPath>
<clipPath id="clip1_1005_3900">
<rect width="24" height="24" fill="white" transform="translate(8 15.4829) rotate(-10.7652)"/>
</clipPath>
</defs>
</svg>
