<svg width="55" height="52" viewBox="0 0 55 52" fill="none" xmlns="http://www.w3.org/2000/svg">
<path d="M53.2811 44.8108H29.2187C28.2701 44.8108 27.5002 44.0388 27.5002 43.0874V8.61936C27.5002 7.66794 28.2701 6.89608 29.2187 6.89608H53.2811C54.2301 6.89608 55 7.66794 55 8.61936V43.0874C55.0001 44.0388 54.2302 44.8108 53.2811 44.8108Z" fill="#F1F5F7"/>
<path d="M36.0938 17.2363H29.2187C28.2701 17.2363 27.5002 16.4642 27.5002 15.5128C27.5002 14.5616 28.2701 13.7896 29.2187 13.7896H36.0938C37.0423 13.7896 37.8122 14.5616 37.8122 15.5128C37.8124 16.4642 37.0425 17.2363 36.0938 17.2363Z" fill="#46B34C"/>
<path d="M36.0938 24.1301H29.2187C28.2701 24.1301 27.5002 23.3582 27.5002 22.4063C27.5002 21.4558 28.2701 20.6836 29.2187 20.6836H36.0938C37.0423 20.6836 37.8122 21.4558 37.8122 22.4063C37.8124 23.3581 37.0425 24.1301 36.0938 24.1301Z" fill="#46B34C"/>
<path d="M36.0938 31.0232H29.2187C28.2701 31.0232 27.5002 30.251 27.5002 29.3003C27.5002 28.3489 28.2701 27.5768 29.2187 27.5768H36.0938C37.0423 27.5768 37.8122 28.3489 37.8122 29.3003C37.8124 30.251 37.0425 31.0232 36.0938 31.0232Z" fill="#46B34C"/>
<path d="M36.0938 37.9173H29.2187C28.2701 37.9173 27.5002 37.1453 27.5002 36.1939C27.5002 35.2425 28.2701 34.4704 29.2187 34.4704H36.0938C37.0423 34.4704 37.8122 35.2425 37.8122 36.1939C37.8122 37.1453 37.0425 37.9173 36.0938 37.9173Z" fill="#46B34C"/>
<path d="M46.4061 17.2363H42.9686C42.02 17.2363 41.2496 16.4642 41.2496 15.5128C41.2496 14.5616 42.02 13.7896 42.9686 13.7896H46.4061C47.3545 13.7896 48.1246 14.5616 48.1246 15.5128C48.1246 16.4642 47.3545 17.2363 46.4061 17.2363Z" fill="#46B34C"/>
<path d="M46.4061 24.1301H42.9686C42.02 24.1301 41.2496 23.3582 41.2496 22.4063C41.2496 21.4558 42.02 20.6836 42.9686 20.6836H46.4061C47.3545 20.6836 48.1246 21.4558 48.1246 22.4063C48.1246 23.3581 47.3545 24.1301 46.4061 24.1301Z" fill="#46B34C"/>
<path d="M46.4061 31.0232H42.9686C42.02 31.0232 41.2496 30.251 41.2496 29.3003C41.2496 28.3489 42.02 27.5768 42.9686 27.5768H46.4061C47.3545 27.5768 48.1246 28.3489 48.1246 29.3003C48.1246 30.251 47.3545 31.0232 46.4061 31.0232Z" fill="#46B34C"/>
<path d="M46.4061 37.9173H42.9686C42.02 37.9173 41.2496 37.1453 41.2496 36.1939C41.2496 35.2425 42.02 34.4704 42.9686 34.4704H46.4061C47.3545 34.4704 48.1246 35.2425 48.1246 36.1939C48.1246 37.1453 47.3545 37.9173 46.4061 37.9173Z" fill="#46B34C"/>
<path d="M30.3154 0.398672C29.9231 0.0712347 29.3972 -0.0702973 28.9024 0.0335467L1.40253 5.20327C0.587912 5.35564 0 6.06549 0 6.89601V44.8107C0 45.6379 0.587912 46.351 1.40253 46.5036L28.9024 51.6734C29.0053 51.6938 29.1119 51.7047 29.2187 51.7047C29.6173 51.7047 30.0056 51.5665 30.3154 51.3076C30.711 50.9807 30.937 50.4913 30.937 49.9808V1.72617C30.9369 1.21237 30.7109 0.726224 30.3154 0.398672Z" fill="#3CA241"/>
<path d="M23.6365 31.6131L18.2011 25.3852L23.6984 18.2987C24.2827 17.5467 24.1446 16.4643 23.3987 15.8788C22.6529 15.2926 21.5733 15.4304 20.9862 16.1781L15.8949 22.741L11.6051 17.8266C10.9763 17.102 9.8898 17.0366 9.18156 17.6644C8.46687 18.2912 8.39437 19.3802 9.02009 20.094L13.7468 25.5122L8.95485 31.6887C8.37029 32.4403 8.50801 33.523 9.25359 34.1086C9.57008 34.3533 9.94512 34.4705 10.3125 34.4705C10.8246 34.4705 11.3304 34.2432 11.6701 33.805L16.0532 28.1523L21.051 33.8781C21.3916 34.2707 21.8659 34.4707 22.3434 34.4707C22.7458 34.4707 23.1483 34.3292 23.4752 34.0428C24.19 33.4161 24.2618 32.3269 23.6365 31.6131Z" fill="#FCFCFC"/>
</svg>
