<svg width="34" height="17" viewBox="0 0 34 17" fill="none" xmlns="http://www.w3.org/2000/svg">
<path d="M23.5177 11.9381C23.9555 12.1375 24.4306 12.2504 24.9146 12.2699V13.0283C24.889 13.0891 24.889 13.1571 24.9146 13.2179C24.9778 13.2425 25.0486 13.2425 25.1118 13.2179H25.8185C25.8817 13.2425 25.9524 13.2425 26.0157 13.2179C26.0413 13.1571 26.0413 13.0891 26.0157 13.0283V12.2699C26.7124 12.2285 27.3785 11.98 27.922 11.5589C28.159 11.3661 28.3462 11.123 28.4688 10.8488C28.5914 10.5746 28.6461 10.2768 28.6287 9.97883C28.6455 9.60725 28.5484 9.2391 28.3493 8.92021C28.1289 8.62157 27.8277 8.38662 27.4783 8.2408C26.9508 8.02029 26.3997 7.85604 25.8349 7.75099C25.5187 7.69376 25.206 7.61991 24.8982 7.52979C24.6866 7.45674 24.4954 7.33779 24.3394 7.18218C24.2184 7.04591 24.154 6.87148 24.1586 6.69237C24.1424 6.54145 24.1747 6.38937 24.2511 6.2566C24.3275 6.12383 24.4443 6.01675 24.5859 5.94976C24.8846 5.78379 25.2277 5.7068 25.572 5.72855C25.8725 5.72577 26.1681 5.80228 26.4265 5.94976C26.5392 6.01163 26.6369 6.0957 26.7134 6.19645C26.7899 6.2972 26.8433 6.41236 26.8702 6.53437C26.8975 6.59505 26.9439 6.64599 27.0029 6.68C27.0618 6.71402 27.1304 6.72939 27.1989 6.72397H28.2671C28.3281 6.72397 28.3867 6.70067 28.4298 6.65918C28.473 6.6177 28.4972 6.56143 28.4972 6.50277C28.4726 6.20922 28.3708 5.92651 28.2014 5.68115C27.9942 5.37875 27.719 5.12497 27.3961 4.93854C27.0348 4.74994 26.6383 4.63181 26.2293 4.59093V3.81672C26.2348 3.78022 26.2314 3.74298 26.2193 3.70797C26.2072 3.67297 26.1868 3.64115 26.1597 3.61507C26.1325 3.58899 26.0995 3.56936 26.063 3.55773C26.0266 3.54611 25.9879 3.54281 25.9499 3.54812H25.1775C25.1143 3.52352 25.0436 3.52352 24.9803 3.54812C24.9548 3.60892 24.9548 3.67691 24.9803 3.73772V4.49613C24.3344 4.54334 23.7224 4.79314 23.2383 5.20714C23.0321 5.38981 22.8684 5.61235 22.7579 5.86015C22.6475 6.10795 22.5928 6.37541 22.5974 6.64497C22.5805 6.91456 22.628 7.1843 22.7362 7.43352C22.8445 7.68274 23.0106 7.90484 23.2219 8.08279C23.8029 8.48871 24.4712 8.76408 25.1775 8.88861C25.7144 9.02554 26.1198 9.14141 26.3937 9.23621C26.626 9.30617 26.8393 9.4249 27.0181 9.58382C27.0839 9.64827 27.1354 9.72495 27.1693 9.80917C27.2032 9.89339 27.2189 9.98338 27.2153 10.0736C27.2174 10.2124 27.1822 10.3492 27.1131 10.471C27.044 10.5928 26.9434 10.6954 26.8209 10.7688C26.4598 10.9603 26.0491 11.0481 25.6377 11.0216C25.253 11.0408 24.8708 10.953 24.5366 10.7688C24.2917 10.629 24.1055 10.4109 24.0107 10.1526C23.9741 10.0902 23.9236 10.0363 23.8628 9.99463C23.7932 9.97394 23.7188 9.97394 23.6492 9.99463H22.5646C22.5065 9.97262 22.4419 9.97262 22.3838 9.99463C22.3635 10.0455 22.3635 10.1018 22.3838 10.1526C22.3999 10.4918 22.5137 10.82 22.7125 11.1006C22.9026 11.441 23.1797 11.7292 23.5177 11.9381Z" fill="#FB5A5B"/>
<path d="M25.4999 16.7661C23.8187 16.7661 22.1753 16.2744 20.7775 15.3533C19.3796 14.4321 18.2902 13.1229 17.6468 11.5911C17.0035 10.0593 16.8351 8.37373 17.1631 6.74758C17.4911 5.12144 18.3006 3.62772 19.4894 2.45534C20.6782 1.28295 22.1927 0.484542 23.8416 0.161081C25.4905 -0.16238 27.1995 0.00363221 28.7527 0.638124C30.3059 1.27262 31.6335 2.34709 32.5675 3.72567C33.5015 5.10425 34 6.72502 34 8.38303C33.996 10.6051 33.0991 12.7351 31.5059 14.3063C29.9127 15.8776 27.753 16.7621 25.4999 16.7661ZM25.4999 1.50234C24.1243 1.50531 22.7805 1.91012 21.638 2.66567C20.4955 3.42122 19.6056 4.49364 19.0806 5.74756C18.5556 7.00148 18.419 8.3807 18.6881 9.7111C18.9572 11.0415 19.6199 12.2635 20.5926 13.2228C21.5652 14.182 22.8043 14.8356 24.1533 15.101C25.5023 15.3664 26.9007 15.2317 28.1722 14.7139C29.4436 14.1961 30.531 13.3185 31.2971 12.1917C32.0632 11.065 32.4737 9.73965 32.4767 8.38303C32.4787 7.47889 32.2996 6.58326 31.9497 5.74756C31.5998 4.91186 31.086 4.15256 30.4377 3.51323C29.7895 2.8739 29.0195 2.36715 28.1722 2.02207C27.3248 1.67698 26.4167 1.50036 25.4999 1.50234Z" fill="#FB5A5B"/>
<path d="M14.2596 9.16559H2.71064L4.72119 11.1003C4.85585 11.2438 4.92753 11.4307 4.92157 11.6228C4.9156 11.8148 4.83244 11.9973 4.6891 12.1332C4.54575 12.269 4.35306 12.3478 4.15043 12.3535C3.9478 12.3591 3.75055 12.2912 3.59902 12.1636L0.232512 8.94407C0.161928 8.87583 0.106308 8.79502 0.0688565 8.7063C0.0314063 8.61758 0.0128681 8.52272 0.0143134 8.42717C-0.00423643 8.33447 -0.00423643 8.23928 0.0143134 8.14657C0.0653936 8.04376 0.139917 7.95296 0.232512 7.88074L3.6146 4.60216C3.76613 4.47456 3.96339 4.40663 4.16602 4.41229C4.36865 4.41794 4.56134 4.49674 4.70468 4.63256C4.84803 4.76839 4.93119 4.95098 4.93715 5.14299C4.94312 5.33499 4.87143 5.5219 4.73677 5.66548L2.67946 7.61491H14.2596C14.375 7.59294 14.4941 7.59551 14.6082 7.62244C14.7224 7.64937 14.8289 7.69998 14.9199 7.77063C15.0109 7.84128 15.0843 7.93019 15.1346 8.03096C15.185 8.13173 15.2111 8.24184 15.2111 8.35333C15.2111 8.46483 15.185 8.57493 15.1346 8.6757C15.0843 8.77647 15.0109 8.86539 14.9199 8.93603C14.8289 9.00668 14.7224 9.05729 14.6082 9.08422C14.4941 9.11115 14.375 9.11372 14.2596 9.09175V9.16559Z" fill="#FB5A5B"/>
</svg>
