<svg width="17" height="22" viewBox="0 0 17 22" fill="none" xmlns="http://www.w3.org/2000/svg">
<path fill-rule="evenodd" clip-rule="evenodd" d="M4.42155 7.4375H12.5784C13.1385 7.43748 13.6217 7.43747 14.0197 7.46998C14.4398 7.5043 14.8576 7.58008 15.2596 7.78492C15.8593 8.09052 16.347 8.57814 16.6526 9.17791C16.8574 9.57993 16.9332 9.99773 16.9675 10.4178C17 10.8157 17 11.299 17 11.859V16.8286C17 17.3886 17 17.8718 16.9675 18.2697C16.9332 18.6898 16.8574 19.1076 16.6526 19.5096C16.347 20.1094 15.8593 20.597 15.2596 20.9026C14.8576 21.1074 14.4398 21.1832 14.0197 21.2175C13.6217 21.25 13.1385 21.25 12.5784 21.25H4.42154C3.86145 21.25 3.37826 21.25 2.98028 21.2175C2.56023 21.1832 2.14243 21.1074 1.74041 20.9026C1.14064 20.597 0.653016 20.1094 0.34742 19.5096C0.142576 19.1076 0.0668031 18.6898 0.0324833 18.2697C-3.17599e-05 17.8717 -1.6677e-05 17.3885 8.06837e-07 16.8285V11.859C-1.6677e-05 11.2989 -3.17579e-05 10.8157 0.0324833 10.4178C0.0668031 9.99773 0.142576 9.57993 0.34742 9.17791C0.653016 8.57814 1.14064 8.09052 1.74041 7.78492C2.14243 7.58008 2.56023 7.5043 2.98028 7.46998C3.37825 7.43747 3.86148 7.43748 4.42155 7.4375ZM8.49999 13.8125C7.91319 13.8125 7.43749 14.2882 7.43749 14.875V15.9375C7.43749 16.5243 7.91319 17 8.49999 17C9.08679 17 9.56249 16.5243 9.56249 15.9375V14.875C9.56249 14.2882 9.08679 13.8125 8.49999 13.8125Z" fill="#979797"/>
<path fill-rule="evenodd" clip-rule="evenodd" d="M4.25 4.25C4.25 1.90279 6.15279 0 8.5 0C10.8472 0 12.75 1.90279 12.75 4.25V7.43749H10.625V4.25C10.625 3.07639 9.6736 2.125 8.5 2.125C7.32639 2.125 6.375 3.07639 6.375 4.25V7.43749H4.25V4.25Z" fill="#979797"/>
</svg>
