<svg width="48" height="48" viewBox="0 0 48 48" fill="none" xmlns="http://www.w3.org/2000/svg">
<g clip-path="url(#clip0_1005_3910)">
<path d="M24 48C37.2548 48 48 37.2548 48 24C48 10.7452 37.2548 0 24 0C10.7452 0 0 10.7452 0 24C0 37.2548 10.7452 48 24 48Z" fill="#566CA2"/>
<g clip-path="url(#clip1_1005_3910)">
<path d="M21.1247 32.4166C21.5619 32.4166 21.9163 32.0621 21.9163 31.6249C21.9163 31.1877 21.5619 30.8333 21.1247 30.8333C20.6874 30.8333 20.333 31.1877 20.333 31.6249C20.333 32.0621 20.6874 32.4166 21.1247 32.4166Z" fill="white" stroke="white" stroke-width="2" stroke-linecap="round" stroke-linejoin="round"/>
<path d="M29.8337 32.4166C30.2709 32.4166 30.6253 32.0621 30.6253 31.6249C30.6253 31.1877 30.2709 30.8333 29.8337 30.8333C29.3964 30.8333 29.042 31.1877 29.042 31.6249C29.042 32.0621 29.3964 32.4166 29.8337 32.4166Z" fill="white" stroke="white" stroke-width="2" stroke-linecap="round" stroke-linejoin="round"/>
<path d="M14.792 15.7917H17.9587L20.0803 26.3922C20.1527 26.7566 20.351 27.0841 20.6405 27.3171C20.9299 27.5501 21.2921 27.6739 21.6637 27.6667H29.3587C29.7302 27.6739 30.0924 27.5501 30.3819 27.3171C30.6713 27.0841 30.8696 26.7566 30.942 26.3922L32.2087 19.7501H18.7503" fill="white"/>
<path d="M14.792 15.7917H17.9587L20.0803 26.3922C20.1527 26.7566 20.351 27.084 20.6405 27.3171C20.9299 27.5501 21.2921 27.6739 21.6637 27.6667H29.3587C29.7302 27.6739 30.0924 27.5501 30.3819 27.3171C30.6713 27.084 30.8696 26.7566 30.942 26.3922L32.2087 19.7501H18.7503" stroke="white" stroke-width="2" stroke-linecap="round" stroke-linejoin="round"/>
</g>
</g>
<defs>
<clipPath id="clip0_1005_3910">
<rect width="48" height="48" fill="white"/>
</clipPath>
<clipPath id="clip1_1005_3910">
<rect width="19" height="19" fill="white" transform="translate(14 15)"/>
</clipPath>
</defs>
</svg>
