<svg width="48" height="40" viewBox="0 0 48 40" fill="none" xmlns="http://www.w3.org/2000/svg">
<path d="M13.3333 9H21.3333C21.4217 9 21.5065 9.03512 21.569 9.09763C21.6315 9.16014 21.6667 9.24493 21.6667 9.33333V17.3333C21.6667 17.4217 21.6315 17.5065 21.569 17.569C21.5065 17.6315 21.4217 17.6667 21.3333 17.6667H13.3333C13.2449 17.6667 13.1601 17.6315 13.0976 17.569C13.0351 17.5065 13 17.4217 13 17.3333V9.33333C13 9.24493 13.0351 9.16014 13.0976 9.09763C13.1601 9.03512 13.2449 9 13.3333 9ZM26.431 22.431C26.4935 22.3685 26.5783 22.3333 26.6667 22.3333H34.6667C34.7551 22.3333 34.8399 22.3685 34.9024 22.431C34.9649 22.4935 35 22.5783 35 22.6667V30.6667C35 30.7551 34.9649 30.8399 34.9024 30.9024C34.8399 30.9649 34.7551 31 34.6667 31H26.6667C26.5783 31 26.4935 30.9649 26.431 30.9024C26.3685 30.8399 26.3333 30.7551 26.3333 30.6667V22.6667C26.3333 22.5783 26.3685 22.4935 26.431 22.431ZM26.3333 13.3333C26.3333 10.9443 28.2776 9 30.6667 9C33.0557 9 35 10.9443 35 13.3333C35 15.7224 33.0557 17.6667 30.6667 17.6667C28.2776 17.6667 26.3333 15.7224 26.3333 13.3333ZM13 26.6667C13 24.2776 14.9443 22.3333 17.3333 22.3333C19.7224 22.3333 21.6667 24.2776 21.6667 26.6667C21.6667 29.0557 19.7224 31 17.3333 31C14.9443 31 13 29.0557 13 26.6667Z" stroke="#484C52" stroke-width="2"/>
</svg>
