<svg width="49" height="49" viewBox="0 0 49 49" fill="none" xmlns="http://www.w3.org/2000/svg">
<g clip-path="url(#clip0_592_242)">
<circle cx="23.7344" cy="23.7344" r="23.7344" fill="#566CA2"/>
<g clip-path="url(#clip1_592_242)">
<path d="M32.4518 30.8587L27.9518 23.2407V13.5137H29.9518C30.217 13.5137 30.4714 13.4083 30.6589 13.2208C30.8465 13.0332 30.9518 12.7789 30.9518 12.5137C30.9518 12.2485 30.8465 11.9941 30.6589 11.8066C30.4714 11.619 30.217 11.5137 29.9518 11.5137H17.9518C17.6866 11.5137 17.4322 11.619 17.2447 11.8066C17.0572 11.9941 16.9518 12.2485 16.9518 12.5137C16.9518 12.7789 17.0572 13.0332 17.2447 13.2208C17.4322 13.4083 17.6866 13.5137 17.9518 13.5137H19.9518V23.2407L15.4918 30.7957C15.1781 31.2447 14.9934 31.771 14.9576 32.3176C14.9218 32.8642 15.0363 33.4101 15.2887 33.8963C15.5412 34.3824 15.9219 34.7901 16.3896 35.0752C16.8573 35.3603 17.3941 35.512 17.9418 35.5137H29.9578C30.4992 35.5122 31.0301 35.3642 31.4942 35.0855C31.9583 34.8068 32.3383 34.4077 32.594 33.9305C32.8497 33.4533 32.9715 32.9158 32.9464 32.375C32.9214 31.8342 32.7505 31.3102 32.4518 30.8587ZM19.9378 31.8357C19.9378 31.539 20.0258 31.249 20.1906 31.0023C20.3554 30.7556 20.5897 30.5634 20.8638 30.4499C21.1379 30.3363 21.4395 30.3066 21.7305 30.3645C22.0214 30.4224 22.2887 30.5652 22.4985 30.775C22.7083 30.9848 22.8511 31.2521 22.909 31.543C22.9669 31.834 22.9372 32.1356 22.8236 32.4097C22.7101 32.6838 22.5178 32.9181 22.2712 33.0829C22.0245 33.2477 21.7345 33.3357 21.4378 33.3357C21.2408 33.3358 21.0456 33.2971 20.8635 33.2218C20.6814 33.1465 20.5159 33.036 20.3765 32.8967C20.2371 32.7574 20.1265 32.592 20.0511 32.4099C19.9756 32.2279 19.9378 32.0327 19.9378 31.8357ZM24.6578 29.3187C24.6578 29.1209 24.7165 28.9276 24.8263 28.7631C24.9362 28.5987 25.0924 28.4705 25.2751 28.3948C25.4579 28.3191 25.6589 28.2993 25.8529 28.3379C26.0469 28.3765 26.2251 28.4717 26.3649 28.6116C26.5048 28.7514 26.6 28.9296 26.6386 29.1236C26.6772 29.3176 26.6574 29.5186 26.5817 29.7014C26.506 29.8841 26.3778 30.0403 26.2134 30.1501C26.0489 30.26 25.8556 30.3187 25.6578 30.3187C25.5264 30.3188 25.3963 30.293 25.2748 30.2428C25.1534 30.1926 25.043 30.119 24.9501 30.0261C24.8571 29.9333 24.7834 29.823 24.733 29.7016C24.6827 29.5802 24.6568 29.4501 24.6568 29.3187H24.6578ZM29.1578 32.4007C29.1578 32.5985 29.0992 32.7918 28.9893 32.9562C28.8794 33.1207 28.7232 33.2489 28.5405 33.3246C28.3578 33.4002 28.1567 33.42 27.9627 33.3815C27.7687 33.3429 27.5906 33.2476 27.4507 33.1078C27.3109 32.9679 27.2156 32.7897 27.177 32.5958C27.1384 32.4018 27.1583 32.2007 27.2339 32.018C27.3096 31.8353 27.4378 31.6791 27.6022 31.5692C27.7667 31.4593 27.96 31.4007 28.1578 31.4007C28.422 31.4023 28.6748 31.5083 28.861 31.6957C29.0473 31.883 29.1518 32.1365 29.1518 32.4007H29.1578ZM21.8108 24.0227C21.9026 23.8687 21.9513 23.6929 21.9518 23.5137V13.5137H25.9518V17.2637H24.1318C23.9329 17.2637 23.7421 17.3427 23.6015 17.4833C23.4608 17.624 23.3818 17.8148 23.3818 18.0137C23.3818 18.2126 23.4608 18.4033 23.6015 18.544C23.7421 18.6847 23.9329 18.7637 24.1318 18.7637H25.9518V20.7637H24.1318C23.9329 20.7637 23.7421 20.8427 23.6015 20.9833C23.4608 21.124 23.3818 21.3148 23.3818 21.5137C23.3818 21.7126 23.4608 21.9033 23.6015 22.044C23.7421 22.1847 23.9329 22.2637 24.1318 22.2637H25.9518V23.5137C25.9517 23.6927 25.9998 23.8685 26.0908 24.0227L27.9318 27.1367C27.9542 27.1746 27.9662 27.2178 27.9665 27.2619C27.9668 27.3059 27.9555 27.3493 27.9336 27.3875C27.9118 27.4258 27.8803 27.4576 27.8422 27.4798C27.8041 27.5019 27.7609 27.5136 27.7168 27.5137H20.1868C20.1428 27.5136 20.0995 27.5019 20.0614 27.4798C20.0234 27.4576 19.9918 27.4258 19.97 27.3875C19.9482 27.3493 19.9368 27.3059 19.9372 27.2619C19.9375 27.2178 19.9494 27.1746 19.9718 27.1367L21.8108 24.0227Z" fill="white"/>
</g>
</g>
<defs>
<clipPath id="clip0_592_242">
<rect width="49" height="49" fill="white"/>
</clipPath>
<clipPath id="clip1_592_242">
<rect width="24" height="24" fill="white" transform="translate(11.9517 11.5137)"/>
</clipPath>
</defs>
</svg>
