<svg width="185" height="37" viewBox="0 0 185 37" fill="none" xmlns="http://www.w3.org/2000/svg">
<path d="M97.4882 10.9441C96.7596 10.9441 96.101 10.7806 95.5124 10.4537C94.9239 10.1174 94.4614 9.65027 94.1251 9.05238C93.7888 8.44515 93.6207 7.74451 93.6207 6.95044C93.6207 6.16571 93.7935 5.46974 94.1391 4.86251C94.4848 4.25528 94.9566 3.78818 95.5544 3.46121C96.1523 3.13425 96.8203 2.97076 97.5583 2.97076C98.2963 2.97076 98.9643 3.13425 99.5622 3.46121C100.16 3.78818 100.632 4.25528 100.977 4.86251C101.323 5.46974 101.496 6.16571 101.496 6.95044C101.496 7.73516 101.318 8.43114 100.963 9.03837C100.608 9.64559 100.123 10.1174 99.5061 10.4537C98.8989 10.7806 98.2263 10.9441 97.4882 10.9441ZM97.4882 9.55685C97.8993 9.55685 98.2823 9.45876 98.6373 9.26257C99.0016 9.06639 99.2959 8.77212 99.5201 8.37976C99.7443 7.9874 99.8564 7.51096 99.8564 6.95044C99.8564 6.38992 99.749 5.91815 99.5341 5.53513C99.3193 5.14277 99.0343 4.8485 98.6793 4.65231C98.3243 4.45613 97.9413 4.35804 97.5303 4.35804C97.1192 4.35804 96.7362 4.45613 96.3812 4.65231C96.0356 4.8485 95.76 5.14277 95.5544 5.53513C95.3489 5.91815 95.2462 6.38992 95.2462 6.95044C95.2462 7.78187 95.4564 8.42647 95.8768 8.88422C96.3065 9.33264 96.8436 9.55685 97.4882 9.55685Z" fill="#181D27"/>
<path d="M92.7231 4.40006H91.2938V10.818H89.6823V4.40006H88.7715V3.09686H89.6823V2.55036C89.6823 1.66287 89.9158 1.01827 90.3829 0.616569C90.8594 0.205523 91.6021 0 92.611 0V1.33123C92.1252 1.33123 91.7842 1.42465 91.5881 1.61149C91.3919 1.78899 91.2938 2.10194 91.2938 2.55036V3.09686H92.7231V4.40006Z" fill="#181D27"/>
<path d="M84.2814 2.97076C84.8886 2.97076 85.4304 3.09688 85.9069 3.34911C86.3927 3.60134 86.771 3.97502 87.0419 4.47015C87.3128 4.96527 87.4483 5.56316 87.4483 6.2638V10.818H85.8648V6.50202C85.8648 5.81072 85.692 5.2829 85.3464 4.91856C85.0007 4.54488 84.5289 4.35804 83.9311 4.35804C83.3332 4.35804 82.8567 4.54488 82.5017 4.91856C82.1561 5.2829 81.9833 5.81072 81.9833 6.50202V10.818H80.3858V3.09688H81.9833V3.97969C82.2448 3.66207 82.5765 3.4145 82.9782 3.23701C83.3892 3.05951 83.8236 2.97076 84.2814 2.97076Z" fill="#181D27"/>
<path d="M78.2884 1.07888V10.8179H76.691V1.07888H78.2884Z" fill="#181D27"/>
<path d="M71.8452 3.09685L67.1088 14.4473H65.4553L67.0247 10.6919L63.9839 3.09685H65.7636L67.9356 8.98229L70.1916 3.09685H71.8452Z" fill="#181D27"/>
<path d="M55.9599 6.95044C55.9599 6.15637 56.1187 5.4604 56.4363 4.86251C56.7633 4.25528 57.2117 3.78818 57.7816 3.46121C58.3514 3.13425 59.0054 2.97076 59.7434 2.97076C60.6776 2.97076 61.4483 3.19497 62.0555 3.64338C62.6721 4.08246 63.0878 4.71304 63.3027 5.53513H61.5791C61.439 5.15211 61.2147 4.85317 60.9065 4.6383C60.5982 4.42344 60.2105 4.316 59.7434 4.316C59.0895 4.316 58.5663 4.54955 58.1739 5.01665C57.7909 5.47441 57.5994 6.119 57.5994 6.95044C57.5994 7.78187 57.7909 8.43114 58.1739 8.89824C58.5663 9.36534 59.0895 9.59888 59.7434 9.59888C60.6682 9.59888 61.2801 9.19251 61.5791 8.37976H63.3027C63.0785 9.16448 62.6581 9.79039 62.0415 10.2575C61.4249 10.7152 60.6589 10.9441 59.7434 10.9441C59.0054 10.9441 58.3514 10.7806 57.7816 10.4537C57.2117 10.1174 56.7633 9.65027 56.4363 9.05238C56.1187 8.44515 55.9599 7.74451 55.9599 6.95044Z" fill="#181D27"/>
<path d="M46.4628 6.92241C46.4628 6.14703 46.6217 5.4604 46.9393 4.86251C47.2662 4.26462 47.7053 3.8022 48.2565 3.47523C48.817 3.13892 49.4336 2.97076 50.1062 2.97076C50.7134 2.97076 51.2413 3.09221 51.6897 3.3351C52.1474 3.56865 52.5118 3.86292 52.7827 4.21791V3.09688H54.3942V10.818H52.7827V9.66895C52.5118 10.0333 52.1428 10.3369 51.6757 10.5798C51.2086 10.8227 50.6761 10.9441 50.0782 10.9441C49.4149 10.9441 48.8077 10.776 48.2565 10.4397C47.7053 10.094 47.2662 9.61757 46.9393 9.01034C46.6217 8.39377 46.4628 7.6978 46.4628 6.92241ZM52.7827 6.95044C52.7827 6.41795 52.6706 5.95552 52.4464 5.56316C52.2315 5.17079 51.9466 4.87185 51.5916 4.66633C51.2366 4.46081 50.8536 4.35804 50.4425 4.35804C50.0315 4.35804 49.6485 4.46081 49.2935 4.66633C48.9385 4.86251 48.6489 5.15678 48.4247 5.54914C48.2098 5.93216 48.1024 6.38992 48.1024 6.92241C48.1024 7.4549 48.2098 7.922 48.4247 8.32371C48.6489 8.72541 48.9385 9.0337 49.2935 9.24856C49.6578 9.45408 50.0408 9.55685 50.4425 9.55685C50.8536 9.55685 51.2366 9.45408 51.5916 9.24856C51.9466 9.04304 52.2315 8.7441 52.4464 8.35173C52.6706 7.95003 52.7827 7.48293 52.7827 6.95044Z" fill="#181D27"/>
<path d="M41.7819 2.97076C42.3891 2.97076 42.9309 3.09688 43.4074 3.34911C43.8932 3.60134 44.2715 3.97502 44.5424 4.47015C44.8227 4.96527 44.9628 5.56316 44.9628 6.2638V10.818H43.3793V6.50202C43.3793 5.81072 43.2065 5.2829 42.8609 4.91856C42.5152 4.54488 42.0434 4.35804 41.4456 4.35804C40.8477 4.35804 40.3712 4.54488 40.0162 4.91856C39.6706 5.2829 39.4978 5.81072 39.4978 6.50202V10.818H37.9143V6.50202C37.9143 5.81072 37.7415 5.2829 37.3958 4.91856C37.0502 4.54488 36.5784 4.35804 35.9805 4.35804C35.3826 4.35804 34.9062 4.54488 34.5512 4.91856C34.2055 5.2829 34.0327 5.81072 34.0327 6.50202V10.818H32.4352V3.09688H34.0327V3.97969C34.2943 3.66207 34.6259 3.4145 35.0276 3.23701C35.4293 3.05951 35.8591 2.97076 36.3168 2.97076C36.9334 2.97076 37.4846 3.10155 37.9704 3.36312C38.4561 3.6247 38.8298 4.00305 39.0914 4.49817C39.3249 4.03107 39.6893 3.66207 40.1844 3.39115C40.6795 3.11089 41.212 2.97076 41.7819 2.97076Z" fill="#181D27"/>
<path d="M28.6547 4.21791C28.8882 3.82555 29.1965 3.52194 29.5796 3.30707C29.9719 3.08287 30.4343 2.97076 30.9668 2.97076V4.62429H30.5605C29.9345 4.62429 29.4581 4.7831 29.1311 5.10073C28.8135 5.41836 28.6547 5.96953 28.6547 6.75426V10.818H27.0572V3.09688H28.6547V4.21791Z" fill="#181D27"/>
<path d="M17.0274 6.92241C17.0274 6.14703 17.1863 5.4604 17.5039 4.86251C17.8309 4.26462 18.2699 3.8022 18.8211 3.47523C19.3816 3.13892 19.9982 2.97076 20.6708 2.97076C21.278 2.97076 21.8059 3.09221 22.2543 3.3351C22.712 3.56865 23.0764 3.86292 23.3473 4.21791V3.09688H24.9588V10.818H23.3473V9.66895C23.0764 10.0333 22.7074 10.3369 22.2403 10.5798C21.7732 10.8227 21.2407 10.9441 20.6428 10.9441C19.9795 10.9441 19.3723 10.776 18.8211 10.4397C18.2699 10.094 17.8309 9.61757 17.5039 9.01034C17.1863 8.39377 17.0274 7.6978 17.0274 6.92241ZM23.3473 6.95044C23.3473 6.41795 23.2352 5.95552 23.011 5.56316C22.7961 5.17079 22.5112 4.87185 22.1562 4.66633C21.8012 4.46081 21.4182 4.35804 21.0071 4.35804C20.5961 4.35804 20.2131 4.46081 19.8581 4.66633C19.5031 4.86251 19.2135 5.15678 18.9893 5.54914C18.7744 5.93216 18.667 6.38992 18.667 6.92241C18.667 7.4549 18.7744 7.922 18.9893 8.32371C19.2135 8.72541 19.5031 9.0337 19.8581 9.24856C20.2224 9.45408 20.6054 9.55685 21.0071 9.55685C21.4182 9.55685 21.8012 9.45408 22.1562 9.24856C22.5112 9.04304 22.7961 8.7441 23.011 8.35173C23.2352 7.95003 23.3473 7.48293 23.3473 6.95044Z" fill="#181D27"/>
<path d="M12.4537 2.97074C13.0422 2.97074 13.5653 3.09686 14.0231 3.34909C14.4902 3.60132 14.8545 3.975 15.1161 4.47013C15.387 4.96525 15.5225 5.56314 15.5225 6.26378V10.818H13.939V6.502C13.939 5.8107 13.7662 5.28288 13.4205 4.91854C13.0749 4.54486 12.6031 4.35802 12.0052 4.35802C11.4074 4.35802 10.9309 4.54486 10.5759 4.91854C10.2303 5.28288 10.0574 5.8107 10.0574 6.502V10.818H8.45996V0.448412H10.0574V3.99369C10.3284 3.66672 10.6693 3.41449 11.0804 3.23699C11.5008 3.05949 11.9585 2.97074 12.4537 2.97074Z" fill="#181D27"/>
<path d="M6.93638 3.97956C6.93638 4.47468 6.81961 4.94178 6.58606 5.38085C6.35251 5.81992 5.97883 6.17959 5.46503 6.45985C4.95122 6.73077 4.29261 6.86622 3.4892 6.86622H1.72357V10.8179H0.126093V1.07888H3.4892C4.23656 1.07888 4.86714 1.20966 5.38095 1.47124C5.9041 1.72347 6.29179 2.06913 6.54402 2.5082C6.8056 2.94727 6.93638 3.43772 6.93638 3.97956ZM3.4892 5.56302C4.09643 5.56302 4.54951 5.42756 4.84846 5.15664C5.1474 4.87639 5.29687 4.48402 5.29687 3.97956C5.29687 2.91457 4.69431 2.38208 3.4892 2.38208H1.72357V5.56302H3.4892Z" fill="#181D27"/>
<path d="M183.282 27.4378V31.3174C183.282 31.6377 183.35 31.8659 183.486 32.002C183.623 32.1301 183.859 32.1942 184.195 32.1942H185V33.119H184.015C183.406 33.119 182.95 32.9789 182.646 32.6987C182.341 32.4184 182.189 31.958 182.189 31.3174V27.4378H181.336V26.537H182.189V24.8794H183.282V26.537H185V27.4378H183.282Z" fill="#ABABAB"/>
<path d="M177.473 26.417C178.274 26.417 178.923 26.6612 179.419 27.1497C179.916 27.6301 180.164 28.3267 180.164 29.2396V33.1192H179.083V29.3957C179.083 28.7391 178.919 28.2387 178.59 27.8943C178.262 27.542 177.814 27.3659 177.245 27.3659C176.669 27.3659 176.208 27.546 175.864 27.9064C175.528 28.2667 175.359 28.7912 175.359 29.4798V33.1192H174.266V26.5371H175.359V27.474C175.576 27.1376 175.868 26.8774 176.236 26.6932C176.613 26.5091 177.025 26.417 177.473 26.417Z" fill="#ABABAB"/>
<path d="M172.421 26.537V33.119H171.328V32.1461C171.12 32.4825 170.828 32.7467 170.452 32.9389C170.083 33.123 169.675 33.2151 169.226 33.2151C168.714 33.2151 168.254 33.111 167.845 32.9028C167.437 32.6866 167.112 32.3664 166.872 31.942C166.64 31.5176 166.524 31.0011 166.524 30.3925V26.537H167.605V30.2484C167.605 30.897 167.769 31.3975 168.097 31.7498C168.426 32.0941 168.874 32.2663 169.443 32.2663C170.027 32.2663 170.488 32.0861 170.824 31.7258C171.16 31.3654 171.328 30.8409 171.328 30.1523V26.537H172.421Z" fill="#ABABAB"/>
<path d="M161.771 33.2272C161.155 33.2272 160.594 33.0871 160.09 32.8068C159.593 32.5266 159.201 32.1302 158.913 31.6177C158.632 31.0973 158.492 30.4967 158.492 29.8161C158.492 29.1435 158.636 28.5509 158.925 28.0384C159.221 27.518 159.621 27.1216 160.126 26.8493C160.63 26.5691 161.195 26.429 161.819 26.429C162.444 26.429 163.008 26.5691 163.513 26.8493C164.017 27.1216 164.414 27.514 164.702 28.0264C164.998 28.5389 165.146 29.1355 165.146 29.8161C165.146 30.4967 164.994 31.0973 164.69 31.6177C164.394 32.1302 163.989 32.5266 163.477 32.8068C162.964 33.0871 162.396 33.2272 161.771 33.2272ZM161.771 32.2663C162.164 32.2663 162.532 32.1743 162.876 31.9901C163.22 31.8059 163.497 31.5297 163.705 31.1613C163.921 30.793 164.029 30.3446 164.029 29.8161C164.029 29.2876 163.925 28.8392 163.717 28.4708C163.509 28.1025 163.236 27.8303 162.9 27.6541C162.564 27.4699 162.2 27.3778 161.807 27.3778C161.407 27.3778 161.038 27.4699 160.702 27.6541C160.374 27.8303 160.11 28.1025 159.909 28.4708C159.709 28.8392 159.609 29.2876 159.609 29.8161C159.609 30.3526 159.705 30.805 159.897 31.1733C160.098 31.5417 160.362 31.8179 160.69 32.0021C161.018 32.1783 161.379 32.2663 161.771 32.2663Z" fill="#ABABAB"/>
<path d="M151.196 29.8161C151.196 29.1355 151.332 28.5429 151.605 28.0384C151.877 27.526 152.253 27.1296 152.734 26.8493C153.222 26.5691 153.779 26.429 154.403 26.429C155.212 26.429 155.877 26.6251 156.397 27.0175C156.926 27.4099 157.274 27.9544 157.442 28.651H156.265C156.153 28.2506 155.933 27.9343 155.604 27.7021C155.284 27.4699 154.884 27.3538 154.403 27.3538C153.779 27.3538 153.274 27.57 152.89 28.0024C152.506 28.4268 152.313 29.0314 152.313 29.8161C152.313 30.6088 152.506 31.2214 152.89 31.6538C153.274 32.0862 153.779 32.3024 154.403 32.3024C154.884 32.3024 155.284 32.1903 155.604 31.9661C155.925 31.7419 156.145 31.4216 156.265 31.0052H157.442C157.266 31.6778 156.914 32.2183 156.385 32.6267C155.857 33.0271 155.196 33.2272 154.403 33.2272C153.779 33.2272 153.222 33.0871 152.734 32.8068C152.253 32.5266 151.877 32.1302 151.605 31.6177C151.332 31.1053 151.196 30.5047 151.196 29.8161Z" fill="#ABABAB"/>
<path d="M143.901 29.8161C143.901 29.1355 144.037 28.5429 144.309 28.0384C144.581 27.526 144.957 27.1296 145.438 26.8493C145.926 26.5691 146.483 26.429 147.107 26.429C147.916 26.429 148.581 26.6251 149.101 27.0175C149.63 27.4099 149.978 27.9544 150.146 28.651H148.969C148.857 28.2506 148.637 27.9343 148.309 27.7021C147.988 27.4699 147.588 27.3538 147.107 27.3538C146.483 27.3538 145.978 27.57 145.594 28.0024C145.21 28.4268 145.018 29.0314 145.018 29.8161C145.018 30.6088 145.21 31.2214 145.594 31.6538C145.978 32.0862 146.483 32.3024 147.107 32.3024C147.588 32.3024 147.988 32.1903 148.309 31.9661C148.629 31.7419 148.849 31.4216 148.969 31.0052H150.146C149.97 31.6778 149.618 32.2183 149.089 32.6267C148.561 33.0271 147.9 33.2272 147.107 33.2272C146.483 33.2272 145.926 33.0871 145.438 32.8068C144.957 32.5266 144.581 32.1302 144.309 31.6177C144.037 31.1053 143.901 30.5047 143.901 29.8161Z" fill="#ABABAB"/>
<path d="M135.784 29.8041C135.784 29.1315 135.92 28.5429 136.192 28.0384C136.464 27.526 136.837 27.1296 137.309 26.8493C137.789 26.5691 138.322 26.429 138.907 26.429C139.483 26.429 139.984 26.5531 140.408 26.8013C140.832 27.0495 141.149 27.3618 141.357 27.7382V26.5371H142.462V33.1191H141.357V31.894C141.141 32.2784 140.816 32.5987 140.384 32.8549C139.959 33.1031 139.463 33.2272 138.894 33.2272C138.31 33.2272 137.781 33.0831 137.309 32.7948C136.837 32.5066 136.464 32.1022 136.192 31.5817C135.92 31.0612 135.784 30.4687 135.784 29.8041ZM141.357 29.8161C141.357 29.3196 141.257 28.8872 141.056 28.5189C140.856 28.1505 140.584 27.8703 140.24 27.6781C139.903 27.4779 139.531 27.3778 139.123 27.3778C138.714 27.3778 138.342 27.4739 138.006 27.6661C137.669 27.8583 137.401 28.1385 137.201 28.5069C137.001 28.8752 136.901 29.3076 136.901 29.8041C136.901 30.3085 137.001 30.7489 137.201 31.1253C137.401 31.4936 137.669 31.7779 138.006 31.9781C138.342 32.1703 138.714 32.2663 139.123 32.2663C139.531 32.2663 139.903 32.1703 140.24 31.9781C140.584 31.7779 140.856 31.4936 141.056 31.1253C141.257 30.7489 141.357 30.3125 141.357 29.8161Z" fill="#ABABAB"/>
<path d="M129.602 27.6061C129.795 27.2297 130.067 26.9375 130.419 26.7293C130.779 26.5211 131.216 26.417 131.728 26.417V27.546H131.44C130.215 27.546 129.602 28.2106 129.602 29.5399V33.1192H128.509V26.5371H129.602V27.6061Z" fill="#ABABAB"/>
<path d="M126.664 26.537V33.119H125.571V32.1461C125.363 32.4825 125.071 32.7467 124.694 32.9389C124.326 33.123 123.918 33.2151 123.469 33.2151C122.957 33.2151 122.496 33.111 122.088 32.9028C121.68 32.6866 121.355 32.3664 121.115 31.942C120.883 31.5176 120.767 31.0011 120.767 30.3925V26.537H121.848V30.2484C121.848 30.897 122.012 31.3975 122.34 31.7498C122.669 32.0941 123.117 32.2663 123.686 32.2663C124.27 32.2663 124.731 32.0861 125.067 31.7258C125.403 31.3654 125.571 30.8409 125.571 30.1523V26.537H126.664Z" fill="#ABABAB"/>
<path d="M116.014 33.2272C115.397 33.2272 114.837 33.0871 114.332 32.8068C113.836 32.5266 113.444 32.1302 113.155 31.6177C112.875 31.0973 112.735 30.4967 112.735 29.8161C112.735 29.1435 112.879 28.5509 113.167 28.0384C113.464 27.518 113.864 27.1216 114.369 26.8493C114.873 26.5691 115.438 26.429 116.062 26.429C116.687 26.429 117.251 26.5691 117.756 26.8493C118.26 27.1216 118.656 27.514 118.945 28.0264C119.241 28.5389 119.389 29.1355 119.389 29.8161C119.389 30.4967 119.237 31.0973 118.933 31.6177C118.636 32.1302 118.232 32.5266 117.72 32.8068C117.207 33.0871 116.639 33.2272 116.014 33.2272ZM116.014 32.2663C116.406 32.2663 116.775 32.1743 117.119 31.9901C117.463 31.8059 117.74 31.5297 117.948 31.1613C118.164 30.793 118.272 30.3446 118.272 29.8161C118.272 29.2876 118.168 28.8392 117.96 28.4708C117.752 28.1025 117.479 27.8303 117.143 27.6541C116.807 27.4699 116.442 27.3778 116.05 27.3778C115.65 27.3778 115.281 27.4699 114.945 27.6541C114.617 27.8303 114.352 28.1025 114.152 28.4708C113.952 28.8392 113.852 29.2876 113.852 29.8161C113.852 30.3526 113.948 30.805 114.14 31.1733C114.34 31.5417 114.605 31.8179 114.933 32.0021C115.261 32.1783 115.622 32.2663 116.014 32.2663Z" fill="#ABABAB"/>
<path d="M112.045 26.537L108.081 36.2179H106.952L108.249 33.047L105.595 26.537H106.808L108.874 31.8699L110.916 26.537H112.045Z" fill="#ABABAB"/>
<path d="M98.361 33.2272C97.7444 33.2272 97.1839 33.0871 96.6795 32.8068C96.183 32.5266 95.7906 32.1302 95.5024 31.6177C95.2221 31.0973 95.082 30.4967 95.082 29.8161C95.082 29.1435 95.2261 28.5509 95.5144 28.0384C95.8106 27.518 96.211 27.1216 96.7155 26.8493C97.22 26.5691 97.7845 26.429 98.4091 26.429C99.0336 26.429 99.5981 26.5691 100.103 26.8493C100.607 27.1216 101.003 27.514 101.292 28.0264C101.588 28.5389 101.736 29.1355 101.736 29.8161C101.736 30.4967 101.584 31.0973 101.28 31.6177C100.983 32.1302 100.579 32.5266 100.067 32.8068C99.5541 33.0871 98.9856 33.2272 98.361 33.2272ZM98.361 32.2663C98.7534 32.2663 99.1217 32.1743 99.466 31.9901C99.8103 31.8059 100.087 31.5297 100.295 31.1613C100.511 30.793 100.619 30.3446 100.619 29.8161C100.619 29.2876 100.515 28.8392 100.307 28.4708C100.099 28.1025 99.8264 27.8303 99.49 27.6541C99.1537 27.4699 98.7894 27.3778 98.397 27.3778C97.9967 27.3778 97.6283 27.4699 97.292 27.6541C96.9637 27.8303 96.6995 28.1025 96.4993 28.4708C96.2991 28.8392 96.199 29.2876 96.199 29.8161C96.199 30.3526 96.2951 30.805 96.4873 31.1733C96.6875 31.5417 96.9517 31.8179 97.28 32.0021C97.6083 32.1783 97.9686 32.2663 98.361 32.2663Z" fill="#ABABAB"/>
<path d="M92.4483 27.4378V31.3174C92.4483 31.6377 92.5164 31.8659 92.6525 32.002C92.7887 32.1301 93.0249 32.1942 93.3612 32.1942H94.1659V33.119H93.181C92.5725 33.119 92.116 32.9789 91.8118 32.6987C91.5075 32.4184 91.3553 31.958 91.3553 31.3174V27.4378H90.5025V26.537H91.3553V24.8794H92.4483V26.537H94.1659V27.4378H92.4483Z" fill="#ABABAB"/>
<path d="M83.9677 33.2272C83.4632 33.2272 83.0108 33.1432 82.6105 32.975C82.2101 32.7988 81.8938 32.5586 81.6616 32.2543C81.4294 31.942 81.3013 31.5857 81.2772 31.1853H82.4063C82.4383 31.5137 82.5904 31.7819 82.8627 31.9901C83.143 32.1983 83.5073 32.3024 83.9557 32.3024C84.3721 32.3024 84.7004 32.2103 84.9406 32.0261C85.1808 31.842 85.3009 31.6097 85.3009 31.3295C85.3009 31.0412 85.1728 30.829 84.9166 30.6929C84.6603 30.5488 84.264 30.4086 83.7275 30.2725C83.239 30.1444 82.8387 30.0163 82.5264 29.8882C82.2221 29.752 81.9579 29.5558 81.7336 29.2996C81.5174 29.0354 81.4093 28.691 81.4093 28.2667C81.4093 27.9303 81.5094 27.6221 81.7096 27.3418C81.9098 27.0615 82.1941 26.8413 82.5624 26.6812C82.9308 26.513 83.3511 26.429 83.8236 26.429C84.5523 26.429 85.1408 26.6131 85.5892 26.9815C86.0376 27.3498 86.2778 27.8543 86.3099 28.4949H85.2169C85.1928 28.1505 85.0527 27.8743 84.7965 27.6661C84.5483 27.4579 84.2119 27.3538 83.7875 27.3538C83.3952 27.3538 83.0829 27.4379 82.8507 27.606C82.6185 27.7742 82.5024 27.9944 82.5024 28.2667C82.5024 28.4829 82.5704 28.663 82.7065 28.8072C82.8507 28.9433 83.0268 29.0554 83.235 29.1435C83.4512 29.2235 83.7475 29.3156 84.1239 29.4197C84.5963 29.5478 84.9806 29.676 85.2769 29.8041C85.5732 29.9242 85.8254 30.1084 86.0336 30.3566C86.2498 30.6048 86.3619 30.9291 86.3699 31.3295C86.3699 31.6898 86.2698 32.0141 86.0697 32.3024C85.8695 32.5906 85.5852 32.8189 85.2169 32.987C84.8565 33.1472 84.4401 33.2272 83.9677 33.2272Z" fill="#ABABAB"/>
<path d="M80.195 29.5759C80.195 29.7841 80.183 30.0043 80.1589 30.2365H74.8981C74.9381 30.8851 75.1583 31.3935 75.5587 31.7619C75.9671 32.1222 76.4595 32.3024 77.0361 32.3024C77.5085 32.3024 77.9009 32.1943 78.2131 31.9781C78.5334 31.7539 78.7576 31.4576 78.8858 31.0893H80.0629C79.8867 31.7218 79.5344 32.2383 79.0059 32.6387C78.4774 33.0311 77.8208 33.2272 77.0361 33.2272C76.4115 33.2272 75.851 33.0871 75.3545 32.8068C74.866 32.5266 74.4817 32.1302 74.2014 31.6177C73.9212 31.0973 73.781 30.4967 73.781 29.8161C73.781 29.1355 73.9172 28.5389 74.1894 28.0264C74.4617 27.514 74.842 27.1216 75.3305 26.8493C75.8269 26.5691 76.3955 26.429 77.0361 26.429C77.6606 26.429 78.2131 26.5651 78.6936 26.8373C79.174 27.1096 79.5424 27.4859 79.7986 27.9664C80.0629 28.4388 80.195 28.9753 80.195 29.5759ZM79.0659 29.3477C79.0659 28.9313 78.9738 28.5749 78.7897 28.2787C78.6055 27.9744 78.3533 27.7462 78.033 27.594C77.7207 27.4339 77.3724 27.3538 76.988 27.3538C76.4355 27.3538 75.9631 27.53 75.5707 27.8823C75.1863 28.2346 74.9661 28.7231 74.9101 29.3477H79.0659Z" fill="#ABABAB"/>
<path d="M68.7871 26.429C69.3556 26.429 69.852 26.5531 70.2764 26.8013C70.7088 27.0495 71.0291 27.3618 71.2373 27.7382V26.5371H72.3423V33.2633C72.3423 33.8638 72.2142 34.3963 71.958 34.8607C71.7018 35.3332 71.3334 35.7015 70.853 35.9658C70.3805 36.23 69.828 36.3621 69.1954 36.3621C68.3306 36.3621 67.61 36.1579 67.0334 35.7496C66.4569 35.3412 66.1166 34.7847 66.0125 34.08H67.0935C67.2136 34.4804 67.4618 34.8007 67.8382 35.0409C68.2145 35.2891 68.6669 35.4133 69.1954 35.4133C69.796 35.4133 70.2844 35.2251 70.6608 34.8487C71.0451 34.4724 71.2373 33.9439 71.2373 33.2633V31.882C71.0211 32.2663 70.7008 32.5866 70.2764 32.8429C69.852 33.0991 69.3556 33.2272 68.7871 33.2272C68.2025 33.2272 67.67 33.0831 67.1896 32.7948C66.7171 32.5066 66.3448 32.1022 66.0726 31.5817C65.8003 31.0612 65.6642 30.4687 65.6642 29.8041C65.6642 29.1315 65.8003 28.5429 66.0726 28.0384C66.3448 27.526 66.7171 27.1296 67.1896 26.8493C67.67 26.5691 68.2025 26.429 68.7871 26.429ZM71.2373 29.8161C71.2373 29.3196 71.1372 28.8872 70.937 28.5189C70.7369 28.1505 70.4646 27.8703 70.1203 27.6781C69.784 27.4779 69.4116 27.3778 69.0033 27.3778C68.5949 27.3778 68.2225 27.4739 67.8862 27.6661C67.5499 27.8583 67.2817 28.1385 67.0815 28.5069C66.8813 28.8752 66.7812 29.3076 66.7812 29.8041C66.7812 30.3085 66.8813 30.7489 67.0815 31.1253C67.2817 31.4936 67.5499 31.7779 67.8862 31.9781C68.2225 32.1703 68.5949 32.2663 69.0033 32.2663C69.4116 32.2663 69.784 32.1703 70.1203 31.9781C70.4646 31.7779 70.7369 31.4936 70.937 31.1253C71.1372 30.7489 71.2373 30.3125 71.2373 29.8161Z" fill="#ABABAB"/>
<path d="M61.5968 26.417C62.3976 26.417 63.0462 26.6612 63.5426 27.1497C64.0391 27.6301 64.2873 28.3267 64.2873 29.2396V33.1192H63.2063V29.3957C63.2063 28.7391 63.0422 28.2387 62.7139 27.8943C62.3856 27.542 61.9372 27.3659 61.3686 27.3659C60.7921 27.3659 60.3317 27.546 59.9874 27.9064C59.651 28.2667 59.4829 28.7912 59.4829 29.4798V33.1192H58.3899V26.5371H59.4829V27.474C59.6991 27.1376 59.9914 26.8774 60.3597 26.6932C60.736 26.5091 61.1484 26.417 61.5968 26.417Z" fill="#ABABAB"/>
<path d="M49.8644 29.8041C49.8644 29.1315 50.0005 28.5429 50.2728 28.0384C50.5451 27.526 50.9174 27.1296 51.3898 26.8493C51.8703 26.5691 52.4028 26.429 52.9873 26.429C53.5638 26.429 54.0643 26.5531 54.4887 26.8013C54.9131 27.0495 55.2294 27.3618 55.4376 27.7382V26.5371H56.5426V33.1191H55.4376V31.894C55.2214 32.2784 54.8971 32.5987 54.4647 32.8549C54.0403 33.1031 53.5438 33.2272 52.9753 33.2272C52.3908 33.2272 51.8623 33.0831 51.3898 32.7948C50.9174 32.5066 50.5451 32.1022 50.2728 31.5817C50.0005 31.0612 49.8644 30.4687 49.8644 29.8041ZM55.4376 29.8161C55.4376 29.3196 55.3375 28.8872 55.1373 28.5189C54.9371 28.1505 54.6649 27.8703 54.3205 27.6781C53.9842 27.4779 53.6119 27.3778 53.2035 27.3778C52.7951 27.3778 52.4228 27.4739 52.0865 27.6661C51.7502 27.8583 51.4819 28.1385 51.2817 28.5069C51.0815 28.8752 50.9815 29.3076 50.9815 29.8041C50.9815 30.3085 51.0815 30.7489 51.2817 31.1253C51.4819 31.4936 51.7502 31.7779 52.0865 31.9781C52.4228 32.1703 52.7951 32.2663 53.2035 32.2663C53.6119 32.2663 53.9842 32.1703 54.3205 31.9781C54.6649 31.7779 54.9371 31.4936 55.1373 31.1253C55.3375 30.7489 55.4376 30.3125 55.4376 29.8161Z" fill="#ABABAB"/>
<path d="M45.8571 26.4169C46.3536 26.4169 46.802 26.525 47.2024 26.7412C47.6028 26.9494 47.915 27.2657 48.1393 27.6901C48.3715 28.1145 48.4876 28.6309 48.4876 29.2395V33.1191H47.4066V29.3957C47.4066 28.739 47.2424 28.2386 46.9141 27.8943C46.5858 27.5419 46.1374 27.3658 45.5689 27.3658C44.9923 27.3658 44.5319 27.5459 44.1876 27.9063C43.8513 28.2666 43.6831 28.7911 43.6831 29.4797V33.1191H42.5901V24.2309H43.6831V27.4739C43.8993 27.1376 44.1956 26.8773 44.572 26.6932C44.9563 26.509 45.3847 26.4169 45.8571 26.4169Z" fill="#ABABAB"/>
<path d="M34.8857 29.8161C34.8857 29.1355 35.0219 28.5429 35.2941 28.0384C35.5664 27.526 35.9427 27.1296 36.4232 26.8493C36.9116 26.5691 37.4681 26.429 38.0927 26.429C38.9015 26.429 39.5661 26.6251 40.0865 27.0175C40.615 27.4099 40.9634 27.9544 41.1315 28.651H39.9544C39.8423 28.2506 39.6221 27.9343 39.2938 27.7021C38.9735 27.4699 38.5732 27.3538 38.0927 27.3538C37.4681 27.3538 36.9637 27.57 36.5793 28.0024C36.195 28.4268 36.0028 29.0314 36.0028 29.8161C36.0028 30.6088 36.195 31.2214 36.5793 31.6538C36.9637 32.0862 37.4681 32.3024 38.0927 32.3024C38.5732 32.3024 38.9735 32.1903 39.2938 31.9661C39.6141 31.7419 39.8343 31.4216 39.9544 31.0052H41.1315C40.9554 31.6778 40.603 32.2183 40.0745 32.6267C39.546 33.0271 38.8854 33.2272 38.0927 33.2272C37.4681 33.2272 36.9116 33.0871 36.4232 32.8068C35.9427 32.5266 35.5664 32.1302 35.2941 31.6177C35.0219 31.1053 34.8857 30.5047 34.8857 29.8161Z" fill="#ABABAB"/>
<path d="M30.6492 29.5759C30.6492 29.7841 30.6372 30.0043 30.6132 30.2365H25.3523C25.3923 30.8851 25.6125 31.3935 26.0129 31.7619C26.4213 32.1222 26.9138 32.3024 27.4903 32.3024C27.9627 32.3024 28.3551 32.1943 28.6674 31.9781C28.9877 31.7539 29.2119 31.4576 29.34 31.0893H30.5171C30.3409 31.7218 29.9886 32.2383 29.4601 32.6387C28.9316 33.0311 28.275 33.2272 27.4903 33.2272C26.8657 33.2272 26.3052 33.0871 25.8087 32.8068C25.3203 32.5266 24.9359 32.1302 24.6557 31.6177C24.3754 31.0973 24.2353 30.4967 24.2353 29.8161C24.2353 29.1355 24.3714 28.5389 24.6437 28.0264C24.9159 27.514 25.2963 27.1216 25.7847 26.8493C26.2812 26.5691 26.8497 26.429 27.4903 26.429C28.1149 26.429 28.6674 26.5651 29.1478 26.8373C29.6283 27.1096 29.9966 27.4859 30.2528 27.9664C30.5171 28.4388 30.6492 28.9753 30.6492 29.5759ZM29.5202 29.3477C29.5202 28.9313 29.4281 28.5749 29.2439 28.2787C29.0597 27.9744 28.8075 27.7462 28.4872 27.594C28.1749 27.4339 27.8266 27.3538 27.4422 27.3538C26.8897 27.3538 26.4173 27.53 26.0249 27.8823C25.6406 28.2346 25.4204 28.7231 25.3643 29.3477H29.5202Z" fill="#ABABAB"/>
<path d="M22.1378 33.1191L19.5554 30.2124V33.1191H18.4624V24.2309H19.5554V29.4557L22.0897 26.537H23.6151L20.5163 29.816L23.6271 33.1191H22.1378Z" fill="#ABABAB"/>
<path d="M9.93691 29.8041C9.93691 29.1315 10.073 28.5429 10.3453 28.0384C10.6175 27.526 10.9899 27.1296 11.4623 26.8493C11.9428 26.5691 12.4753 26.429 13.0598 26.429C13.6363 26.429 14.1368 26.5531 14.5612 26.8013C14.9856 27.0495 15.3019 27.3618 15.5101 27.7382V26.5371H16.6151V33.1191H15.5101V31.894C15.2939 32.2784 14.9696 32.5987 14.5372 32.8549C14.1128 33.1031 13.6163 33.2272 13.0478 33.2272C12.4632 33.2272 11.9348 33.0831 11.4623 32.7948C10.9899 32.5066 10.6175 32.1022 10.3453 31.5817C10.073 31.0612 9.93691 30.4687 9.93691 29.8041ZM15.5101 29.8161C15.5101 29.3196 15.41 28.8872 15.2098 28.5189C15.0096 28.1505 14.7373 27.8703 14.393 27.6781C14.0567 27.4779 13.6844 27.3778 13.276 27.3778C12.8676 27.3778 12.4953 27.4739 12.159 27.6661C11.8227 27.8583 11.5544 28.1385 11.3542 28.5069C11.154 28.8752 11.0539 29.3076 11.0539 29.8041C11.0539 30.3085 11.154 30.7489 11.3542 31.1253C11.5544 31.4936 11.8227 31.7779 12.159 31.9781C12.4953 32.1703 12.8676 32.2663 13.276 32.2663C13.6844 32.2663 14.0567 32.1703 14.393 31.9781C14.7373 31.7779 15.0096 31.4936 15.2098 31.1253C15.41 30.7489 15.5101 30.3125 15.5101 29.8161Z" fill="#ABABAB"/>
<path d="M8.49185 24.8073V33.119H7.39883V26.9213L4.63628 33.119H3.86757L1.09301 26.9093V33.119H0V24.8073H1.17709L4.25193 31.6777L7.32677 24.8073H8.49185Z" fill="#ABABAB"/>
</svg>
