<svg width="23" height="23" viewBox="0 0 23 23" fill="none" xmlns="http://www.w3.org/2000/svg">
<path d="M20.7369 5.53464L14.1198 0.904959C12.3162 -0.358725 9.54755 -0.289796 7.81286 1.0543L2.05735 5.54612C0.908552 6.44219 0.000997225 8.28028 0.000997225 9.72777V17.6545C0.000997225 20.584 2.37902 22.9735 5.30847 22.9735H17.6926C20.622 22.9735 23 20.5954 23 17.666V9.87711C23 8.32623 22.0006 6.41921 20.7369 5.53464ZM12.3621 18.3783C12.3621 18.8493 11.9715 19.2399 11.5005 19.2399C11.0295 19.2399 10.6389 18.8493 10.6389 18.3783V14.9318C10.6389 14.4608 11.0295 14.0702 11.5005 14.0702C11.9715 14.0702 12.3621 14.4608 12.3621 14.9318V18.3783Z" fill="#566CA2"/>
</svg>
