<svg width="30" height="30" viewBox="0 0 30 30" fill="none" xmlns="http://www.w3.org/2000/svg">
<path d="M9.73844 10.8862C12.1574 11.0126 14.2608 11.7459 15.9685 13.4026C17.6939 15.0763 18.4816 17.1273 18.2663 19.6698C19.2117 19.5527 20.0729 19.4239 20.939 19.3509C21.2381 19.3258 21.593 19.3615 21.8464 19.5045C22.6873 19.979 23.4936 20.5148 24.4491 21.1121C24.2738 20.3191 24.1603 19.6247 23.9594 18.9567C23.8116 18.4658 23.8801 18.1926 24.3323 17.8729C27.2361 15.8227 28.46 12.7547 27.544 9.59597C26.6966 6.67386 24.6154 4.90169 21.7876 3.97788C17.9279 2.71714 13.5902 4.00317 11.2432 7.06756C10.3956 8.17449 9.87579 9.41687 9.73844 10.8862ZM20.8712 9.902C20.8489 9.32428 21.3495 8.8038 21.9441 8.7864C22.5529 8.76851 23.0537 9.23375 23.0715 9.83364C23.0894 10.4416 22.6244 10.9289 22.0112 10.9444C21.4033 10.9599 20.8937 10.494 20.8712 9.902ZM15.0628 8.78603C15.6596 8.79703 16.1639 9.30534 16.1533 9.88534C16.1424 10.4866 15.6477 10.9569 15.034 10.9495C14.4187 10.9421 13.952 10.4668 13.9579 9.8529C13.963 9.25026 14.4555 8.77491 15.0628 8.78603Z" fill="white"/>
<path d="M4.30382 25.9665C5.06975 25.6254 5.77239 25.1137 6.52044 25.0356C7.26562 24.9577 8.04895 25.3876 8.82858 25.4674C11.2033 25.7103 13.3309 25.0485 15.0851 23.4261C18.4216 20.3402 17.9448 15.6084 14.0847 13.0795C10.654 10.8319 5.6226 11.5812 3.20382 14.6998C1.09297 17.4211 1.34107 21.0336 3.91795 23.3197C4.66361 23.9814 4.93197 24.5259 4.4535 25.3981C4.3652 25.5592 4.35509 25.7631 4.30382 25.9665ZM13.0227 17.5248C12.535 17.5253 12.1335 17.1437 12.115 16.6621C12.0956 16.1522 12.5057 15.7245 13.0163 15.7224C13.5218 15.7201 13.9453 16.1538 13.9277 16.6561C13.9111 17.136 13.5068 17.5242 13.0227 17.5248ZM7.40207 15.7244C7.8752 15.7211 8.27721 16.1084 8.29652 16.5865C8.317 17.0977 7.91969 17.5175 7.41377 17.5187C6.92446 17.5203 6.53784 17.1503 6.52006 16.6634C6.50107 16.151 6.89858 15.7279 7.40207 15.7244Z" fill="white"/>
</svg>
