<svg width="48" height="48" viewBox="0 0 48 48" fill="none" xmlns="http://www.w3.org/2000/svg">
<g clip-path="url(#clip0_593_348)">
<path d="M24 48C37.2548 48 48 37.2548 48 24C48 10.7452 37.2548 0 24 0C10.7452 0 0 10.7452 0 24C0 37.2548 10.7452 48 24 48Z" fill="#566CA2"/>
<g clip-path="url(#clip1_593_348)">
<path d="M36.9517 36.3809V37.5137H12.9517V36.3809C12.9517 36.0055 13.2395 35.7012 13.5945 35.7012H14.6659V15.3105C14.6659 14.5598 15.2416 13.9512 15.9517 13.9512H20.6659V9.87305C20.6659 9.12228 21.2416 8.51367 21.9517 8.51367H27.9517C28.6617 8.51367 29.2374 9.12228 29.2374 9.87305V13.9512H33.9517C34.6617 13.9512 35.2374 14.5598 35.2374 15.3105V35.7012H36.3088C36.6638 35.7012 36.9517 36.0055 36.9517 36.3809ZM29.4517 19.3887H27.3088C26.9538 19.3887 26.6659 19.693 26.6659 20.0684V22.334C26.6659 22.7093 26.9538 23.0137 27.3088 23.0137H29.4517C29.8067 23.0137 30.0945 22.7093 30.0945 22.334V20.0684C30.0945 19.693 29.8067 19.3887 29.4517 19.3887ZM20.4517 23.0137H22.5945C22.9495 23.0137 23.2374 22.7093 23.2374 22.334V20.0684C23.2374 19.693 22.9495 19.3887 22.5945 19.3887H20.4517C20.0966 19.3887 19.8088 19.693 19.8088 20.0684V22.334C19.8088 22.7093 20.0966 23.0137 20.4517 23.0137ZM26.0231 30.2637H23.8802C23.5252 30.2637 23.2374 30.568 23.2374 30.9434V35.7012H26.6659V30.9434C26.6659 30.568 26.3781 30.2637 26.0231 30.2637ZM29.4517 24.8262H27.3088C26.9538 24.8262 26.6659 25.1305 26.6659 25.5059V27.7715C26.6659 28.1468 26.9538 28.4512 27.3088 28.4512H29.4517C29.8067 28.4512 30.0945 28.1468 30.0945 27.7715V25.5059C30.0945 25.1305 29.8067 24.8262 29.4517 24.8262ZM23.2374 25.5059C23.2374 25.1305 22.9495 24.8262 22.5945 24.8262H20.4517C20.0966 24.8262 19.8088 25.1305 19.8088 25.5059V27.7715C19.8088 28.1468 20.0966 28.4512 20.4517 28.4512H22.5945C22.9495 28.4512 23.2374 28.1468 23.2374 27.7715V25.5059ZM22.7017 13.9512H24.0945V15.4238C24.0945 15.514 24.1284 15.6004 24.1887 15.6641C24.2489 15.7279 24.3307 15.7637 24.4159 15.7637H25.4874C25.5726 15.7637 25.6544 15.7279 25.7147 15.6641C25.7749 15.6004 25.8088 15.514 25.8088 15.4238V13.9512H27.2017C27.2869 13.9512 27.3687 13.9154 27.4289 13.8516C27.4892 13.7879 27.5231 13.7015 27.5231 13.6113V12.4785C27.5231 12.3884 27.4892 12.3019 27.4289 12.2382C27.3687 12.1745 27.2869 12.1387 27.2017 12.1387H25.8088V10.666C25.8088 10.5759 25.7749 10.4894 25.7147 10.4257C25.6544 10.362 25.5726 10.3262 25.4874 10.3262H24.4159C24.3307 10.3262 24.2489 10.362 24.1887 10.4257C24.1284 10.4894 24.0945 10.5759 24.0945 10.666V12.1387H22.7017C22.6164 12.1387 22.5347 12.1745 22.4744 12.2382C22.4141 12.3019 22.3802 12.3884 22.3802 12.4785V13.6113C22.3802 13.7015 22.4141 13.7879 22.4744 13.8516C22.5347 13.9154 22.6164 13.9512 22.7017 13.9512Z" fill="white"/>
</g>
</g>
<defs>
<clipPath id="clip0_593_348">
<rect width="48" height="48" fill="white"/>
</clipPath>
<clipPath id="clip1_593_348">
<rect width="24" height="29" fill="white" transform="translate(12.9517 8.51367)"/>
</clipPath>
</defs>
</svg>
