<svg width="29" height="29" viewBox="0 0 29 29" fill="none" xmlns="http://www.w3.org/2000/svg">
<path d="M25.375 9.66667V19.3333C25.375 22.67 22.67 25.375 19.3333 25.375H9.66667C6.32995 25.375 3.625 22.67 3.625 19.3333V9.66667C3.625 6.32995 6.32995 3.625 9.66667 3.625H19.3333C22.67 3.625 25.375 6.32995 25.375 9.66667Z" stroke="white" stroke-width="1.5" stroke-linecap="round" stroke-linejoin="round"/>
<path d="M16.7958 21.75H12.2042C11.8038 21.75 11.4792 21.4254 11.4792 21.025V18.2458C11.4792 17.8454 11.1546 17.5208 10.7542 17.5208H7.975C7.57459 17.5208 7.25 17.1963 7.25 16.7958V12.2042C7.25 11.8038 7.57459 11.4792 7.975 11.4792H10.7542C11.1546 11.4792 11.4792 11.1546 11.4792 10.7542V7.975C11.4792 7.57459 11.8038 7.25 12.2042 7.25H16.7958C17.1963 7.25 17.5208 7.57459 17.5208 7.975V10.7542C17.5208 11.1546 17.8454 11.4792 18.2458 11.4792H21.025C21.4254 11.4792 21.75 11.8038 21.75 12.2042V16.7958C21.75 17.1963 21.4254 17.5208 21.025 17.5208H18.2458C17.8454 17.5208 17.5208 17.8454 17.5208 18.2458V21.025C17.5208 21.4254 17.1963 21.75 16.7958 21.75Z" fill="white"/>
</svg>
