<svg width="10" height="17" viewBox="0 0 10 17" fill="none" xmlns="http://www.w3.org/2000/svg">
<path d="M3.08939 8.4995L9.20774 2.5045C9.45974 2.22491 9.60943 1.8842 9.63693 1.52766C9.66442 1.17111 9.5684 0.815623 9.36164 0.508442C9.2879 0.372623 9.17657 0.255423 9.03795 0.167678C8.89934 0.0799343 8.73792 0.02448 8.56861 0.00644461C8.39931 -0.0115908 8.22758 0.00837493 8.06933 0.0644951C7.91107 0.120615 7.77139 0.211077 7.66321 0.327516L0.433232 7.41101C0.152815 7.71992 0 8.10404 0 8.49999C0 8.89594 0.152815 9.28006 0.433232 9.58897L7.66321 16.6725C7.77139 16.7889 7.91107 16.8794 8.06933 16.9355C8.22758 16.9916 8.39931 17.0116 8.56861 16.9935C8.73792 16.9755 8.89934 16.92 9.03795 16.8323C9.17657 16.7446 9.2879 16.6273 9.36164 16.4915C9.5684 16.1843 9.66442 15.8289 9.63693 15.4723C9.60943 15.1158 9.45974 14.7751 9.20774 14.4955L3.08939 8.4995Z" fill="#676767"/>
</svg>
