<svg width="26" height="27" viewBox="0 0 26 27" fill="none" xmlns="http://www.w3.org/2000/svg">
<g filter="url(#filter0_d_809_303)">
<path d="M6.87125 5.91631C10.2556 2.48854 15.7427 2.48854 19.127 5.91631C19.9305 6.7246 20.569 7.69012 21.0049 8.75613C21.4409 9.82214 21.6654 10.9671 21.6654 12.1238C21.6654 13.2804 21.4409 14.4254 21.0049 15.4914C20.569 16.5574 19.9305 17.5229 19.127 18.3312L12.9997 24.5387L6.87125 18.3312C6.06772 17.5229 5.42923 16.5574 4.99331 15.4914C4.55738 14.4254 4.33282 13.2804 4.33282 12.1238C4.33282 10.9671 4.55738 9.82214 4.99331 8.75613C5.42923 7.69012 6.06772 6.7246 6.87125 5.91631ZM12.9997 15.0574C13.7233 15.0574 14.4026 14.7674 14.915 14.2409C15.4223 13.7175 15.7072 13.0082 15.7072 12.2688C15.7072 11.5293 15.4223 10.8201 14.915 10.2967C14.4037 9.77018 13.7233 9.48016 12.9997 9.48016C12.276 9.48016 11.5957 9.77018 11.0843 10.2967C10.5771 10.8201 10.2922 11.5293 10.2922 12.2688C10.2922 13.0082 10.5771 13.7175 11.0843 14.2409C11.5957 14.7674 12.276 15.0574 12.9997 15.0574Z" fill="#ED2241"/>
</g>
<defs>
<filter id="filter0_d_809_303" x="-4.28323" y="0" width="34.5666" height="35.3375" filterUnits="userSpaceOnUse" color-interpolation-filters="sRGB">
<feFlood flood-opacity="0" result="BackgroundImageFix"/>
<feColorMatrix in="SourceAlpha" type="matrix" values="0 0 0 0 0 0 0 0 0 0 0 0 0 0 0 0 0 0 127 0" result="hardAlpha"/>
<feOffset dy="4.17514"/>
<feGaussianBlur stdDeviation="2.08757"/>
<feComposite in2="hardAlpha" operator="out"/>
<feColorMatrix type="matrix" values="0 0 0 0 0 0 0 0 0 0 0 0 0 0 0 0 0 0 0.25 0"/>
<feBlend mode="normal" in2="BackgroundImageFix" result="effect1_dropShadow_809_303"/>
<feBlend mode="normal" in="SourceGraphic" in2="effect1_dropShadow_809_303" result="shape"/>
</filter>
</defs>
</svg>
