<svg width="13" height="12" viewBox="0 0 13 12" fill="none" xmlns="http://www.w3.org/2000/svg">
<path d="M7.06824 1.75507L7.97428 3.51507C8.09783 3.76007 8.4273 3.99507 8.70529 4.04007L10.3475 4.30507C11.3977 4.47507 11.6448 5.21507 10.888 5.94507L9.61132 7.18507C9.39511 7.39507 9.2767 7.80007 9.34363 8.09007L9.70913 9.62507C9.99742 10.8401 9.33333 11.3101 8.22653 10.6751L6.6873 9.79007C6.40931 9.63007 5.95114 9.63007 5.66801 9.79007L4.12878 10.6751C3.02712 11.3101 2.35789 10.8351 2.64617 9.62507L3.01168 8.09007C3.0786 7.80007 2.9602 7.39507 2.74398 7.18507L1.4673 5.94507C0.7157 5.21507 0.957653 4.47507 2.00783 4.30507L3.65002 4.04007C3.92286 3.99507 4.25233 3.76007 4.37588 3.51507L5.28191 1.75507C5.77611 0.800068 6.57919 0.800068 7.06824 1.75507Z" fill="#FCD240"/>
</svg>
