<svg width="27" height="27" viewBox="0 0 27 27" fill="none" xmlns="http://www.w3.org/2000/svg">
<g clip-path="url(#clip0_583_233)">
<path d="M18.5613 0C17.1219 0.0995609 15.4394 1.02092 14.459 2.22071C13.5647 3.30913 12.8289 4.92573 13.1158 6.49677C14.6885 6.54571 16.3136 5.60241 17.2552 4.38237C18.136 3.2467 18.8026 1.64022 18.5613 0Z" fill="black"/>
<path d="M24.2494 9.05832C22.8673 7.32529 20.9251 6.31955 19.0908 6.31955C16.6692 6.31955 15.6449 7.47885 13.9625 7.47885C12.2278 7.47885 10.9099 6.32293 8.81575 6.32293C6.75872 6.32293 4.56838 7.58009 3.17959 9.72994C1.22718 12.7573 1.5613 18.4491 4.72531 23.2972C5.85761 25.0319 7.36958 26.9827 9.3473 26.9995C11.1073 27.0164 11.6035 25.8706 13.9879 25.8588C16.3722 25.8453 16.8245 27.0147 18.5812 26.9962C20.5606 26.981 22.1552 24.8193 23.2875 23.0846C24.0992 21.8409 24.4012 21.2149 25.0307 19.8109C20.4526 18.0677 19.7185 11.5575 24.2494 9.05832Z" fill="black"/>
</g>
<defs>
<clipPath id="clip0_583_233">
<rect width="26.3855" height="26.3855" fill="white" transform="scale(1.02328)"/>
</clipPath>
</defs>
</svg>
