<svg width="15" height="14" viewBox="0 0 15 14" fill="none" xmlns="http://www.w3.org/2000/svg">
<path d="M5.76564 14C6.56171 14 7.20706 13.3731 7.20706 12.6C7.20706 11.8268 6.56171 11.2 5.76564 11.2C4.96956 11.2 4.32422 11.8268 4.32422 12.6C4.32422 13.3731 4.96956 14 5.76564 14Z" fill="white"/>
<path d="M10.0899 14C10.8859 14 11.5313 13.3731 11.5313 12.6C11.5313 11.8268 10.8859 11.2 10.0899 11.2C9.29378 11.2 8.64844 11.8268 8.64844 12.6C8.64844 13.3731 9.29378 14 10.0899 14Z" fill="white"/>
<path d="M14.1259 4.06C13.8376 3.71 13.4052 3.5 12.9728 3.5H4.75669L4.32426 1.12C4.18012 0.49 3.60355 0 2.88284 0H1.44142C0.648639 0 0 0.63 0 1.4C0 2.17 0.648639 2.34433 1.44142 2.34433H2.19472L2.80732 5.71377L3.41992 8.65377C3.56406 9.35377 3.60355 9.8 4.32426 9.8H11.5314C12.18 9.8 12.6845 9.38 12.9007 8.82L14.3421 5.32C14.4863 4.9 14.4142 4.48 14.1259 4.06Z" fill="white"/>
</svg>
