<svg width="31" height="28" viewBox="0 0 31 28" fill="none" xmlns="http://www.w3.org/2000/svg">
<path d="M13.6268 26.2978C21.1527 26.2978 27.2536 20.4108 27.2536 13.1489C27.2536 5.88695 21.1527 0 13.6268 0C6.10093 0 0 5.88695 0 13.1489C0 20.4108 6.10093 26.2978 13.6268 26.2978Z" fill="#566CA2"/>
<path d="M23.761 27.3091C27.3126 27.3091 30.1918 24.5309 30.1918 21.1038C30.1918 17.6767 27.3126 14.8985 23.761 14.8985C20.2093 14.8985 17.3301 17.6767 17.3301 21.1038C17.3301 24.5309 20.2093 27.3091 23.761 27.3091Z" fill="#4CAF50"/>
<path d="M23.9512 27.4378C27.5029 27.4378 30.382 24.6596 30.382 21.2325C30.382 17.8054 27.5029 15.0272 23.9512 15.0272C20.3995 15.0272 17.5204 17.8054 17.5204 21.2325C17.5204 24.6596 20.3995 27.4378 23.9512 27.4378Z" stroke="white" stroke-width="1.0939"/>
<path d="M10.605 10.2794C12.2098 10.3633 13.6053 10.8498 14.7383 11.9489C15.883 13.0593 16.4055 14.42 16.2627 16.1067C16.8899 16.0291 17.4612 15.9436 18.0358 15.8952C18.2342 15.8785 18.4697 15.9022 18.6378 15.9971C19.1957 16.3119 19.7306 16.6673 20.3646 17.0636C20.2482 16.5375 20.1729 16.0768 20.0396 15.6336C19.9416 15.308 19.987 15.1267 20.2871 14.9146C22.2135 13.5545 23.0255 11.519 22.4178 9.42343C21.8556 7.4848 20.4749 6.30909 18.5988 5.6962C16.0381 4.85979 13.1604 5.71298 11.6034 7.746C11.041 8.48037 10.6961 9.30461 10.605 10.2794ZM17.9908 9.62646C17.9761 9.24318 18.3082 8.89788 18.7027 8.88633C19.1066 8.87446 19.4388 9.18312 19.4506 9.58111C19.4625 9.98447 19.154 10.3077 18.7472 10.318C18.3438 10.3283 18.0058 10.0192 17.9908 9.62646ZM14.1374 8.88608C14.5333 8.89338 14.8679 9.23061 14.8608 9.6154C14.8536 10.0143 14.5254 10.3263 14.1183 10.3214C13.7101 10.3165 13.4005 10.0011 13.4043 9.59388C13.4077 9.19407 13.7344 8.87871 14.1374 8.88608Z" fill="white"/>
<path d="M6.99945 20.2841C7.50759 20.0578 7.97375 19.7184 8.47002 19.6665C8.9644 19.6149 9.48409 19.9001 10.0013 19.953C11.5768 20.1142 12.9883 19.6751 14.1521 18.5988C16.3656 16.5514 16.0493 13.4122 13.4884 11.7345C11.2124 10.2433 7.87437 10.7404 6.26968 12.8094C4.86927 14.6148 5.03387 17.0115 6.74345 18.5282C7.23815 18.9671 7.41619 19.3284 7.09876 19.907C7.04017 20.0139 7.03347 20.1492 6.99945 20.2841ZM12.7838 14.6837C12.4603 14.684 12.1939 14.4308 12.1817 14.1113C12.1687 13.773 12.4408 13.4893 12.7796 13.4879C13.1149 13.4863 13.3959 13.774 13.3842 14.1073C13.3732 14.4257 13.105 14.6833 12.7838 14.6837ZM9.05493 13.4892C9.36882 13.487 9.63552 13.744 9.64834 14.0611C9.66192 14.4003 9.39834 14.6788 9.06269 14.6796C8.73807 14.6807 8.48157 14.4352 8.46978 14.1122C8.45718 13.7722 8.7209 13.4915 9.05493 13.4892Z" fill="white"/>
</svg>
