<svg width="158" height="36" viewBox="0 0 158 36" fill="none" xmlns="http://www.w3.org/2000/svg">
<path d="M35.8965 9.80404C35.2148 9.80404 34.6733 9.64064 34.2718 9.31384C33.8703 8.9777 33.6696 8.3848 33.6696 7.53512V4.10372H32.4791V2.85721H33.6696L33.8516 1.09249H35.1542V2.85721H37.115V4.10372H35.1542V7.53512C35.1542 7.91794 35.2335 8.18405 35.3923 8.33344C35.5603 8.4735 35.8451 8.54353 36.2466 8.54353H37.0449V9.80404H35.8965Z" fill="#181D27"/>
<path d="M24.298 12.8852V2.85715H25.6285L25.7826 3.93559C26.0067 3.60879 26.3148 3.31934 26.707 3.06724C27.0991 2.81514 27.6033 2.68909 28.2196 2.68909C28.8919 2.68909 29.4848 2.84782 29.9983 3.16528C30.5119 3.48274 30.9134 3.91692 31.2028 4.46781C31.5016 5.0187 31.651 5.64429 31.651 6.34458C31.651 7.04486 31.5016 7.67045 31.2028 8.22134C30.9134 8.7629 30.5119 9.19241 29.9983 9.50987C29.4848 9.81799 28.8872 9.97206 28.2056 9.97206C27.664 9.97206 27.1832 9.86468 26.763 9.64992C26.3522 9.43517 26.0254 9.13171 25.7826 8.73955V12.8852H24.298ZM27.9535 8.68353C28.5884 8.68353 29.1113 8.46878 29.5221 8.03927C29.933 7.60042 30.1384 7.03086 30.1384 6.33057C30.1384 5.87305 30.045 5.46688 29.8583 5.11207C29.6715 4.75726 29.4148 4.48182 29.088 4.28574C28.7612 4.08032 28.383 3.97761 27.9535 3.97761C27.3186 3.97761 26.7957 4.19703 26.3848 4.63588C25.9834 5.07473 25.7826 5.63962 25.7826 6.33057C25.7826 7.03086 25.9834 7.60042 26.3848 8.03927C26.7957 8.46878 27.3186 8.68353 27.9535 8.68353Z" fill="#181D27"/>
<path d="M17.0271 12.8852L18.6938 9.22972H18.2876L15.5425 2.85712H17.1531L19.282 7.99722L21.5089 2.85712H23.0775L18.5957 12.8852H17.0271Z" fill="#181D27"/>
<path d="M11.207 7.67512C10.8429 7.67512 10.5067 7.6331 10.1986 7.54907L9.59634 8.13731C9.69905 8.20267 9.8251 8.25869 9.9745 8.30538C10.1239 8.35206 10.334 8.39408 10.6048 8.43143C10.8755 8.46878 11.2444 8.50612 11.7112 8.54347C12.6356 8.62751 13.3032 8.8516 13.714 9.21575C14.1249 9.57056 14.3303 10.0468 14.3303 10.6443C14.3303 11.0552 14.2182 11.4427 13.9941 11.8068C13.7794 12.1803 13.4386 12.4791 12.9717 12.7032C12.5142 12.9366 11.926 13.0533 11.207 13.0533C10.2359 13.0533 9.44695 12.8666 8.84004 12.4931C8.24246 12.1289 7.94367 11.5734 7.94367 10.8264C7.94367 10.537 8.01837 10.2475 8.16776 9.95805C8.32649 9.67794 8.57393 9.41183 8.91006 9.15973C8.71398 9.07569 8.54125 8.98699 8.39185 8.89362C8.2518 8.79091 8.12575 8.6882 8.0137 8.58549V8.24935L9.21819 7.01685C8.67664 6.54999 8.40586 5.93841 8.40586 5.1821C8.40586 4.72458 8.51324 4.30908 8.72799 3.93559C8.95208 3.55277 9.27421 3.24931 9.69438 3.02522C10.1146 2.80113 10.6188 2.68909 11.207 2.68909C11.5992 2.68909 11.9633 2.74511 12.2994 2.85715H14.8905V3.83755L13.658 3.90758C13.8821 4.29041 13.9941 4.71525 13.9941 5.1821C13.9941 5.64896 13.8821 6.06913 13.658 6.44262C13.4432 6.8161 13.1258 7.11489 12.7056 7.33898C12.2948 7.56307 11.7952 7.67512 11.207 7.67512ZM11.207 6.51265C11.6365 6.51265 11.982 6.4006 12.2434 6.17651C12.5142 5.94308 12.6496 5.61628 12.6496 5.19611C12.6496 4.7666 12.5142 4.4398 12.2434 4.21571C11.982 3.99162 11.6365 3.87957 11.207 3.87957C10.7682 3.87957 10.4133 3.99162 10.1426 4.21571C9.88113 4.4398 9.75041 4.7666 9.75041 5.19611C9.75041 5.61628 9.88113 5.94308 10.1426 6.17651C10.4133 6.4006 10.7682 6.51265 11.207 6.51265ZM9.34424 10.6863C9.34424 11.0878 9.52165 11.3866 9.87646 11.5827C10.2313 11.7881 10.6748 11.8908 11.207 11.8908C11.7205 11.8908 12.136 11.7788 12.4535 11.5547C12.771 11.3399 12.9297 11.0505 12.9297 10.6863C12.9297 10.4156 12.8223 10.1821 12.6076 9.98606C12.3928 9.79932 11.9867 9.6826 11.3891 9.63592C10.9409 9.60791 10.5441 9.56589 10.1986 9.50987C9.87179 9.68727 9.6477 9.87869 9.52632 10.0841C9.40493 10.2895 9.34424 10.4903 9.34424 10.6863Z" fill="#181D27"/>
<path d="M0.418139 9.804V0H6.65068V1.20449H1.90274V4.25774H6.23051V5.43422H1.90274V8.59951H6.65068V9.804H0.418139Z" fill="#181D27"/>
<path d="M152.658 33.0939V27.1394H153.57L153.63 28.2079C153.822 27.8317 154.099 27.5356 154.459 27.3195C154.819 27.1034 155.227 26.9954 155.683 26.9954C156.388 26.9954 156.948 27.2115 157.364 27.6437C157.788 28.0678 158 28.7241 158 29.6125V33.0939H156.992V29.7205C156.992 28.48 156.48 27.8597 155.455 27.8597C154.943 27.8597 154.515 28.0478 154.171 28.424C153.834 28.7921 153.666 29.3203 153.666 30.0086V33.0939H152.658Z" fill="#ABABAB"/>
<path d="M148.267 33.2379C147.706 33.2379 147.202 33.1099 146.754 32.8538C146.306 32.5977 145.95 32.2375 145.686 31.7733C145.43 31.3011 145.301 30.7489 145.301 30.1167C145.301 29.4844 145.434 28.9362 145.698 28.472C145.962 27.9998 146.318 27.6356 146.766 27.3795C147.222 27.1234 147.73 26.9954 148.291 26.9954C148.851 26.9954 149.355 27.1234 149.803 27.3795C150.251 27.6356 150.604 27.9998 150.86 28.472C151.124 28.9362 151.256 29.4844 151.256 30.1167C151.256 30.7489 151.124 31.3011 150.86 31.7733C150.596 32.2375 150.235 32.5977 149.779 32.8538C149.331 33.1099 148.827 33.2379 148.267 33.2379ZM148.267 32.3736C148.611 32.3736 148.931 32.2895 149.227 32.1215C149.523 31.9534 149.763 31.7013 149.947 31.3652C150.131 31.029 150.223 30.6129 150.223 30.1167C150.223 29.6205 150.131 29.2043 149.947 28.8682C149.771 28.532 149.535 28.2799 149.239 28.1118C148.943 27.9438 148.627 27.8597 148.291 27.8597C147.947 27.8597 147.626 27.9438 147.33 28.1118C147.034 28.2799 146.794 28.532 146.61 28.8682C146.426 29.2043 146.334 29.6205 146.334 30.1167C146.334 30.6129 146.426 31.029 146.61 31.3652C146.794 31.7013 147.03 31.9534 147.318 32.1215C147.614 32.2895 147.931 32.3736 148.267 32.3736Z" fill="#ABABAB"/>
<path d="M143.294 25.819C143.093 25.819 142.925 25.7549 142.789 25.6269C142.661 25.4908 142.597 25.3228 142.597 25.1227C142.597 24.9306 142.661 24.7705 142.789 24.6425C142.925 24.5144 143.093 24.4504 143.294 24.4504C143.486 24.4504 143.65 24.5144 143.786 24.6425C143.922 24.7705 143.99 24.9306 143.99 25.1227C143.99 25.3228 143.922 25.4908 143.786 25.6269C143.65 25.7549 143.486 25.819 143.294 25.819ZM142.789 33.0939V27.1395H143.798V33.0939H142.789Z" fill="#ABABAB"/>
<path d="M140.392 33.0939C139.848 33.0939 139.42 32.9619 139.108 32.6978C138.795 32.4337 138.639 31.9575 138.639 31.2692V27.9919H137.607V27.1395H138.639L138.771 25.7109H139.648V27.1395H141.4V27.9919H139.648V31.2692C139.648 31.6453 139.724 31.9015 139.876 32.0375C140.028 32.1656 140.296 32.2296 140.68 32.2296H141.304V33.0939H140.392Z" fill="#ABABAB"/>
<path d="M133.689 33.2379C133.193 33.2379 132.781 33.1539 132.453 32.9858C132.125 32.8178 131.881 32.5937 131.72 32.3136C131.56 32.0334 131.48 31.7293 131.48 31.4012C131.48 30.7929 131.712 30.3247 132.177 29.9966C132.641 29.6685 133.273 29.5044 134.073 29.5044H135.682V29.4324C135.682 28.9122 135.546 28.52 135.274 28.2559C135.002 27.9838 134.638 27.8477 134.181 27.8477C133.789 27.8477 133.449 27.9478 133.161 28.1479C132.881 28.3399 132.705 28.6241 132.633 29.0002H131.6C131.64 28.568 131.785 28.2039 132.033 27.9078C132.289 27.6116 132.605 27.3875 132.981 27.2355C133.357 27.0754 133.757 26.9954 134.181 26.9954C135.014 26.9954 135.638 27.2195 136.054 27.6677C136.478 28.1078 136.691 28.6961 136.691 29.4324V33.0939H135.79L135.73 32.0254C135.562 32.3616 135.314 32.6497 134.986 32.8898C134.666 33.1219 134.234 33.2379 133.689 33.2379ZM133.845 32.3856C134.23 32.3856 134.558 32.2855 134.83 32.0855C135.11 31.8854 135.322 31.6253 135.466 31.3051C135.61 30.985 135.682 30.6489 135.682 30.2967V30.2847H134.157C133.565 30.2847 133.145 30.3888 132.897 30.5969C132.657 30.7969 132.537 31.049 132.537 31.3532C132.537 31.6653 132.649 31.9174 132.873 32.1095C133.105 32.2935 133.429 32.3856 133.845 32.3856Z" fill="#ABABAB"/>
<path d="M127.599 33.2379C127.03 33.2379 126.518 33.1099 126.062 32.8538C125.614 32.5897 125.258 32.2255 124.994 31.7613C124.737 31.2891 124.609 30.7409 124.609 30.1167C124.609 29.4924 124.737 28.9482 124.994 28.484C125.258 28.0118 125.614 27.6477 126.062 27.3915C126.518 27.1274 127.03 26.9954 127.599 26.9954C128.303 26.9954 128.895 27.1795 129.375 27.5476C129.864 27.9158 130.172 28.408 130.3 29.0242H129.267C129.187 28.6561 128.991 28.3719 128.679 28.1719C128.367 27.9638 128.003 27.8597 127.587 27.8597C127.251 27.8597 126.934 27.9438 126.638 28.1118C126.342 28.2799 126.102 28.532 125.918 28.8682C125.734 29.2043 125.642 29.6205 125.642 30.1167C125.642 30.6129 125.734 31.029 125.918 31.3652C126.102 31.7013 126.342 31.9574 126.638 32.1335C126.934 32.3016 127.251 32.3856 127.587 32.3856C128.003 32.3856 128.367 32.2855 128.679 32.0855C128.991 31.8774 129.187 31.5853 129.267 31.2091H130.3C130.18 31.8094 129.876 32.2976 129.387 32.6737C128.899 33.0499 128.303 33.2379 127.599 33.2379Z" fill="#ABABAB"/>
<path d="M120.47 33.2379C119.91 33.2379 119.406 33.1099 118.958 32.8538C118.509 32.5977 118.153 32.2375 117.889 31.7733C117.633 31.3011 117.505 30.7489 117.505 30.1167C117.505 29.4844 117.637 28.9362 117.901 28.472C118.165 27.9998 118.521 27.6356 118.97 27.3795C119.426 27.1234 119.934 26.9954 120.494 26.9954C121.054 26.9954 121.559 27.1234 122.007 27.3795C122.455 27.6356 122.807 27.9998 123.063 28.472C123.327 28.9362 123.459 29.4844 123.459 30.1167C123.459 30.7489 123.327 31.3011 123.063 31.7733C122.799 32.2375 122.439 32.5977 121.983 32.8538C121.535 33.1099 121.03 33.2379 120.47 33.2379ZM120.47 32.3736C120.814 32.3736 121.134 32.2895 121.431 32.1215C121.727 31.9534 121.967 31.7013 122.151 31.3652C122.335 31.029 122.427 30.6129 122.427 30.1167C122.427 29.6205 122.335 29.2043 122.151 28.8682C121.975 28.532 121.739 28.2799 121.443 28.1118C121.146 27.9438 120.83 27.8597 120.494 27.8597C120.15 27.8597 119.83 27.9438 119.534 28.1118C119.238 28.2799 118.998 28.532 118.814 28.8682C118.629 29.2043 118.537 29.6205 118.537 30.1167C118.537 30.6129 118.629 31.029 118.814 31.3652C118.998 31.7013 119.234 31.9534 119.522 32.1215C119.818 32.2895 120.134 32.3736 120.47 32.3736Z" fill="#ABABAB"/>
<path d="M115.096 33.0939V24.4504H116.104V33.0939H115.096Z" fill="#ABABAB"/>
<path d="M109.629 33.0939C109.085 33.0939 108.657 32.9619 108.345 32.6978C108.033 32.4337 107.877 31.9575 107.877 31.2692V27.9919H106.844V27.1395H107.877L108.009 25.7109H108.885V27.1395H110.638V27.9919H108.885V31.2692C108.885 31.6453 108.961 31.9015 109.113 32.0375C109.265 32.1656 109.533 32.2296 109.918 32.2296H110.542V33.0939H109.629Z" fill="#ABABAB"/>
<path d="M100.406 33.0939V27.1394H101.319L101.379 28.2079C101.571 27.8317 101.847 27.5356 102.207 27.3195C102.567 27.1034 102.975 26.9954 103.431 26.9954C104.136 26.9954 104.696 27.2115 105.112 27.6437C105.536 28.0678 105.748 28.7241 105.748 29.6125V33.0939H104.74V29.7205C104.74 28.48 104.228 27.8597 103.203 27.8597C102.691 27.8597 102.263 28.0478 101.919 28.424C101.583 28.7921 101.415 29.3203 101.415 30.0086V33.0939H100.406Z" fill="#ABABAB"/>
<path d="M96.2485 33.2379C95.6803 33.2379 95.1761 33.1099 94.7359 32.8538C94.2957 32.5897 93.9476 32.2255 93.6915 31.7613C93.4434 31.2971 93.3193 30.7489 93.3193 30.1167C93.3193 29.4924 93.4434 28.9482 93.6915 28.484C93.9396 28.0118 94.2837 27.6477 94.7239 27.3915C95.1721 27.1274 95.6883 26.9954 96.2725 26.9954C96.8488 26.9954 97.345 27.1274 97.7611 27.3915C98.1853 27.6477 98.5094 27.9878 98.7335 28.412C98.9576 28.8361 99.0697 29.2923 99.0697 29.7805C99.0697 29.8686 99.0657 29.9566 99.0577 30.0446C99.0577 30.1327 99.0577 30.2327 99.0577 30.3448H94.3157C94.3397 30.8009 94.4438 31.1811 94.6279 31.4852C94.8199 31.7813 95.056 32.0054 95.3361 32.1575C95.6243 32.3096 95.9284 32.3856 96.2485 32.3856C96.6647 32.3856 97.0128 32.2895 97.2929 32.0975C97.5731 31.9054 97.7771 31.6453 97.9052 31.3172H98.9016C98.7415 31.8694 98.4334 32.3296 97.9772 32.6977C97.529 33.0579 96.9528 33.2379 96.2485 33.2379ZM96.2485 27.8477C95.7683 27.8477 95.3401 27.9958 94.964 28.2919C94.5958 28.58 94.3838 29.0042 94.3277 29.5644H98.0733C98.0493 29.0282 97.8652 28.608 97.521 28.3039C97.1769 27.9998 96.7527 27.8477 96.2485 27.8477Z" fill="#ABABAB"/>
<path d="M89.433 33.0939V27.1394H90.3453L90.4294 28.2799C90.6134 27.8878 90.8936 27.5756 91.2697 27.3435C91.6459 27.1114 92.1101 26.9954 92.6623 26.9954V28.0518H92.3862C92.034 28.0518 91.7099 28.1158 91.4138 28.2439C91.1176 28.3639 90.8816 28.572 90.7055 28.8682C90.5294 29.1643 90.4414 29.5724 90.4414 30.0927V33.0939H89.433Z" fill="#ABABAB"/>
<path d="M85.0718 33.0939V27.1394H85.9842L86.0682 28.2799C86.2523 27.8878 86.5324 27.5756 86.9086 27.3435C87.2847 27.1114 87.7489 26.9954 88.3011 26.9954V28.0518H88.025C87.6729 28.0518 87.3487 28.1158 87.0526 28.2439C86.7565 28.3639 86.5204 28.572 86.3443 28.8682C86.1683 29.1643 86.0802 29.5724 86.0802 30.0927V33.0939H85.0718Z" fill="#ABABAB"/>
<path d="M80.3749 33.238C79.6706 33.238 79.1104 33.0259 78.6942 32.6017C78.278 32.1695 78.0699 31.5093 78.0699 30.6209V27.1395H79.0783V30.5129C79.0783 31.7534 79.5865 32.3736 80.603 32.3736C81.1232 32.3736 81.5514 32.1895 81.8875 31.8214C82.2316 31.4452 82.4037 30.913 82.4037 30.2247V27.1395H83.4121V33.0939H82.4997L82.4277 32.0255C82.2436 32.4016 81.9675 32.6978 81.5994 32.9138C81.2392 33.1299 80.8311 33.238 80.3749 33.238Z" fill="#ABABAB"/>
<path d="M74.0924 33.2379C73.5242 33.2379 73.012 33.1099 72.5558 32.8538C72.1076 32.5897 71.7515 32.2255 71.4874 31.7613C71.2313 31.2891 71.1032 30.7409 71.1032 30.1167C71.1032 29.4924 71.2313 28.9482 71.4874 28.484C71.7515 28.0118 72.1076 27.6477 72.5558 27.3915C73.012 27.1274 73.5242 26.9954 74.0924 26.9954C74.7967 26.9954 75.389 27.1795 75.8692 27.5476C76.3574 27.9158 76.6655 28.408 76.7935 29.0242H75.7611C75.6811 28.6561 75.485 28.3719 75.1729 28.1719C74.8608 27.9638 74.4966 27.8597 74.0804 27.8597C73.7443 27.8597 73.4282 27.9438 73.1321 28.1118C72.8359 28.2799 72.5958 28.532 72.4118 28.8682C72.2277 29.2043 72.1357 29.6205 72.1357 30.1167C72.1357 30.6129 72.2277 31.029 72.4118 31.3652C72.5958 31.7013 72.8359 31.9574 73.1321 32.1335C73.4282 32.3016 73.7443 32.3856 74.0804 32.3856C74.4966 32.3856 74.8608 32.2855 75.1729 32.0855C75.485 31.8774 75.6811 31.5853 75.7611 31.2091H76.7935C76.6735 31.8094 76.3694 32.2976 75.8812 32.6737C75.393 33.0499 74.7967 33.2379 74.0924 33.2379Z" fill="#ABABAB"/>
<path d="M63.817 33.0939V27.1394H64.7294L64.8134 28.2799C64.9975 27.8878 65.2776 27.5756 65.6538 27.3435C66.0299 27.1114 66.4941 26.9954 67.0464 26.9954V28.0518H66.7702C66.4181 28.0518 66.094 28.1158 65.7979 28.2439C65.5017 28.3639 65.2656 28.572 65.0896 28.8682C64.9135 29.1643 64.8255 29.5724 64.8255 30.0927V33.0939H63.817Z" fill="#ABABAB"/>
<path d="M59.1201 33.238C58.4158 33.238 57.8556 33.0259 57.4394 32.6017C57.0233 32.1695 56.8152 31.5093 56.8152 30.6209V27.1395H57.8236V30.5129C57.8236 31.7534 58.3318 32.3736 59.3482 32.3736C59.8684 32.3736 60.2966 32.1895 60.6327 31.8214C60.9769 31.4452 61.1489 30.913 61.1489 30.2247V27.1395H62.1573V33.0939H61.245L61.1729 32.0255C60.9889 32.4016 60.7128 32.6978 60.3446 32.9138C59.9845 33.1299 59.5763 33.238 59.1201 33.238Z" fill="#ABABAB"/>
<path d="M52.5558 33.2379C51.9955 33.2379 51.4913 33.1099 51.0431 32.8538C50.595 32.5977 50.2388 32.2375 49.9747 31.7733C49.7186 31.3011 49.5905 30.7489 49.5905 30.1167C49.5905 29.4844 49.7226 28.9362 49.9867 28.472C50.2508 27.9998 50.607 27.6356 51.0551 27.3795C51.5113 27.1234 52.0195 26.9954 52.5798 26.9954C53.14 26.9954 53.6442 27.1234 54.0924 27.3795C54.5406 27.6356 54.8927 27.9998 55.1488 28.472C55.4129 28.9362 55.545 29.4844 55.545 30.1167C55.545 30.7489 55.4129 31.3011 55.1488 31.7733C54.8847 32.2375 54.5246 32.5977 54.0684 32.8538C53.6202 33.1099 53.116 33.2379 52.5558 33.2379ZM52.5558 32.3736C52.8999 32.3736 53.22 32.2895 53.5161 32.1215C53.8123 31.9534 54.0524 31.7013 54.2364 31.3652C54.4205 31.029 54.5126 30.6129 54.5126 30.1167C54.5126 29.6205 54.4205 29.2043 54.2364 28.8682C54.0604 28.532 53.8243 28.2799 53.5281 28.1118C53.232 27.9438 52.9159 27.8597 52.5798 27.8597C52.2356 27.8597 51.9155 27.9438 51.6194 28.1118C51.3232 28.2799 51.0831 28.532 50.8991 28.8682C50.715 29.2043 50.623 29.6205 50.623 30.1167C50.623 30.6129 50.715 31.029 50.8991 31.3652C51.0831 31.7013 51.3192 31.9534 51.6074 32.1215C51.9035 32.2895 52.2196 32.3736 52.5558 32.3736Z" fill="#ABABAB"/>
<path d="M44.383 35.735L45.8596 32.5177H45.5115L43.1465 27.1395H44.239L46.2078 31.7734L48.2966 27.1395H49.341L45.4394 35.735H44.383Z" fill="#ABABAB"/>
<path d="M36.3999 33.2379C35.8316 33.2379 35.3274 33.1099 34.8873 32.8538C34.4471 32.5897 34.0989 32.2255 33.8428 31.7613C33.5947 31.2971 33.4707 30.7489 33.4707 30.1167C33.4707 29.4924 33.5947 28.9482 33.8428 28.484C34.0909 28.0118 34.4351 27.6477 34.8753 27.3915C35.3234 27.1274 35.8397 26.9954 36.4239 26.9954C37.0001 26.9954 37.4963 27.1274 37.9125 27.3915C38.3367 27.6477 38.6608 27.9878 38.8849 28.412C39.109 28.8361 39.221 29.2923 39.221 29.7805C39.221 29.8686 39.217 29.9566 39.209 30.0446C39.209 30.1327 39.209 30.2327 39.209 30.3448H34.4671C34.4911 30.8009 34.5951 31.1811 34.7792 31.4852C34.9713 31.7813 35.2074 32.0054 35.4875 32.1575C35.7756 32.3096 36.0798 32.3856 36.3999 32.3856C36.8161 32.3856 37.1642 32.2895 37.4443 32.0975C37.7244 31.9054 37.9285 31.6453 38.0566 31.3172H39.053C38.8929 31.8694 38.5848 32.3296 38.1286 32.6977C37.6804 33.0579 37.1042 33.2379 36.3999 33.2379ZM36.3999 27.8477C35.9197 27.8477 35.4915 27.9958 35.1154 28.2919C34.7472 28.58 34.5351 29.0042 34.4791 29.5644H38.2246C38.2006 29.0282 38.0165 28.608 37.6724 28.3039C37.3283 27.9998 36.9041 27.8477 36.3999 27.8477Z" fill="#ABABAB"/>
<path d="M29.6866 31.2211C29.3504 31.2211 29.0423 31.1771 28.7622 31.0891L28.162 31.6533C28.25 31.7173 28.358 31.7733 28.4861 31.8214C28.6222 31.8614 28.8142 31.9014 29.0623 31.9414C29.3104 31.9734 29.6586 32.0094 30.1068 32.0494C30.9071 32.1055 31.4793 32.2895 31.8235 32.6017C32.1676 32.9138 32.3397 33.322 32.3397 33.8262C32.3397 34.1703 32.2436 34.4984 32.0515 34.8106C31.8675 35.1227 31.5794 35.3788 31.1872 35.5789C30.803 35.779 30.3068 35.879 29.6986 35.879C29.1624 35.879 28.6862 35.807 28.27 35.6629C27.8538 35.5269 27.5297 35.3148 27.2976 35.0267C27.0655 34.7465 26.9495 34.3904 26.9495 33.9582C26.9495 33.7341 27.0095 33.49 27.1295 33.2259C27.2496 32.9698 27.4737 32.7257 27.8018 32.4936C27.6257 32.4216 27.4737 32.3456 27.3456 32.2655C27.2256 32.1775 27.1135 32.0815 27.0095 31.9774V31.7013L28.0299 30.6929C27.5577 30.2927 27.3216 29.7645 27.3216 29.1082C27.3216 28.7161 27.4137 28.3599 27.5977 28.0398C27.7818 27.7197 28.0499 27.4676 28.4021 27.2835C28.7542 27.0914 29.1824 26.9954 29.6866 26.9954C30.0307 26.9954 30.3429 27.0434 30.623 27.1394H32.8199V27.8958L31.7034 27.9438C31.9355 28.2799 32.0515 28.6681 32.0515 29.1082C32.0515 29.5004 31.9555 29.8566 31.7634 30.1767C31.5794 30.4968 31.3112 30.7529 30.9591 30.945C30.615 31.1291 30.1908 31.2211 29.6866 31.2211ZM29.6866 30.3928C30.1108 30.3928 30.4469 30.2847 30.695 30.0686C30.9511 29.8445 31.0792 29.5244 31.0792 29.1082C31.0792 28.7001 30.9511 28.388 30.695 28.1719C30.4469 27.9478 30.1108 27.8357 29.6866 27.8357C29.2544 27.8357 28.9103 27.9478 28.6542 28.1719C28.4061 28.388 28.282 28.7001 28.282 29.1082C28.282 29.5244 28.4061 29.8445 28.6542 30.0686C28.9103 30.2847 29.2544 30.3928 29.6866 30.3928ZM27.9339 33.8622C27.9339 34.2624 28.1019 34.5585 28.4381 34.7506C28.7742 34.9506 29.1944 35.0507 29.6986 35.0507C30.1948 35.0507 30.591 34.9426 30.8871 34.7265C31.1912 34.5105 31.3433 34.2223 31.3433 33.8622C31.3433 33.6061 31.2392 33.382 31.0311 33.1899C30.8231 33.0058 30.4389 32.8978 29.8787 32.8658C29.4385 32.8338 29.0583 32.7938 28.7382 32.7457C28.4101 32.9218 28.194 33.1099 28.0899 33.31C27.9859 33.518 27.9339 33.7021 27.9339 33.8622Z" fill="#ABABAB"/>
<path d="M20.4634 33.0939V27.1394H21.3758L21.4358 28.2079C21.6279 27.8317 21.904 27.5356 22.2642 27.3195C22.6243 27.1034 23.0325 26.9954 23.4887 26.9954C24.1929 26.9954 24.7532 27.2115 25.1693 27.6437C25.5935 28.0678 25.8056 28.7241 25.8056 29.6125V33.0939H24.7972V29.7205C24.7972 28.48 24.285 27.8597 23.2606 27.8597C22.7484 27.8597 22.3202 28.0478 21.976 28.424C21.6399 28.7921 21.4718 29.3203 21.4718 30.0086V33.0939H20.4634Z" fill="#ABABAB"/>
<path d="M15.9499 33.2379C15.4537 33.2379 15.0415 33.1539 14.7134 32.9858C14.3852 32.8178 14.1411 32.5937 13.9811 32.3136C13.821 32.0334 13.741 31.7293 13.741 31.4012C13.741 30.7929 13.9731 30.3247 14.4372 29.9966C14.9014 29.6685 15.5337 29.5044 16.334 29.5044H17.9427V29.4324C17.9427 28.9122 17.8066 28.52 17.5345 28.2559C17.2624 27.9838 16.8982 27.8477 16.4421 27.8477C16.0499 27.8477 15.7098 27.9478 15.4216 28.1479C15.1415 28.3399 14.9655 28.6241 14.8934 29.0002H13.861C13.901 28.568 14.0451 28.2039 14.2932 27.9078C14.5493 27.6116 14.8654 27.3875 15.2416 27.2355C15.6177 27.0754 16.0179 26.9954 16.4421 26.9954C17.2744 26.9954 17.8987 27.2195 18.3148 27.6677C18.739 28.1078 18.9511 28.6961 18.9511 29.4324V33.0939H18.0507L17.9907 32.0254C17.8226 32.3616 17.5745 32.6497 17.2464 32.8898C16.9263 33.1219 16.4941 33.2379 15.9499 33.2379ZM16.1059 32.3856C16.4901 32.3856 16.8182 32.2855 17.0903 32.0855C17.3704 31.8854 17.5825 31.6253 17.7266 31.3051C17.8706 30.985 17.9427 30.6489 17.9427 30.2967V30.2847H16.418C15.8258 30.2847 15.4056 30.3888 15.1575 30.5969C14.9174 30.7969 14.7974 31.049 14.7974 31.3532C14.7974 31.6653 14.9094 31.9174 15.1335 32.1095C15.3656 32.2935 15.6898 32.3856 16.1059 32.3856Z" fill="#ABABAB"/>
<path d="M7.0986 33.0939V24.4504H8.10701V28.1599C8.30709 27.7918 8.59121 27.5077 8.95936 27.3076C9.32751 27.0995 9.72767 26.9954 10.1598 26.9954C10.8481 26.9954 11.4004 27.2115 11.8165 27.6437C12.2327 28.0679 12.4408 28.7241 12.4408 29.6125V33.0939H11.4444V29.7206C11.4444 28.48 10.9442 27.8598 9.94376 27.8598C9.42355 27.8598 8.98737 28.0479 8.63523 28.424C8.28308 28.7922 8.10701 29.3204 8.10701 30.0087V33.0939H7.0986Z" fill="#ABABAB"/>
<path d="M2.98922 33.2379C2.42099 33.2379 1.90878 33.1099 1.45259 32.8538C1.00441 32.5897 0.648265 32.2255 0.384157 31.7613C0.128052 31.2891 0 30.7409 0 30.1167C0 29.4924 0.128052 28.9482 0.384157 28.484C0.648265 28.0118 1.00441 27.6477 1.45259 27.3915C1.90878 27.1274 2.42099 26.9954 2.98922 26.9954C3.69351 26.9954 4.28575 27.1795 4.76594 27.5476C5.25414 27.9158 5.56227 28.408 5.69032 29.0242H4.6579C4.57787 28.6561 4.38179 28.3719 4.06966 28.1719C3.75753 27.9638 3.39338 27.8597 2.97721 27.8597C2.64108 27.8597 2.32495 27.9438 2.02883 28.1118C1.73271 28.2799 1.49261 28.532 1.30853 28.8682C1.12446 29.2043 1.03242 29.6205 1.03242 30.1167C1.03242 30.6129 1.12446 31.029 1.30853 31.3652C1.49261 31.7013 1.73271 31.9574 2.02883 32.1335C2.32495 32.3016 2.64108 32.3856 2.97721 32.3856C3.39338 32.3856 3.75753 32.2855 4.06966 32.0855C4.38179 31.8774 4.57787 31.5853 4.6579 31.2091H5.69032C5.57027 31.8094 5.26615 32.2976 4.77795 32.6737C4.28975 33.0499 3.69351 33.2379 2.98922 33.2379Z" fill="#ABABAB"/>
</svg>
