<svg width="25" height="21" viewBox="0 0 25 21" fill="none" xmlns="http://www.w3.org/2000/svg">
<g clip-path="url(#clip0_596_20)">
<path d="M12.4999 4.71672L3.01513 12.6208C2.94482 12.6807 2.85498 12.7086 2.77772 12.7582V20.3437C2.77772 20.5177 2.85089 20.6846 2.98112 20.8077C3.11135 20.9308 3.28799 20.9999 3.47217 20.9999H21.5277C21.7119 20.9999 21.8885 20.9308 22.0188 20.8077C22.149 20.6846 22.2222 20.5177 22.2222 20.3437V12.7599C22.1484 12.7123 22.0607 12.6852 21.9939 12.6286L12.4999 4.71672ZM16.6666 15.4218C16.6666 15.5088 16.63 15.5923 16.5649 15.6538C16.4998 15.7154 16.4115 15.7499 16.3194 15.7499H13.8888V18.0468C13.8888 18.1338 13.8523 18.2173 13.7871 18.2788C13.722 18.3404 13.6337 18.3749 13.5416 18.3749H11.4583C11.3662 18.3749 11.2779 18.3404 11.2128 18.2788C11.1476 18.2173 11.1111 18.1338 11.1111 18.0468V15.7499H8.6805C8.58841 15.7499 8.50009 15.7154 8.43498 15.6538C8.36986 15.5923 8.33328 15.5088 8.33328 15.4218V13.453C8.33328 13.366 8.36986 13.2826 8.43498 13.221C8.50009 13.1595 8.58841 13.1249 8.6805 13.1249H11.1111V10.828C11.1111 10.741 11.1476 10.6576 11.2128 10.596C11.2779 10.5345 11.3662 10.4999 11.4583 10.4999H13.5416C13.6337 10.4999 13.722 10.5345 13.7871 10.596C13.8523 10.6576 13.8888 10.741 13.8888 10.828V13.1249H16.3194C16.4115 13.1249 16.4998 13.1595 16.5649 13.221C16.63 13.2826 16.6666 13.366 16.6666 13.453V15.4218ZM24.7695 9.69109L13.661 0.42156C13.343 0.149915 12.9297 -0.000488281 12.501 -0.000488281C12.0724 -0.000488281 11.659 0.149915 11.3411 0.42156L0.229978 9.69109C0.162105 9.74869 0.106905 9.81836 0.0675316 9.89612C0.0281578 9.97388 0.00538193 10.0582 0.000504937 10.1443C-0.00437205 10.2304 0.00874545 10.3165 0.0391081 10.3978C0.0694707 10.4791 0.116484 10.5539 0.177461 10.618L1.10671 11.595C1.16766 11.6592 1.24138 11.7113 1.32367 11.7486C1.40596 11.7858 1.49519 11.8073 1.58629 11.8119C1.67738 11.8165 1.76854 11.8041 1.85456 11.7754C1.94058 11.7467 2.01977 11.7023 2.08762 11.6447L12.0407 3.34803C12.1676 3.24226 12.331 3.18389 12.5002 3.18389C12.6693 3.18389 12.8327 3.24226 12.9596 3.34803L22.9127 11.6443C22.9806 11.7019 23.0597 11.7463 23.1458 11.775C23.2318 11.8037 23.3229 11.8161 23.414 11.8115C23.5051 11.8069 23.5944 11.7853 23.6766 11.7481C23.7589 11.7109 23.8327 11.6588 23.8936 11.5946L24.8224 10.6176C24.9454 10.4881 25.0089 10.3178 24.999 10.144C24.989 9.97025 24.9065 9.80734 24.7695 9.69109Z" fill="white"/>
</g>
<defs>
<clipPath id="clip0_596_20">
<rect width="25" height="21" fill="white"/>
</clipPath>
</defs>
</svg>
