<svg width="47" height="39" viewBox="0 0 47 39" fill="none" xmlns="http://www.w3.org/2000/svg">
<path d="M25.5116 9.80482L25.5122 9.8052L32.0585 14.3854C32.5204 14.7087 32.9828 15.2599 33.3306 15.9261C33.6784 16.5923 33.8666 17.2873 33.8666 17.8539V25.5597C33.8666 27.8999 31.9663 29.8002 29.626 29.8002H17.374C15.0366 29.8002 13.1334 27.8914 13.1334 25.5483V17.7061C13.1334 17.1832 13.3031 16.5239 13.6205 15.8793C13.9377 15.2352 14.3593 14.693 14.7789 14.3657L14.7792 14.3655L20.4705 9.92377C20.4709 9.92343 20.4713 9.9231 20.4718 9.92277C21.8381 8.86515 24.0904 8.80902 25.5116 9.80482ZM23.5 26.33C24.524 26.33 25.3627 25.4913 25.3627 24.4673V21.0577C25.3627 20.0338 24.524 19.195 23.5 19.195C22.4761 19.195 21.6373 20.0338 21.6373 21.0577V24.4673C21.6373 25.4913 22.4761 26.33 23.5 26.33Z" stroke="#484C52" stroke-width="2"/>
</svg>
