<svg width="49" height="49" viewBox="0 0 49 49" fill="none" xmlns="http://www.w3.org/2000/svg">
<g clip-path="url(#clip0_1005_4070)">
<path d="M24 49C37.2548 49 48 38.2548 48 25C48 11.7452 37.2548 1 24 1C10.7452 1 0 11.7452 0 25C0 38.2548 10.7452 49 24 49Z" fill="#566CA2"/>
<path d="M29.0506 34.5834H29.0505L24.774 34.584C25.5206 33.5003 25.958 32.1864 25.958 30.7709C25.958 27.0545 22.9453 24.0417 19.2288 24.0417C18.5711 24.0417 17.9347 24.1363 17.333 24.3126V18.073C17.333 17.1583 18.0745 16.4167 18.9893 16.4167H29.0506C29.9654 16.4167 30.7069 17.1583 30.7069 18.073V32.9272C30.7069 33.8419 29.9654 34.5834 29.0506 34.5834ZM18.2655 27.7234L18.2614 27.7456L18.2594 27.7681L18.2517 27.8542L18.2497 27.8765V27.8989V31.7298V31.7522L18.2517 31.7745L18.2594 31.8606L18.2614 31.8831L18.2655 31.9053C18.3241 32.2282 18.5406 32.4961 18.8324 32.6254C18.4217 32.7844 18.1304 33.1833 18.1304 33.6502C18.1304 34.2569 18.6222 34.7487 19.2288 34.7487C19.8355 34.7487 20.3273 34.2569 20.3273 33.6502C20.3273 33.1833 20.036 32.7845 19.6253 32.6255C19.9171 32.4961 20.1337 32.2283 20.1923 31.9053L20.1963 31.8831L20.1983 31.8606L20.2061 31.7744L20.208 31.7522V31.7298V27.8989V27.8765L20.2061 27.8543L20.1983 27.7681L20.1963 27.7456L20.1923 27.7234C20.1093 27.2664 19.7101 26.9197 19.2289 26.9197C18.7476 26.9197 18.3485 27.2664 18.2655 27.7234ZM19.6964 19.8255L19.6942 19.8423L19.693 19.8592L19.6865 19.9567L19.6853 19.9734V19.9902V21.4281C19.6853 22.0455 20.144 22.555 20.7394 22.6357L20.7561 22.638L20.773 22.6392L20.8705 22.6457L20.8873 22.6468H20.9041H27.1332C27.7506 22.6468 28.2601 22.1882 28.3408 21.5928L28.343 21.5762L28.3442 21.5594L28.3508 21.4619L28.3519 21.445V21.4281V19.9902C28.3519 19.3171 27.8063 18.7715 27.1332 18.7715H20.9041C20.2867 18.7715 19.7772 19.2301 19.6964 19.8255ZM19.2288 26.0001C21.8637 26.0001 23.9997 28.136 23.9997 30.7709C23.9997 33.4058 21.8637 35.5417 19.2288 35.5417C16.594 35.5417 14.458 33.4058 14.458 30.7709C14.458 28.136 16.594 26.0001 19.2288 26.0001ZM32.8851 28.8769C32.9912 28.8769 33.0805 28.953 33.0999 29.0535L33.1038 29.1123V30.5313C33.1038 30.6375 33.0277 30.7267 32.9273 30.7461L32.8684 30.7501H32.6663V28.8769H32.8851ZM32.8851 25.0436C32.9912 25.0436 33.0805 25.1196 33.0999 25.2202L33.1038 25.279V26.698C33.1038 26.8042 33.0277 26.8934 32.9273 26.9128L32.8684 26.9167H32.6663V25.0436H32.8851ZM32.8851 21.2103C32.9913 21.2103 33.0805 21.2863 33.0999 21.3868L33.1038 21.4457V22.8647C33.1038 22.9709 33.0277 23.0601 32.9273 23.0794L32.8683 23.0834H32.6663V21.2103H32.8851Z" fill="white" stroke="white"/>
</g>
<defs>
<clipPath id="clip0_1005_4070">
<rect width="48" height="48" fill="white" transform="translate(0 1)"/>
</clipPath>
</defs>
</svg>
