<svg width="30" height="30" viewBox="0 0 30 30" fill="none" xmlns="http://www.w3.org/2000/svg">
<path d="M13.5002 23.8C10.9002 25.7 7.3002 25.4 4.9002 23.1C2.3002 20.5 2.3002 16.3 4.9002 13.7L13.6002 5C15.0002 3.6 16.7002 3 18.4002 3C20.1002 3 21.8002 3.6 23.1002 4.9C25.4002 7.2 25.7002 10.9 23.8002 13.5C22.9002 13.2 22.0002 13 21.0002 13C20.7002 13 20.4002 13 20.1002 13.1L20.9002 12.3C22.3002 10.9 22.3002 8.6 20.9002 7.2C20.2002 6.4 19.3002 6 18.4002 6C17.4002 6 16.5002 6.4 15.8002 7.1L12.0002 10.8L15.9002 14.7C14.1002 16.2 12.9002 18.4 12.9002 20.9C13.0002 22 13.2002 22.9 13.5002 23.8ZM24.5002 16.1C23.5002 15.4 22.3002 15 21.0002 15C17.7002 15 15.0002 17.7 15.0002 21C15.0002 22.3 15.4002 23.5 16.1002 24.5L24.5002 16.1ZM25.9002 17.5L17.5002 25.9C18.5002 26.6 19.7002 27 21.0002 27C24.3002 27 27.0002 24.3 27.0002 21C27.0002 19.7 26.6002 18.5 25.9002 17.5Z" fill="black"/>
</svg>
