<svg width="17" height="16" viewBox="0 0 17 16" fill="none" xmlns="http://www.w3.org/2000/svg">
<g clip-path="url(#clip0_1081_4116)">
<path d="M7.65573 0.772599C9.01241 0.772599 10.3386 1.16289 11.4667 1.89411C12.5947 2.62533 13.4739 3.66465 13.9931 4.88063C14.5122 6.09661 14.6481 7.43464 14.3834 8.72551C14.1187 10.0164 13.4654 11.2021 12.5061 12.1328C11.5468 13.0635 10.3246 13.6973 8.99395 13.954C7.66334 14.2108 6.28412 14.079 5.03072 13.5754C3.77731 13.0717 2.706 12.2187 1.95227 11.1244C1.19854 10.03 0.79624 8.74342 0.79624 7.42726C0.79624 5.66233 1.51893 3.96969 2.80534 2.7217C4.09174 1.47371 5.83648 0.772599 7.65573 0.772599Z" stroke="#777777" stroke-opacity="0.72" stroke-width="1.5" stroke-miterlimit="10" stroke-linecap="round" stroke-linejoin="round"/>
<path d="M14.5653 13.0333C14.789 13.0333 15.0077 13.0977 15.1937 13.2183C15.3797 13.3389 15.5247 13.5103 15.6102 13.7108C15.6958 13.9114 15.7181 14.132 15.6744 14.3448C15.6307 14.5577 15.5229 14.7532 15.3646 14.9066C15.2063 15.0599 15.0047 15.1644 14.7853 15.2066C14.5659 15.2488 14.3385 15.2269 14.1318 15.1437C13.9252 15.0605 13.7487 14.9197 13.6245 14.7392C13.5004 14.5586 13.4343 14.3464 13.4345 14.1294C13.4348 13.8386 13.554 13.5598 13.7661 13.3543C13.9781 13.1488 14.2656 13.0333 14.5653 13.0333Z" stroke="#777777" stroke-opacity="0.72" stroke-width="1.5" stroke-miterlimit="10" stroke-linecap="round" stroke-linejoin="round"/>
</g>
<defs>
<clipPath id="clip0_1081_4116">
<rect width="16.009" height="15.532" fill="white" transform="scale(1.03013)"/>
</clipPath>
</defs>
</svg>
