<svg width="22" height="20" viewBox="0 0 22 20" fill="none" xmlns="http://www.w3.org/2000/svg">
<g clip-path="url(#clip0_1032_356)">
<path d="M11 0C8.46771 0 6.41667 2.09883 6.41667 4.6875C6.41667 6.57734 7.06063 7.10547 10.5302 12.2461C10.7577 12.5822 11.2441 12.5822 11.4717 12.2461C14.9378 7.10547 15.5833 6.57812 15.5833 4.6875C15.5833 2.09883 13.5323 0 11 0ZM0.384236 8.89062C0.152167 8.98438 0 9.21484 0 9.46875V19.3711C0 19.8133 0.438854 20.1148 0.840278 19.9508L6.11111 17.5V7.86719C5.82465 7.375 5.62222 6.95312 5.47708 6.54297L0.384236 8.89062ZM12.4743 12.9609C12.142 13.4531 11.5882 13.75 11 13.75C10.411 13.75 9.85951 13.4545 9.5234 12.9578C8.90694 12.043 7.52049 10.0234 7.33333 9.75V17.4648L14.6667 20V9.75C14.4795 10.0234 13.0931 12.043 12.4743 12.9609ZM21.1635 6.29688L15.8889 8.75V20L21.6142 17.3598C21.8472 17.2305 22 17.0352 22 16.7812V6.875C22 6.43359 21.5646 6.09766 21.1635 6.29688Z" fill="#979797"/>
<ellipse cx="11.0002" cy="4.7999" rx="2.35714" ry="2.4" fill="white"/>
</g>
<defs>
<clipPath id="clip0_1032_356">
<rect width="22" height="20" fill="white"/>
</clipPath>
</defs>
</svg>
