<svg width="27" height="27" viewBox="0 0 27 27" fill="none" xmlns="http://www.w3.org/2000/svg">
<path d="M3.37537 23.6247H7.59408L20.0364 11.1823L15.8177 6.96359L3.37537 19.406V23.6247ZM5.62535 20.3397L15.8177 10.1473L16.8527 11.1823L6.66034 21.3747H5.62535V20.3397ZM20.6664 3.70112C20.5624 3.59683 20.4387 3.51409 20.3026 3.45764C20.1666 3.40118 20.0207 3.37213 19.8733 3.37213C19.726 3.37213 19.5801 3.40118 19.444 3.45764C19.3079 3.51409 19.1843 3.59683 19.0802 3.70112L17.0215 5.75985L21.2402 9.97856L23.2989 7.91983C23.4032 7.81575 23.4859 7.69213 23.5424 7.55603C23.5989 7.41994 23.6279 7.27405 23.6279 7.12671C23.6279 6.97937 23.5989 6.83348 23.5424 6.69739C23.4859 6.56129 23.4032 6.43767 23.2989 6.33359L20.6664 3.70112Z" fill="white"/>
</svg>
