<svg width="18" height="21" viewBox="0 0 18 21" fill="none" xmlns="http://www.w3.org/2000/svg">
<path d="M13.6103 4.7338L12.6802 5.6088L8.71988 9.15255L4.75955 5.5738L3.82942 4.6988C3.61029 4.48053 3.34281 4.34446 3.06009 4.30746C2.77737 4.27046 2.49185 4.33414 2.2389 4.49063C1.98595 4.64711 1.77668 4.88952 1.63702 5.18782C1.49737 5.48612 1.43346 5.8272 1.45322 6.1688V16.3101C1.45322 16.6257 1.55734 16.9283 1.74268 17.1515C1.92801 17.3747 2.17938 17.5001 2.44149 17.5001H4.35992V9.18756L8.71988 13.1251L13.0799 9.18756V17.5001H14.9983C15.2604 17.5001 15.5117 17.3747 15.6971 17.1515C15.8824 16.9283 15.9865 16.6257 15.9865 16.3101V6.1688C16.0002 5.83014 15.9318 5.49401 15.7898 5.20125C15.6478 4.90849 15.4381 4.67172 15.1864 4.51972C14.9348 4.36772 14.6518 4.30703 14.372 4.34504C14.0922 4.38304 13.8276 4.5181 13.6103 4.7338Z" fill="white"/>
</svg>
