<svg width="48" height="48" viewBox="0 0 48 48" fill="none" xmlns="http://www.w3.org/2000/svg">
<g clip-path="url(#clip0_809_154)">
<path d="M24 48C37.2548 48 48 37.2548 48 24C48 10.7452 37.2548 0 24 0C10.7452 0 0 10.7452 0 24C0 37.2548 10.7452 48 24 48Z" fill="#566CA2"/>
<g clip-path="url(#clip1_809_154)">
<path d="M33.3332 14.6667C33.3332 12.1 31.2332 10 28.6665 10H19.3332C16.7665 10 14.6665 12.1 14.6665 14.6667V33.3333C14.6665 35.9 16.7665 38 19.3332 38H28.6665C31.2332 38 33.3332 35.9 33.3332 33.3333V14.6667ZM25.1665 35.6667H22.8332C22.1332 35.6667 21.6665 35.2 21.6665 34.5C21.6665 33.8 22.1332 33.3333 22.8332 33.3333H25.1665C25.8665 33.3333 26.3332 33.8 26.3332 34.5C26.3332 35.2 25.8665 35.6667 25.1665 35.6667ZM30.9998 29.8333C30.9998 30.5333 30.5332 31 29.8332 31H18.1665C17.4665 31 16.9998 30.5333 16.9998 29.8333V15.8333C16.9998 15.1333 17.4665 14.6667 18.1665 14.6667H29.8332C30.5332 14.6667 30.9998 15.1333 30.9998 15.8333V29.8333Z" fill="white"/>
</g>
</g>
<defs>
<clipPath id="clip0_809_154">
<rect width="48" height="48" fill="white"/>
</clipPath>
<clipPath id="clip1_809_154">
<rect width="28" height="28" fill="white" transform="translate(10 10)"/>
</clipPath>
</defs>
</svg>
