<svg width="8" height="13" viewBox="0 0 8 13" fill="none" xmlns="http://www.w3.org/2000/svg">
<path d="M1.18696 13.0001C1.51197 13.0001 1.77338 12.887 1.99947 12.661L7.31961 7.47505C7.62342 7.17124 7.75766 6.8745 7.76472 6.50004C7.76472 6.13265 7.62342 5.82178 7.31961 5.52504L2.00653 0.332067C1.77338 0.113044 1.5049 0 1.18696 0C0.53696 0 0 0.52283 0 1.17283C0 1.49784 0.141305 1.79458 0.381524 2.04186L4.99514 6.50711L0.381524 10.9582C0.13424 11.2055 0 11.5022 0 11.8273C0 12.4702 0.53696 13.0001 1.18696 13.0001Z" fill="#ABABAB"/>
</svg>
