<svg width="240" height="36" viewBox="0 0 240 36" fill="none" xmlns="http://www.w3.org/2000/svg">
<path d="M69.9628 5.68401C69.9628 5.97335 69.9441 6.23469 69.9068 6.46802H64.0127C64.0593 7.08404 64.288 7.57871 64.6987 7.95205C65.1094 8.3254 65.6134 8.51207 66.2107 8.51207C67.0694 8.51207 67.6761 8.15272 68.0308 7.43404H69.7528C69.5195 8.14339 69.0948 8.72674 68.4788 9.18408C67.8721 9.63209 67.1161 9.85609 66.2107 9.85609C65.4734 9.85609 64.8107 9.69276 64.2227 9.36608C63.644 9.03008 63.1867 8.5634 62.8507 7.96605C62.524 7.35938 62.3606 6.65936 62.3606 5.86601C62.3606 5.07266 62.5193 4.37732 62.8367 3.77997C63.1633 3.17329 63.616 2.70661 64.1947 2.37994C64.7827 2.05327 65.4547 1.88993 66.2107 1.88993C66.9387 1.88993 67.5874 2.0486 68.1568 2.36594C68.7261 2.68328 69.1694 3.13129 69.4868 3.70997C69.8041 4.27931 69.9628 4.93733 69.9628 5.68401ZM68.2968 5.18C68.2874 4.59199 68.0774 4.12064 67.6667 3.76597C67.2561 3.41129 66.7474 3.23396 66.1407 3.23396C65.59 3.23396 65.1187 3.41129 64.7267 3.76597C64.3347 4.11131 64.1013 4.58265 64.0267 5.18H68.2968Z" fill="#181D27"/>
<path d="M56.5122 1.88993C57.1096 1.88993 57.6369 2.01127 58.0943 2.25394C58.561 2.48728 58.925 2.78128 59.1863 3.13596V2.01593H60.7963V9.85609C60.7963 10.5654 60.647 11.1955 60.3483 11.7461C60.0496 12.3061 59.6156 12.7448 59.0463 13.0622C58.4863 13.3795 57.8143 13.5382 57.0303 13.5382C55.9849 13.5382 55.1169 13.2908 54.4262 12.7962C53.7355 12.3108 53.3435 11.6481 53.2502 10.8081H54.8322C54.9535 11.2095 55.2102 11.5315 55.6022 11.7741C56.0036 12.0261 56.4796 12.1521 57.0303 12.1521C57.6743 12.1521 58.1923 11.9561 58.5843 11.5641C58.9856 11.1721 59.1863 10.6028 59.1863 9.85609V8.56807C58.9156 8.93207 58.547 9.24008 58.0803 9.49209C57.6229 9.73476 57.1003 9.85609 56.5122 9.85609C55.8402 9.85609 55.2242 9.68809 54.6642 9.35208C54.1135 9.00674 53.6749 8.53073 53.3482 7.92405C53.0308 7.30804 52.8722 6.61269 52.8722 5.83801C52.8722 5.06333 53.0308 4.37732 53.3482 3.77997C53.6749 3.18262 54.1135 2.72061 54.6642 2.39394C55.2242 2.05793 55.8402 1.88993 56.5122 1.88993ZM59.1863 5.86601C59.1863 5.334 59.0743 4.87199 58.8503 4.47998C58.6356 4.08798 58.3509 3.7893 57.9963 3.58397C57.6416 3.37863 57.2589 3.27596 56.8482 3.27596C56.4376 3.27596 56.0549 3.37863 55.7002 3.58397C55.3456 3.77997 55.0562 4.07398 54.8322 4.46598C54.6175 4.84866 54.5102 5.306 54.5102 5.83801C54.5102 6.37002 54.6175 6.8367 54.8322 7.23804C55.0562 7.63938 55.3456 7.94739 55.7002 8.16206C56.0642 8.3674 56.4469 8.47006 56.8482 8.47006C57.2589 8.47006 57.6416 8.3674 57.9963 8.16206C58.3509 7.95672 58.6356 7.65805 58.8503 7.26604C59.0743 6.8647 59.1863 6.39802 59.1863 5.86601Z" fill="#181D27"/>
<path d="M43.3837 5.83801C43.3837 5.06333 43.5424 4.37732 43.8597 3.77997C44.1864 3.18262 44.6251 2.72061 45.1757 2.39394C45.7357 2.05793 46.3518 1.88993 47.0238 1.88993C47.6304 1.88993 48.1578 2.01127 48.6058 2.25394C49.0631 2.48728 49.4272 2.78128 49.6978 3.13596V2.01593H51.3079V9.73009H49.6978V8.58207C49.4272 8.94607 49.0585 9.24941 48.5918 9.49209C48.1251 9.73476 47.5931 9.85609 46.9958 9.85609C46.3331 9.85609 45.7264 9.68809 45.1757 9.35208C44.6251 9.00674 44.1864 8.53073 43.8597 7.92405C43.5424 7.30804 43.3837 6.61269 43.3837 5.83801ZM49.6978 5.86601C49.6978 5.334 49.5858 4.87199 49.3618 4.47998C49.1471 4.08798 48.8625 3.7893 48.5078 3.58397C48.1531 3.37863 47.7704 3.27596 47.3598 3.27596C46.9491 3.27596 46.5664 3.37863 46.2118 3.58397C45.8571 3.77997 45.5677 4.07398 45.3437 4.46598C45.1291 4.84866 45.0217 5.306 45.0217 5.83801C45.0217 6.37002 45.1291 6.8367 45.3437 7.23804C45.5677 7.63938 45.8571 7.94739 46.2118 8.16206C46.5758 8.3674 46.9584 8.47006 47.3598 8.47006C47.7704 8.47006 48.1531 8.3674 48.5078 8.16206C48.8625 7.95672 49.1471 7.65805 49.3618 7.26604C49.5858 6.8647 49.6978 6.39802 49.6978 5.86601Z" fill="#181D27"/>
<path d="M41.8098 2.01615V9.73031H40.2137V8.82029C39.9617 9.13763 39.6304 9.38964 39.2197 9.57631C38.8184 9.75364 38.389 9.84231 37.9317 9.84231C37.325 9.84231 36.779 9.71631 36.2937 9.46431C35.8177 9.2123 35.4397 8.83896 35.1596 8.34428C34.889 7.84961 34.7536 7.25226 34.7536 6.55225V2.01615H36.3357V6.31424C36.3357 7.00492 36.5083 7.53693 36.8537 7.91027C37.199 8.27428 37.6704 8.45628 38.2677 8.45628C38.8651 8.45628 39.3364 8.27428 39.6817 7.91027C40.0364 7.53693 40.2137 7.00492 40.2137 6.31424V2.01615H41.8098Z" fill="#181D27"/>
<path d="M28.4433 1.88993C29.0407 1.88993 29.568 2.01127 30.0253 2.25394C30.492 2.48728 30.856 2.78128 31.1174 3.13596V2.01593H32.7274V9.85609C32.7274 10.5654 32.5781 11.1955 32.2794 11.7461C31.9807 12.3061 31.5467 12.7448 30.9774 13.0622C30.4174 13.3795 29.7453 13.5382 28.9613 13.5382C27.916 13.5382 27.048 13.2908 26.3573 12.7962C25.6666 12.3108 25.2746 11.6481 25.1812 10.8081H26.7633C26.8846 11.2095 27.1413 11.5315 27.5333 11.7741C27.9346 12.0261 28.4106 12.1521 28.9613 12.1521C29.6053 12.1521 30.1233 11.9561 30.5154 11.5641C30.9167 11.1721 31.1174 10.6028 31.1174 9.85609V8.56807C30.8467 8.93207 30.478 9.24008 30.0113 9.49209C29.554 9.73476 29.0313 9.85609 28.4433 9.85609C27.7713 9.85609 27.1553 9.68809 26.5953 9.35208C26.0446 9.00674 25.6059 8.53073 25.2792 7.92405C24.9619 7.30804 24.8032 6.61269 24.8032 5.83801C24.8032 5.06333 24.9619 4.37732 25.2792 3.77997C25.6059 3.18262 26.0446 2.72061 26.5953 2.39394C27.1553 2.05793 27.7713 1.88993 28.4433 1.88993ZM31.1174 5.86601C31.1174 5.334 31.0054 4.87199 30.7814 4.47998C30.5667 4.08798 30.282 3.7893 29.9273 3.58397C29.5727 3.37863 29.19 3.27596 28.7793 3.27596C28.3686 3.27596 27.986 3.37863 27.6313 3.58397C27.2766 3.77997 26.9873 4.07398 26.7633 4.46598C26.5486 4.84866 26.4413 5.306 26.4413 5.83801C26.4413 6.37002 26.5486 6.8367 26.7633 7.23804C26.9873 7.63938 27.2766 7.94739 27.6313 8.16206C27.9953 8.3674 28.378 8.47006 28.7793 8.47006C29.19 8.47006 29.5727 8.3674 29.9273 8.16206C30.282 7.95672 30.5667 7.65805 30.7814 7.26604C31.0054 6.8647 31.1174 6.39802 31.1174 5.86601Z" fill="#181D27"/>
<path d="M20.1356 1.88993C20.7423 1.88993 21.2836 2.01593 21.7596 2.26794C22.245 2.51994 22.623 2.89328 22.8936 3.38796C23.1643 3.88264 23.2996 4.47998 23.2996 5.18V9.73009H21.7176V5.418C21.7176 4.72732 21.5449 4.19998 21.1996 3.83597C20.8543 3.46263 20.3829 3.27596 19.7856 3.27596C19.1882 3.27596 18.7122 3.46263 18.3575 3.83597C18.0122 4.19998 17.8395 4.72732 17.8395 5.418V9.73009H16.2435V2.01593H17.8395V2.89795C18.1009 2.58061 18.4322 2.33327 18.8335 2.15594C19.2442 1.9786 19.6782 1.88993 20.1356 1.88993Z" fill="#181D27"/>
<path d="M6.22278 5.83801C6.22278 5.06333 6.38145 4.37732 6.69879 3.77997C7.02547 3.18262 7.46414 2.72061 8.01482 2.39394C8.57483 2.05793 9.19084 1.88993 9.86286 1.88993C10.4695 1.88993 10.9969 2.01127 11.4449 2.25394C11.9022 2.48728 12.2662 2.78128 12.5369 3.13596V2.01593H14.1469V9.73009H12.5369V8.58207C12.2662 8.94607 11.8976 9.24941 11.4309 9.49209C10.9642 9.73476 10.4322 9.85609 9.83486 9.85609C9.17218 9.85609 8.5655 9.68809 8.01482 9.35208C7.46414 9.00674 7.02547 8.53073 6.69879 7.92405C6.38145 7.30804 6.22278 6.61269 6.22278 5.83801ZM12.5369 5.86601C12.5369 5.334 12.4249 4.87199 12.2009 4.47998C11.9862 4.08798 11.7016 3.7893 11.3469 3.58397C10.9922 3.37863 10.6095 3.27596 10.1989 3.27596C9.78819 3.27596 9.40551 3.37863 9.05084 3.58397C8.69617 3.77997 8.40683 4.07398 8.18282 4.46598C7.96815 4.84866 7.86082 5.306 7.86082 5.83801C7.86082 6.37002 7.96815 6.8367 8.18282 7.23804C8.40683 7.63938 8.69617 7.94739 9.05084 8.16206C9.41485 8.3674 9.79752 8.47006 10.1989 8.47006C10.6095 8.47006 10.9922 8.3674 11.3469 8.16206C11.7016 7.95672 11.9862 7.65805 12.2009 7.26604C12.4249 6.8647 12.5369 6.39802 12.5369 5.86601Z" fill="#181D27"/>
<path d="M2.13022 8.44217H5.42029V9.7302H0.534191V0H2.13022V8.44217Z" fill="#181D27"/>
<path d="M237.312 25.315C238.112 25.315 238.76 25.559 239.256 26.047C239.752 26.527 240 27.223 240 28.135V32.0111H238.92V28.291C238.92 27.635 238.756 27.135 238.428 26.791C238.1 26.439 237.652 26.263 237.084 26.263C236.508 26.263 236.048 26.443 235.704 26.803C235.368 27.163 235.2 27.687 235.2 28.375V32.0111H234.108V25.435H235.2V26.371C235.416 26.035 235.708 25.775 236.076 25.591C236.452 25.407 236.864 25.315 237.312 25.315Z" fill="#ABABAB"/>
<path d="M229.3 32.1191C228.684 32.1191 228.124 31.9791 227.62 31.6991C227.124 31.4191 226.732 31.023 226.444 30.511C226.164 29.991 226.024 29.391 226.024 28.711C226.024 28.039 226.168 27.447 226.456 26.935C226.752 26.415 227.152 26.0189 227.656 25.7469C228.16 25.4669 228.724 25.3269 229.348 25.3269C229.972 25.3269 230.536 25.4669 231.04 25.7469C231.544 26.0189 231.94 26.411 232.228 26.923C232.524 27.435 232.672 28.031 232.672 28.711C232.672 29.391 232.52 29.991 232.216 30.511C231.92 31.023 231.516 31.4191 231.004 31.6991C230.492 31.9791 229.924 32.1191 229.3 32.1191ZM229.3 31.1591C229.692 31.1591 230.06 31.067 230.404 30.883C230.748 30.699 231.024 30.423 231.232 30.055C231.448 29.687 231.556 29.239 231.556 28.711C231.556 28.183 231.452 27.735 231.244 27.367C231.036 26.999 230.764 26.727 230.428 26.551C230.092 26.367 229.728 26.275 229.336 26.275C228.936 26.275 228.568 26.367 228.232 26.551C227.904 26.727 227.64 26.999 227.44 27.367C227.24 27.735 227.14 28.183 227.14 28.711C227.14 29.247 227.236 29.699 227.428 30.067C227.628 30.435 227.892 30.711 228.22 30.895C228.548 31.071 228.908 31.1591 229.3 31.1591Z" fill="#ABABAB"/>
<path d="M224.043 24.3669C223.835 24.3669 223.658 24.2949 223.514 24.1509C223.37 24.0069 223.298 23.8309 223.298 23.6229C223.298 23.4149 223.37 23.2389 223.514 23.0949C223.658 22.9509 223.835 22.8789 224.043 22.8789C224.243 22.8789 224.411 22.9509 224.547 23.0949C224.691 23.2389 224.763 23.4149 224.763 23.6229C224.763 23.8309 224.691 24.0069 224.547 24.1509C224.411 24.2949 224.243 24.3669 224.043 24.3669ZM224.571 25.4349V32.0111H223.478V25.4349H224.571Z" fill="#ABABAB"/>
<path d="M220.44 26.3351V30.2112C220.44 30.5312 220.508 30.7592 220.644 30.8952C220.78 31.0232 221.016 31.0872 221.352 31.0872H222.156V32.0112H221.172C220.564 32.0112 220.108 31.8712 219.804 31.5912C219.5 31.3112 219.348 30.8512 219.348 30.2112V26.3351H218.496V25.4351H219.348V23.779H220.44V25.4351H222.156V26.3351H220.44Z" fill="#ABABAB"/>
<path d="M210.59 28.699C210.59 28.027 210.726 27.439 210.998 26.935C211.27 26.423 211.642 26.0269 212.114 25.7469C212.594 25.4669 213.126 25.3269 213.71 25.3269C214.286 25.3269 214.786 25.4509 215.21 25.6989C215.634 25.9469 215.95 26.259 216.158 26.635V25.4349H217.262V32.0111H216.158V30.787C215.942 31.1711 215.618 31.4911 215.186 31.7471C214.762 31.9951 214.266 32.1191 213.698 32.1191C213.114 32.1191 212.586 31.9751 212.114 31.6871C211.642 31.3991 211.27 30.995 210.998 30.475C210.726 29.955 210.59 29.363 210.59 28.699ZM216.158 28.711C216.158 28.215 216.058 27.783 215.858 27.415C215.658 27.047 215.386 26.767 215.042 26.575C214.706 26.375 214.334 26.275 213.926 26.275C213.518 26.275 213.146 26.371 212.81 26.563C212.474 26.755 212.206 27.035 212.006 27.403C211.806 27.771 211.706 28.203 211.706 28.699C211.706 29.203 211.806 29.643 212.006 30.019C212.206 30.387 212.474 30.671 212.81 30.871C213.146 31.063 213.518 31.1591 213.926 31.1591C214.334 31.1591 214.706 31.063 215.042 30.871C215.386 30.671 215.658 30.387 215.858 30.019C216.058 29.643 216.158 29.207 216.158 28.711Z" fill="#ABABAB"/>
<path d="M203.301 28.711C203.301 28.031 203.437 27.439 203.709 26.935C203.981 26.423 204.357 26.0269 204.837 25.7469C205.325 25.4669 205.881 25.3269 206.505 25.3269C207.313 25.3269 207.977 25.5229 208.497 25.9149C209.025 26.307 209.373 26.851 209.541 27.547H208.365C208.253 27.147 208.033 26.831 207.705 26.599C207.385 26.367 206.985 26.251 206.505 26.251C205.881 26.251 205.377 26.467 204.993 26.899C204.609 27.323 204.417 27.927 204.417 28.711C204.417 29.503 204.609 30.115 204.993 30.547C205.377 30.979 205.881 31.1951 206.505 31.1951C206.985 31.1951 207.385 31.083 207.705 30.859C208.025 30.635 208.245 30.315 208.365 29.899H209.541C209.365 30.571 209.013 31.111 208.485 31.5191C207.957 31.9191 207.297 32.1191 206.505 32.1191C205.881 32.1191 205.325 31.9791 204.837 31.6991C204.357 31.4191 203.981 31.023 203.709 30.511C203.437 29.999 203.301 29.399 203.301 28.711Z" fill="#ABABAB"/>
<path d="M201.319 24.3669C201.111 24.3669 200.935 24.2949 200.791 24.1509C200.647 24.0069 200.575 23.8309 200.575 23.6229C200.575 23.4149 200.647 23.2389 200.791 23.0949C200.935 22.9509 201.111 22.8789 201.319 22.8789C201.519 22.8789 201.687 22.9509 201.823 23.0949C201.967 23.2389 202.039 23.4149 202.039 23.6229C202.039 23.8309 201.967 24.0069 201.823 24.1509C201.687 24.2949 201.519 24.3669 201.319 24.3669ZM201.847 25.4349V32.0111H200.755V25.4349H201.847Z" fill="#ABABAB"/>
<path d="M198.895 23.1311V32.0113H197.803V23.1311H198.895Z" fill="#ABABAB"/>
<path d="M190.785 26.647C191.001 26.271 191.321 25.9589 191.745 25.7109C192.177 25.4549 192.677 25.3269 193.245 25.3269C193.829 25.3269 194.357 25.4669 194.829 25.7469C195.309 26.0269 195.685 26.423 195.957 26.935C196.229 27.439 196.365 28.027 196.365 28.699C196.365 29.363 196.229 29.955 195.957 30.475C195.685 30.995 195.309 31.3991 194.829 31.6871C194.357 31.9751 193.829 32.1191 193.245 32.1191C192.685 32.1191 192.189 31.9951 191.757 31.7471C191.333 31.4911 191.009 31.1751 190.785 30.799V35.1311H189.693V25.4349H190.785V26.647ZM195.249 28.699C195.249 28.203 195.149 27.771 194.949 27.403C194.749 27.035 194.477 26.755 194.133 26.563C193.797 26.371 193.425 26.275 193.017 26.275C192.617 26.275 192.245 26.375 191.901 26.575C191.565 26.767 191.293 27.051 191.085 27.427C190.885 27.795 190.785 28.223 190.785 28.711C190.785 29.207 190.885 29.643 191.085 30.019C191.293 30.387 191.565 30.671 191.901 30.871C192.245 31.063 192.617 31.1591 193.017 31.1591C193.425 31.1591 193.797 31.063 194.133 30.871C194.477 30.671 194.749 30.387 194.949 30.019C195.149 29.643 195.249 29.203 195.249 28.699Z" fill="#ABABAB"/>
<path d="M182.676 26.647C182.892 26.271 183.212 25.9589 183.636 25.7109C184.068 25.4549 184.568 25.3269 185.136 25.3269C185.72 25.3269 186.248 25.4669 186.72 25.7469C187.2 26.0269 187.576 26.423 187.848 26.935C188.12 27.439 188.256 28.027 188.256 28.699C188.256 29.363 188.12 29.955 187.848 30.475C187.576 30.995 187.2 31.3991 186.72 31.6871C186.248 31.9751 185.72 32.1191 185.136 32.1191C184.576 32.1191 184.08 31.9951 183.648 31.7471C183.224 31.4911 182.9 31.1751 182.676 30.799V35.1311H181.584V25.4349H182.676V26.647ZM187.14 28.699C187.14 28.203 187.04 27.771 186.84 27.403C186.64 27.035 186.368 26.755 186.024 26.563C185.688 26.371 185.316 26.275 184.908 26.275C184.508 26.275 184.136 26.375 183.792 26.575C183.456 26.767 183.184 27.051 182.976 27.427C182.776 27.795 182.676 28.223 182.676 28.711C182.676 29.207 182.776 29.643 182.976 30.019C183.184 30.387 183.456 30.671 183.792 30.871C184.136 31.063 184.508 31.1591 184.908 31.1591C185.316 31.1591 185.688 31.063 186.024 30.871C186.368 30.671 186.64 30.387 186.84 30.019C187.04 29.643 187.14 29.203 187.14 28.699Z" fill="#ABABAB"/>
<path d="M173.066 28.699C173.066 28.027 173.202 27.439 173.474 26.935C173.746 26.423 174.118 26.0269 174.59 25.7469C175.07 25.4669 175.602 25.3269 176.186 25.3269C176.762 25.3269 177.262 25.4509 177.686 25.6989C178.11 25.9469 178.426 26.259 178.634 26.635V25.4349H179.738V32.0111H178.634V30.787C178.418 31.1711 178.094 31.4911 177.662 31.7471C177.238 31.9951 176.742 32.1191 176.174 32.1191C175.59 32.1191 175.062 31.9751 174.59 31.6871C174.118 31.3991 173.746 30.995 173.474 30.475C173.202 29.955 173.066 29.363 173.066 28.699ZM178.634 28.711C178.634 28.215 178.534 27.783 178.334 27.415C178.134 27.047 177.862 26.767 177.518 26.575C177.182 26.375 176.81 26.275 176.402 26.275C175.994 26.275 175.622 26.371 175.286 26.563C174.95 26.755 174.682 27.035 174.482 27.403C174.282 27.771 174.182 28.203 174.182 28.699C174.182 29.203 174.282 29.643 174.482 30.019C174.682 30.387 174.95 30.671 175.286 30.871C175.622 31.063 175.994 31.1591 176.402 31.1591C176.81 31.1591 177.182 31.063 177.518 30.871C177.862 30.671 178.134 30.387 178.334 30.019C178.534 29.643 178.634 29.207 178.634 28.711Z" fill="#ABABAB"/>
<path d="M168.833 28.471C168.833 28.679 168.821 28.899 168.797 29.131H163.541C163.581 29.779 163.801 30.287 164.201 30.655C164.609 31.015 165.101 31.1951 165.677 31.1951C166.149 31.1951 166.541 31.087 166.853 30.871C167.173 30.647 167.397 30.351 167.525 29.983H168.701C168.525 30.615 168.173 31.131 167.645 31.5311C167.117 31.9231 166.461 32.1191 165.677 32.1191C165.053 32.1191 164.493 31.9791 163.997 31.6991C163.509 31.4191 163.125 31.023 162.845 30.511C162.565 29.991 162.425 29.391 162.425 28.711C162.425 28.031 162.561 27.435 162.833 26.923C163.105 26.411 163.485 26.0189 163.973 25.7469C164.469 25.4669 165.037 25.3269 165.677 25.3269C166.301 25.3269 166.853 25.4629 167.333 25.7349C167.813 26.0069 168.181 26.383 168.437 26.863C168.701 27.335 168.833 27.871 168.833 28.471ZM167.705 28.243C167.705 27.827 167.613 27.471 167.429 27.175C167.245 26.871 166.993 26.643 166.673 26.491C166.361 26.331 166.013 26.251 165.629 26.251C165.077 26.251 164.605 26.427 164.213 26.779C163.829 27.131 163.609 27.619 163.553 28.243H167.705Z" fill="#ABABAB"/>
<path d="M158.422 25.3151C158.918 25.3151 159.366 25.4231 159.766 25.6391C160.166 25.8471 160.478 26.1631 160.702 26.5872C160.934 27.0112 161.05 27.5272 161.05 28.1352V32.0113H159.97V28.2912C159.97 27.6352 159.806 27.1352 159.478 26.7912C159.15 26.4392 158.702 26.2631 158.134 26.2631C157.558 26.2631 157.098 26.4432 156.753 26.8032C156.417 27.1632 156.249 27.6872 156.249 28.3752V32.0113H155.157V23.1311H156.249V26.3712C156.465 26.0351 156.761 25.7751 157.138 25.5911C157.522 25.4071 157.95 25.3151 158.422 25.3151Z" fill="#ABABAB"/>
<path d="M152.118 26.3351V30.2112C152.118 30.5312 152.186 30.7592 152.322 30.8952C152.458 31.0232 152.694 31.0872 153.03 31.0872H153.834V32.0112H152.85C152.242 32.0112 151.786 31.8712 151.482 31.5912C151.178 31.3112 151.026 30.8512 151.026 30.2112V26.3351H150.174V25.4351H151.026V23.779H152.118V25.4351H153.834V26.3351H152.118Z" fill="#ABABAB"/>
<path d="M146.313 26.3351H144.933V32.0112H143.841V26.3351H142.989V25.435H143.841V24.967C143.841 24.231 144.029 23.695 144.405 23.359C144.789 23.015 145.401 22.843 146.241 22.843V23.755C145.761 23.755 145.421 23.851 145.221 24.043C145.029 24.227 144.933 24.535 144.933 24.967V25.435H146.313V26.3351Z" fill="#ABABAB"/>
<path d="M138.83 32.1191C138.214 32.1191 137.654 31.9791 137.15 31.6991C136.654 31.4191 136.262 31.023 135.974 30.511C135.694 29.991 135.554 29.391 135.554 28.711C135.554 28.039 135.698 27.447 135.986 26.935C136.282 26.415 136.682 26.0189 137.186 25.7469C137.69 25.4669 138.254 25.3269 138.878 25.3269C139.502 25.3269 140.066 25.4669 140.57 25.7469C141.074 26.0189 141.47 26.411 141.758 26.923C142.054 27.435 142.202 28.031 142.202 28.711C142.202 29.391 142.05 29.991 141.746 30.511C141.45 31.023 141.046 31.4191 140.534 31.6991C140.022 31.9791 139.454 32.1191 138.83 32.1191ZM138.83 31.1591C139.222 31.1591 139.59 31.067 139.934 30.883C140.278 30.699 140.554 30.423 140.762 30.055C140.978 29.687 141.086 29.239 141.086 28.711C141.086 28.183 140.982 27.735 140.774 27.367C140.566 26.999 140.294 26.727 139.958 26.551C139.622 26.367 139.258 26.275 138.866 26.275C138.466 26.275 138.098 26.367 137.762 26.551C137.434 26.727 137.17 26.999 136.97 27.367C136.77 27.735 136.67 28.183 136.67 28.711C136.67 29.247 136.766 29.699 136.958 30.067C137.158 30.435 137.422 30.711 137.75 30.895C138.078 31.071 138.438 31.1591 138.83 31.1591Z" fill="#ABABAB"/>
<path d="M131.321 28.471C131.321 28.679 131.309 28.899 131.285 29.131H126.029C126.069 29.779 126.289 30.287 126.689 30.655C127.097 31.015 127.589 31.1951 128.165 31.1951C128.637 31.1951 129.029 31.087 129.341 30.871C129.661 30.647 129.885 30.351 130.013 29.983H131.189C131.013 30.615 130.661 31.131 130.133 31.5311C129.605 31.9231 128.949 32.1191 128.165 32.1191C127.541 32.1191 126.981 31.9791 126.485 31.6991C125.997 31.4191 125.613 31.023 125.333 30.511C125.053 29.991 124.913 29.391 124.913 28.711C124.913 28.031 125.049 27.435 125.321 26.923C125.593 26.411 125.973 26.0189 126.461 25.7469C126.957 25.4669 127.525 25.3269 128.165 25.3269C128.789 25.3269 129.341 25.4629 129.821 25.7349C130.301 26.0069 130.669 26.383 130.925 26.863C131.189 27.335 131.321 27.871 131.321 28.471ZM130.193 28.243C130.193 27.827 130.101 27.471 129.917 27.175C129.733 26.871 129.481 26.643 129.161 26.491C128.849 26.331 128.501 26.251 128.117 26.251C127.565 26.251 127.093 26.427 126.701 26.779C126.317 27.131 126.097 27.619 126.041 28.243H130.193Z" fill="#ABABAB"/>
<path d="M119.923 25.3269C120.491 25.3269 120.987 25.4509 121.411 25.6989C121.843 25.9469 122.163 26.259 122.371 26.635V25.4349H123.475V32.1551C123.475 32.7551 123.347 33.2871 123.091 33.7511C122.835 34.2231 122.467 34.5911 121.987 34.8551C121.515 35.1191 120.963 35.2511 120.331 35.2511C119.467 35.2511 118.747 35.0471 118.171 34.6391C117.595 34.2311 117.255 33.6751 117.151 32.9711H118.231C118.351 33.3711 118.599 33.6911 118.975 33.9311C119.351 34.1791 119.803 34.3031 120.331 34.3031C120.931 34.3031 121.419 34.1151 121.795 33.7391C122.179 33.3631 122.371 32.8351 122.371 32.1551V30.775C122.155 31.1591 121.835 31.4791 121.411 31.7351C120.987 31.9911 120.491 32.1191 119.923 32.1191C119.339 32.1191 118.807 31.9751 118.327 31.6871C117.855 31.3991 117.483 30.995 117.211 30.475C116.939 29.955 116.803 29.363 116.803 28.699C116.803 28.027 116.939 27.439 117.211 26.935C117.483 26.423 117.855 26.0269 118.327 25.7469C118.807 25.4669 119.339 25.3269 119.923 25.3269ZM122.371 28.711C122.371 28.215 122.271 27.783 122.071 27.415C121.871 27.047 121.599 26.767 121.255 26.575C120.919 26.375 120.547 26.275 120.139 26.275C119.731 26.275 119.359 26.371 119.023 26.563C118.687 26.755 118.419 27.035 118.219 27.403C118.019 27.771 117.919 28.203 117.919 28.699C117.919 29.203 118.019 29.643 118.219 30.019C118.419 30.387 118.687 30.671 119.023 30.871C119.359 31.063 119.731 31.1591 120.139 31.1591C120.547 31.1591 120.919 31.063 121.255 30.871C121.599 30.671 121.871 30.387 122.071 30.019C122.271 29.643 122.371 29.207 122.371 28.711Z" fill="#ABABAB"/>
<path d="M108.694 28.699C108.694 28.027 108.83 27.439 109.102 26.935C109.374 26.423 109.746 26.0269 110.218 25.7469C110.698 25.4669 111.23 25.3269 111.814 25.3269C112.39 25.3269 112.89 25.4509 113.314 25.6989C113.738 25.9469 114.054 26.259 114.262 26.635V25.4349H115.366V32.0111H114.262V30.787C114.046 31.1711 113.722 31.4911 113.29 31.7471C112.866 31.9951 112.37 32.1191 111.802 32.1191C111.218 32.1191 110.69 31.9751 110.218 31.6871C109.746 31.3991 109.374 30.995 109.102 30.475C108.83 29.955 108.694 29.363 108.694 28.699ZM114.262 28.711C114.262 28.215 114.162 27.783 113.962 27.415C113.762 27.047 113.49 26.767 113.146 26.575C112.81 26.375 112.438 26.275 112.03 26.275C111.622 26.275 111.25 26.371 110.914 26.563C110.578 26.755 110.31 27.035 110.11 27.403C109.91 27.771 109.81 28.203 109.81 28.699C109.81 29.203 109.91 29.643 110.11 30.019C110.31 30.387 110.578 30.671 110.914 30.871C111.25 31.063 111.622 31.1591 112.03 31.1591C112.438 31.1591 112.81 31.063 113.146 30.871C113.49 30.671 113.762 30.387 113.962 30.019C114.162 29.643 114.262 29.207 114.262 28.711Z" fill="#ABABAB"/>
<path d="M107.257 25.4351V32.0112H106.165V31.0392C105.957 31.3752 105.665 31.6392 105.289 31.8312C104.921 32.0152 104.513 32.1072 104.065 32.1072C103.553 32.1072 103.093 32.0032 102.685 31.7952C102.277 31.5792 101.953 31.2592 101.713 30.8352C101.481 30.4112 101.365 29.8952 101.365 29.2872V25.4351H102.445V29.1432C102.445 29.7912 102.609 30.2912 102.937 30.6432C103.265 30.9872 103.713 31.1592 104.281 31.1592C104.865 31.1592 105.325 30.9792 105.661 30.6192C105.997 30.2592 106.165 29.7352 106.165 29.0472V25.4351H107.257Z" fill="#ABABAB"/>
<path d="M96.0282 25.3269C96.5962 25.3269 97.0922 25.4509 97.5162 25.6989C97.9482 25.9469 98.2682 26.259 98.4763 26.635V25.4349H99.5803V32.1551C99.5803 32.7551 99.4523 33.2871 99.1963 33.7511C98.9403 34.2231 98.5723 34.5911 98.0922 34.8551C97.6202 35.1191 97.0682 35.2511 96.4362 35.2511C95.5722 35.2511 94.8522 35.0471 94.2762 34.6391C93.7002 34.2311 93.3601 33.6751 93.2561 32.9711H94.3362C94.4562 33.3711 94.7042 33.6911 95.0802 33.9311C95.4562 34.1791 95.9082 34.3031 96.4362 34.3031C97.0362 34.3031 97.5242 34.1151 97.9002 33.7391C98.2843 33.3631 98.4763 32.8351 98.4763 32.1551V30.775C98.2602 31.1591 97.9402 31.4791 97.5162 31.7351C97.0922 31.9911 96.5962 32.1191 96.0282 32.1191C95.4442 32.1191 94.9122 31.9751 94.4322 31.6871C93.9602 31.3991 93.5882 30.995 93.3162 30.475C93.0441 29.955 92.9081 29.363 92.9081 28.699C92.9081 28.027 93.0441 27.439 93.3162 26.935C93.5882 26.423 93.9602 26.0269 94.4322 25.7469C94.9122 25.4669 95.4442 25.3269 96.0282 25.3269ZM98.4763 28.711C98.4763 28.215 98.3762 27.783 98.1762 27.415C97.9762 27.047 97.7042 26.767 97.3602 26.575C97.0242 26.375 96.6522 26.275 96.2442 26.275C95.8362 26.275 95.4642 26.371 95.1282 26.563C94.7922 26.755 94.5242 27.035 94.3242 27.403C94.1242 27.771 94.0242 28.203 94.0242 28.699C94.0242 29.203 94.1242 29.643 94.3242 30.019C94.5242 30.387 94.7922 30.671 95.1282 30.871C95.4642 31.063 95.8362 31.1591 96.2442 31.1591C96.6522 31.1591 97.0242 31.063 97.3602 30.871C97.7042 30.671 97.9762 30.387 98.1762 30.019C98.3762 29.643 98.4763 29.207 98.4763 28.711Z" fill="#ABABAB"/>
<path d="M88.8445 25.315C89.6445 25.315 90.2925 25.559 90.7885 26.047C91.2845 26.527 91.5325 27.223 91.5325 28.135V32.0111H90.4525V28.291C90.4525 27.635 90.2885 27.135 89.9605 26.791C89.6325 26.439 89.1845 26.263 88.6165 26.263C88.0405 26.263 87.5804 26.443 87.2364 26.803C86.9004 27.163 86.7324 27.687 86.7324 28.375V32.0111H85.6404V25.435H86.7324V26.371C86.9484 26.035 87.2404 25.775 87.6084 25.591C87.9845 25.407 88.3965 25.315 88.8445 25.315Z" fill="#ABABAB"/>
<path d="M77.1227 28.699C77.1227 28.027 77.2587 27.439 77.5307 26.935C77.8027 26.423 78.1747 26.0269 78.6467 25.7469C79.1267 25.4669 79.6587 25.3269 80.2427 25.3269C80.8187 25.3269 81.3188 25.4509 81.7428 25.6989C82.1668 25.9469 82.4828 26.259 82.6908 26.635V25.4349H83.7948V32.0111H82.6908V30.787C82.4748 31.1711 82.1508 31.4911 81.7188 31.7471C81.2947 31.9951 80.7987 32.1191 80.2307 32.1191C79.6467 32.1191 79.1187 31.9751 78.6467 31.6871C78.1747 31.3991 77.8027 30.995 77.5307 30.475C77.2587 29.955 77.1227 29.363 77.1227 28.699ZM82.6908 28.711C82.6908 28.215 82.5908 27.783 82.3908 27.415C82.1908 27.047 81.9188 26.767 81.5748 26.575C81.2387 26.375 80.8667 26.275 80.4587 26.275C80.0507 26.275 79.6787 26.371 79.3427 26.563C79.0067 26.755 78.7387 27.035 78.5387 27.403C78.3387 27.771 78.2387 28.203 78.2387 28.699C78.2387 29.203 78.3387 29.643 78.5387 30.019C78.7387 30.387 79.0067 30.671 79.3427 30.871C79.6787 31.063 80.0507 31.1591 80.4587 31.1591C80.8667 31.1591 81.2387 31.063 81.5748 30.871C81.9188 30.671 82.1908 30.387 82.3908 30.019C82.5908 29.643 82.6908 29.207 82.6908 28.711Z" fill="#ABABAB"/>
<path d="M75.6697 23.1311V32.0113H74.5777V23.1311H75.6697Z" fill="#ABABAB"/>
<path d="M69.9368 28.471C69.9368 28.679 69.9248 28.899 69.9008 29.131H64.6447C64.6847 29.779 64.9047 30.287 65.3047 30.655C65.7127 31.015 66.2047 31.1951 66.7807 31.1951C67.2527 31.1951 67.6447 31.087 67.9567 30.871C68.2767 30.647 68.5007 30.351 68.6287 29.983H69.8048C69.6288 30.615 69.2768 31.131 68.7487 31.5311C68.2207 31.9231 67.5647 32.1191 66.7807 32.1191C66.1567 32.1191 65.5967 31.9791 65.1007 31.6991C64.6127 31.4191 64.2286 31.023 63.9486 30.511C63.6686 29.991 63.5286 29.391 63.5286 28.711C63.5286 28.031 63.6646 27.435 63.9366 26.923C64.2087 26.411 64.5887 26.0189 65.0767 25.7469C65.5727 25.4669 66.1407 25.3269 66.7807 25.3269C67.4047 25.3269 67.9567 25.4629 68.4367 25.7349C68.9168 26.0069 69.2848 26.383 69.5408 26.863C69.8048 27.335 69.9368 27.871 69.9368 28.471ZM68.8087 28.243C68.8087 27.827 68.7167 27.471 68.5327 27.175C68.3487 26.871 68.0967 26.643 67.7767 26.491C67.4647 26.331 67.1167 26.251 66.7327 26.251C66.1807 26.251 65.7087 26.427 65.3167 26.779C64.9327 27.131 64.7127 27.619 64.6567 28.243H68.8087Z" fill="#ABABAB"/>
<path d="M59.525 25.3151C60.021 25.3151 60.469 25.4231 60.869 25.6391C61.269 25.8471 61.581 26.1631 61.805 26.5872C62.037 27.0112 62.153 27.5272 62.153 28.1352V32.0113H61.073V28.2912C61.073 27.6352 60.909 27.1352 60.581 26.7912C60.253 26.4392 59.805 26.2631 59.237 26.2631C58.661 26.2631 58.201 26.4432 57.8569 26.8032C57.5209 27.1632 57.3529 27.6872 57.3529 28.3752V32.0113H56.2609V23.1311H57.3529V26.3712C57.5689 26.0351 57.8649 25.7751 58.241 25.5911C58.625 25.4071 59.053 25.3151 59.525 25.3151Z" fill="#ABABAB"/>
<path d="M53.2215 26.3351V30.2112C53.2215 30.5312 53.2895 30.7592 53.4255 30.8952C53.5615 31.0232 53.7975 31.0872 54.1335 31.0872H54.9375V32.0112H53.9535C53.3455 32.0112 52.8894 31.8712 52.5854 31.5912C52.2814 31.3112 52.1294 30.8512 52.1294 30.2112V26.3351H51.2774V25.4351H52.1294V23.779H53.2215V25.4351H54.9375V26.3351H53.2215Z" fill="#ABABAB"/>
<path d="M47.2488 28.471C47.2488 28.679 47.2368 28.899 47.2128 29.131H41.9567C41.9967 29.779 42.2167 30.287 42.6167 30.655C43.0247 31.015 43.5167 31.1951 44.0927 31.1951C44.5648 31.1951 44.9568 31.087 45.2688 30.871C45.5888 30.647 45.8128 30.351 45.9408 29.983H47.1168C46.9408 30.615 46.5888 31.131 46.0608 31.5311C45.5328 31.9231 44.8768 32.1191 44.0927 32.1191C43.4687 32.1191 42.9087 31.9791 42.4127 31.6991C41.9247 31.4191 41.5407 31.023 41.2607 30.511C40.9807 29.991 40.8407 29.391 40.8407 28.711C40.8407 28.031 40.9767 27.435 41.2487 26.923C41.5207 26.411 41.9007 26.0189 42.3887 25.7469C42.8847 25.4669 43.4527 25.3269 44.0927 25.3269C44.7168 25.3269 45.2688 25.4629 45.7488 25.7349C46.2288 26.0069 46.5968 26.383 46.8528 26.863C47.1168 27.335 47.2488 27.871 47.2488 28.471ZM46.1208 28.243C46.1208 27.827 46.0288 27.471 45.8448 27.175C45.6608 26.871 45.4088 26.643 45.0888 26.491C44.7768 26.331 44.4288 26.251 44.0447 26.251C43.4927 26.251 43.0207 26.427 42.6287 26.779C42.2447 27.131 42.0247 27.619 41.9687 28.243H46.1208Z" fill="#ABABAB"/>
<path d="M35.8512 25.3269C36.4192 25.3269 36.9152 25.4509 37.3392 25.6989C37.7712 25.9469 38.0912 26.259 38.2992 26.635V25.4349H39.4033V32.1551C39.4033 32.7551 39.2753 33.2871 39.0193 33.7511C38.7633 34.2231 38.3953 34.5911 37.9152 34.8551C37.4432 35.1191 36.8912 35.2511 36.2592 35.2511C35.3952 35.2511 34.6752 35.0471 34.0992 34.6391C33.5232 34.2311 33.1831 33.6751 33.0791 32.9711H34.1592C34.2792 33.3711 34.5272 33.6911 34.9032 33.9311C35.2792 34.1791 35.7312 34.3031 36.2592 34.3031C36.8592 34.3031 37.3472 34.1151 37.7232 33.7391C38.1072 33.3631 38.2992 32.8351 38.2992 32.1551V30.775C38.0832 31.1591 37.7632 31.4791 37.3392 31.7351C36.9152 31.9911 36.4192 32.1191 35.8512 32.1191C35.2672 32.1191 34.7352 31.9751 34.2552 31.6871C33.7832 31.3991 33.4111 30.995 33.1391 30.475C32.8671 29.955 32.7311 29.363 32.7311 28.699C32.7311 28.027 32.8671 27.439 33.1391 26.935C33.4111 26.423 33.7832 26.0269 34.2552 25.7469C34.7352 25.4669 35.2672 25.3269 35.8512 25.3269ZM38.2992 28.711C38.2992 28.215 38.1992 27.783 37.9992 27.415C37.7992 27.047 37.5272 26.767 37.1832 26.575C36.8472 26.375 36.4752 26.275 36.0672 26.275C35.6592 26.275 35.2872 26.371 34.9512 26.563C34.6152 26.755 34.3472 27.035 34.1472 27.403C33.9472 27.771 33.8472 28.203 33.8472 28.699C33.8472 29.203 33.9472 29.643 34.1472 30.019C34.3472 30.387 34.6152 30.671 34.9512 30.871C35.2872 31.063 35.6592 31.1591 36.0672 31.1591C36.4752 31.1591 36.8472 31.063 37.1832 30.871C37.5272 30.671 37.7992 30.387 37.9992 30.019C38.1992 29.643 38.2992 29.207 38.2992 28.711Z" fill="#ABABAB"/>
<path d="M28.6675 25.315C29.4675 25.315 30.1155 25.559 30.6115 26.047C31.1075 26.527 31.3555 27.223 31.3555 28.135V32.0111H30.2755V28.291C30.2755 27.635 30.1115 27.135 29.7835 26.791C29.4555 26.439 29.0075 26.263 28.4395 26.263C27.8635 26.263 27.4034 26.443 27.0594 26.803C26.7234 27.163 26.5554 27.687 26.5554 28.375V32.0111H25.4634V25.435H26.5554V26.371C26.7714 26.035 27.0634 25.775 27.4314 25.591C27.8075 25.407 28.2195 25.315 28.6675 25.315Z" fill="#ABABAB"/>
<path d="M16.9457 28.699C16.9457 28.027 17.0817 27.439 17.3537 26.935C17.6257 26.423 17.9977 26.0269 18.4697 25.7469C18.9497 25.4669 19.4817 25.3269 20.0657 25.3269C20.6417 25.3269 21.1417 25.4509 21.5658 25.6989C21.9898 25.9469 22.3058 26.259 22.5138 26.635V25.4349H23.6178V32.0111H22.5138V30.787C22.2978 31.1711 21.9738 31.4911 21.5417 31.7471C21.1177 31.9951 20.6217 32.1191 20.0537 32.1191C19.4697 32.1191 18.9417 31.9751 18.4697 31.6871C17.9977 31.3991 17.6257 30.995 17.3537 30.475C17.0817 29.955 16.9457 29.363 16.9457 28.699ZM22.5138 28.711C22.5138 28.215 22.4138 27.783 22.2138 27.415C22.0138 27.047 21.7418 26.767 21.3977 26.575C21.0617 26.375 20.6897 26.275 20.2817 26.275C19.8737 26.275 19.5017 26.371 19.1657 26.563C18.8297 26.755 18.5617 27.035 18.3617 27.403C18.1617 27.771 18.0617 28.203 18.0617 28.699C18.0617 29.203 18.1617 29.643 18.3617 30.019C18.5617 30.387 18.8297 30.671 19.1657 30.871C19.5017 31.063 19.8737 31.1591 20.2817 31.1591C20.6897 31.1591 21.0617 31.063 21.3977 30.871C21.7418 30.671 22.0138 30.387 22.2138 30.019C22.4138 29.643 22.5138 29.207 22.5138 28.711Z" fill="#ABABAB"/>
<path d="M12.942 25.3151C13.438 25.3151 13.886 25.4231 14.286 25.6391C14.686 25.8471 14.998 26.1631 15.222 26.5872C15.454 27.0112 15.5701 27.5272 15.5701 28.1352V32.0113H14.49V28.2912C14.49 27.6352 14.326 27.1352 13.998 26.7912C13.67 26.4392 13.222 26.2631 12.654 26.2631C12.078 26.2631 11.618 26.4432 11.274 26.8032C10.938 27.1632 10.77 27.6872 10.77 28.3752V32.0113H9.67793V23.1311H10.77V26.3712C10.986 26.0351 11.282 25.7751 11.658 25.5911C12.042 25.4071 12.47 25.3151 12.942 25.3151Z" fill="#ABABAB"/>
<path d="M0 27.8231C0 27.0071 0.184004 26.2751 0.552011 25.6271C0.920019 24.9711 1.42003 24.4591 2.05204 24.0911C2.69205 23.7231 3.40007 23.5391 4.17609 23.5391C5.0881 23.5391 5.88412 23.7591 6.56413 24.1991C7.24415 24.6391 7.74016 25.2631 8.05216 26.0711H6.74414C6.51213 25.5671 6.17613 25.1791 5.73612 24.9071C5.30411 24.6351 4.7841 24.4991 4.17609 24.4991C3.59207 24.4991 3.06806 24.6351 2.60405 24.9071C2.14004 25.1791 1.77604 25.5671 1.51203 26.0711C1.24803 26.5671 1.11602 27.1511 1.11602 27.8231C1.11602 28.4872 1.24803 29.0712 1.51203 29.5752C1.77604 30.0712 2.14004 30.4552 2.60405 30.7272C3.06806 30.9992 3.59207 31.1352 4.17609 31.1352C4.7841 31.1352 5.30411 31.0032 5.73612 30.7392C6.17613 30.4672 6.51213 30.0792 6.74414 29.5752H8.05216C7.74016 30.3752 7.24415 30.9952 6.56413 31.4352C5.88412 31.8672 5.0881 32.0832 4.17609 32.0832C3.40007 32.0832 2.69205 31.9032 2.05204 31.5432C1.42003 31.1752 0.920019 30.6672 0.552011 30.0192C0.184004 29.3712 0 28.6392 0 27.8231Z" fill="#ABABAB"/>
</svg>
