<svg width="19" height="20" viewBox="0 0 19 20" fill="none" xmlns="http://www.w3.org/2000/svg">
<path d="M13.9785 4.22229C11.5054 1.77602 7.49563 1.77602 5.02248 4.22229C4.43529 4.79914 3.9687 5.4882 3.65014 6.24897C3.33159 7.00974 3.16748 7.82687 3.16748 8.65232C3.16748 9.47778 3.33159 10.2949 3.65014 11.0557C3.9687 11.8165 4.43529 12.5055 5.02248 13.0824L9.50011 17.5124L13.9785 13.0824C14.5657 12.5055 15.0323 11.8165 15.3509 11.0557C15.6694 10.2949 15.8335 9.47778 15.8335 8.65232C15.8335 7.82687 15.6694 7.00974 15.3509 6.24897C15.0323 5.4882 14.5657 4.79914 13.9785 4.22229ZM9.50011 10.7459C8.97128 10.7459 8.47491 10.539 8.10046 10.1632C7.72976 9.78968 7.52157 9.28352 7.52157 8.75581C7.52157 8.2281 7.72976 7.72194 8.10046 7.34839C8.47412 6.97265 8.97128 6.76568 9.50011 6.76568C10.0289 6.76568 10.5261 6.97265 10.8998 7.34839C11.2705 7.72194 11.4787 8.2281 11.4787 8.75581C11.4787 9.28352 11.2705 9.78968 10.8998 10.1632C10.5261 10.539 10.0289 10.7459 9.50011 10.7459Z" fill="#566CA2"/>
</svg>
